<svg width="31" height="19" viewBox="0 0 31 19" fill="none" xmlns="http://www.w3.org/2000/svg">
<path d="M15.9732 18.1388C16.3891 17.9075 16.7865 17.6504 17.1779 17.3869C17.5754 17.1235 18.0096 16.8471 18.4437 16.5386C19.3304 15.941 20.2599 15.2405 21.22 14.4886C23.1218 12.9719 25.0664 11.179 26.6686 9.34098C29.9219 5.68431 31.7258 1.95052 30.723 1.26288C30.2888 0.947987 29.2309 1.92481 27.7632 3.42861C26.3017 4.93884 24.3816 6.96318 22.3024 8.85257C18.2603 12.6378 13.1113 16.0117 13.2764 15.459C13.0074 15.4847 12.775 15.4397 12.4754 15.2662C12.1757 15.0927 11.8394 14.7714 11.5092 14.3601C11.1728 13.9488 10.861 13.4668 10.5246 12.927C10.1761 12.3743 9.83361 11.828 9.49116 11.2818C8.12748 9.10963 6.80661 7.02744 5.60193 5.25373C3.18644 1.71274 1.21737 -0.587947 0.208366 0.13182C-0.65387 0.748761 1.2724 4.51469 3.91415 8.91041C4.57458 10.0093 5.27783 11.1468 5.99941 12.2843C6.36021 12.8498 6.721 13.4218 7.0818 13.9873C7.4487 14.5529 7.78504 15.0927 8.19475 15.6968C8.60447 16.288 9.05699 16.8793 9.6257 17.4319C10.1944 17.9782 10.8915 18.4923 11.7354 18.7686C12.5671 19.0643 13.4966 19.0514 14.2182 18.8715C14.9398 18.6915 15.5085 18.4023 15.9732 18.1388Z" fill="white"/>
</svg>
