<svg width="24" height="24" viewBox="0 0 24 24" fill="none" xmlns="http://www.w3.org/2000/svg">
<path fill-rule="evenodd" clip-rule="evenodd" d="M11.9853 14.2574C12.8942 15.169 13.8082 16.1148 14.7049 17.0428C18.743 21.2213 22.4312 25.0378 23.7254 23.7436C24.9537 22.5153 18.43 16.0884 14.2529 11.9732C14.2476 11.968 14.2423 11.9628 14.237 11.9575C15.1572 11.0397 16.1127 10.1165 17.0499 9.21109C21.2256 5.17677 25.037 1.49437 23.7436 0.200942C22.5144 -1.02823 16.0791 5.50277 11.9643 9.67874C11.9622 9.6809 11.96 9.68307 11.9579 9.68523C11.5501 9.26648 11.1009 8.79842 10.6228 8.30028C6.93903 4.46197 1.54062 -1.16288 0.166109 0.211639C-0.950593 1.32834 6.28376 8.66355 9.66448 11.9847C9.25103 12.3871 8.79021 12.8294 8.30028 13.2996C4.46197 16.9834 -1.16288 22.3818 0.211639 23.7563C1.3284 24.8731 8.66438 17.6378 11.9853 14.2574Z" fill="#7A8727"/>
</svg>
