<svg xmlns="http://www.w3.org/2000/svg" width="31.875" height="27.656" viewBox="0 0 31.875 27.656">
  <defs>
    <style>
      .cls-1 {
        fill-rule: evenodd;
      }
    </style>
  </defs>
  <path id="Form_1" data-name="Form 1" class="cls-1" d="M31.937,2.509C32,4.768,20.794,4.848,16.357,5.252,10.285,5.806.062,7.018,0.062,3.01S11.693,0.434,16.312.5C21.623,0.578,31.874.356,31.937,2.509Zm0,21.98c0.067,2.258-11.143,2.339-15.58,2.743C10.285,27.786.062,29,.062,24.99s11.63-2.576,16.25-2.509C21.623,22.558,31.874,22.336,31.937,24.489ZM0.062,14.544C0,12.285,11.206,12.205,15.643,11.8c6.072-.554,16.295-1.766,16.295,2.242s-11.63,2.576-16.25,2.509C10.377,16.475.126,16.7,0.062,14.544Z" transform="translate(-0.063 -0.188)"/>
</svg>
