<svg width="24" height="24" viewBox="0 0 24 24" fill="none" xmlns="http://www.w3.org/2000/svg">
<g clip-path="url(#clip0)">
<path d="M23.864 10.1572C23.736 9.09736 23.392 8.06156 22.984 7.07394C22.536 6.09435 21.976 5.17096 21.304 4.35196C19.952 2.72198 18.208 1.49348 16.408 0.802945C14.6 0.112413 12.776 -0.0883228 11.224 0.0401483C9.87203 0.144531 8.25603 0.489797 6.64803 1.30077C5.83203 1.68618 5.05603 2.23219 4.29603 2.83439C3.57603 3.48478 2.84803 4.1994 2.26403 5.05052C1.03203 6.71261 0.272027 8.8083 0.0400267 10.9602C-0.127973 13.1121 0.232027 15.3202 1.13603 17.1991C2.04003 19.0699 3.35203 20.6357 4.82403 21.6795C6.28803 22.7394 7.83203 23.3336 9.16003 23.5985C9.47203 23.6628 9.76003 23.7029 10.048 23.735C10.776 23.9036 11.536 24 12.312 24C14.776 24 17.048 23.0927 18.848 21.5912C19.248 21.3262 19.648 21.0291 20.04 20.6758C21.264 19.5918 22.432 18.0903 23.16 16.2516C23.88 14.4209 24.208 12.269 23.864 10.1572Z" fill="#402710"/>
<path d="M12.832 6.30313C13.56 6.30313 14.36 6.44766 15.232 6.72869C15.424 6.88125 15.52 7.04987 15.52 7.22652C15.52 7.40316 15.432 7.56375 15.256 7.70025C15.08 7.83675 14.872 7.90099 14.648 7.90099C14.064 7.74843 13.52 7.67617 13.008 7.67617C11.84 7.67617 10.952 8.02143 10.352 8.71999C9.74396 9.41053 9.43997 10.4463 9.43997 11.8113C9.43997 13.1763 9.79997 14.2442 10.512 15.0151C10.88 15.4165 11.32 15.6173 11.824 15.6173C12.336 15.6173 13.144 15.3443 14.256 14.8063C14.648 14.6216 14.904 14.5333 15.032 14.5333C15.312 14.5333 15.456 14.6778 15.456 14.9749C15.456 15.264 15.32 15.5129 15.048 15.7056C14.12 16.1954 13.392 16.5246 12.872 16.6932C12.352 16.8618 11.904 16.9421 11.528 16.9421C10.752 16.9421 10.088 16.6531 9.53597 16.083C8.55196 15.0231 8.06396 13.5698 8.06396 11.731C8.06396 9.89229 8.52796 8.52729 9.46396 7.64405C10.408 6.74475 11.528 6.30313 12.832 6.30313Z" fill="white"/>
</g>
<defs>
<clipPath id="clip0">
<path d="M0 0H24V24H0V0Z" fill="white"/>
</clipPath>
</defs>
</svg>
