<svg width="24" height="24" viewBox="0 0 24 24" fill="none" xmlns="http://www.w3.org/2000/svg">
<g clip-path="url(#clip0)">
<path d="M24.0001 13.025C23.9153 12.2822 23.7821 11.8841 23.5943 11.8722C23.5943 10.4402 23.3097 9.07352 22.8071 7.81975C23.7034 9.92324 23.6852 11.4979 23.7639 11.7296C23.8305 12.0148 23.8729 11.8722 23.8911 11.3672C23.8911 11.1117 23.9274 10.767 23.8669 10.3451C23.8426 10.1312 23.8184 9.89947 23.7881 9.6499C23.7579 9.40034 23.6852 9.13889 23.6246 8.85367C23.3582 7.73656 22.8373 6.358 21.8805 5.00915C20.9236 3.66624 19.5489 2.32928 17.7745 1.40232C16.0062 0.481297 13.8744 -0.0891413 11.7003 0.0118738C10.6163 0.0178159 9.53227 0.243614 8.48458 0.534775C7.44295 0.867531 6.44976 1.31913 5.54136 1.88957C3.74272 3.04233 2.30139 4.6348 1.39298 6.34612C0.478525 8.05743 0.0667163 9.85193 0.0122121 11.4088C-0.042292 12.7635 0.115164 14.4036 0.74499 16.0911C1.04174 16.9408 1.49594 17.7727 2.01675 18.5987C2.58602 19.3889 3.21585 20.1971 4.01524 20.8685C5.54741 22.2827 7.57012 23.281 9.7079 23.7504C11.8578 24.1664 14.1227 24.0594 16.1212 23.382C18.1137 22.7046 19.8517 21.5816 21.075 20.2446C22.3226 18.9195 23.1099 17.4518 23.5338 16.1683C23.6307 15.8415 23.7397 15.5385 23.7942 15.2414C23.8487 14.9443 23.8971 14.6591 23.9456 14.3976C24.0062 13.8628 24.0062 13.3993 24.0001 13.025Z" fill="#7A8727"/>
<path d="M16.3695 13.031C16.2726 13.0369 15.4793 12.6388 14.5285 12.2109C13.5837 11.7772 12.4815 11.3315 11.8336 11.076C11.6216 10.9928 11.4036 10.9215 11.2401 10.9275C11.0887 10.9334 10.9615 10.9869 10.798 11.1057C10.4831 11.3434 10.0894 11.8366 9.75028 12.1872C9.06595 12.924 8.50274 13.4766 8.10304 13.2033C7.7094 12.9299 8.13938 12.0802 8.89638 11.2364C9.08412 11.0225 9.29002 10.8205 9.51409 10.6125C9.74422 10.4046 10.0107 10.1788 10.3619 10.0183C10.7011 9.85195 11.1674 9.80441 11.4944 9.89354C11.8275 9.97079 12.0516 10.0896 12.2272 10.1728C13.0024 10.5472 14.1712 11.2127 15.0675 11.8366C15.9577 12.4605 16.5815 13.0131 16.3695 13.031Z" fill="white"/>
<path d="M17.5807 11.6227C17.5444 11.6108 17.4354 11.4801 17.3385 11.2364C17.2355 10.9988 17.1568 10.6482 17.0175 10.3333C16.8843 10.0064 16.642 9.78658 16.3695 9.71528C16.097 9.63209 15.8063 9.64992 15.5822 9.66774C15.4005 9.68557 15.1946 9.72122 14.9706 9.7747C14.8616 9.79847 14.7344 9.82818 14.6617 9.85789C14.5769 9.8876 14.6012 9.89948 14.5951 9.91137C14.6435 9.846 14.4982 10.1966 14.4316 10.4105C14.3468 10.6422 14.2681 10.8502 14.1833 11.0344C14.0077 11.3909 13.8018 11.6286 13.4687 11.5751C13.1477 11.5276 13.0205 11.1949 13.0629 10.7254C13.0811 10.4937 13.1417 10.2322 13.2385 9.96484C13.287 9.82818 13.3415 9.69745 13.4021 9.56078C13.4384 9.48948 13.4808 9.40035 13.5413 9.30528C13.614 9.19238 13.7049 9.08542 13.8139 9.00223C14.0137 8.83585 14.2983 8.75861 14.4619 8.74078C14.6375 8.71701 14.7526 8.71701 14.8797 8.70513C15.1341 8.69324 15.3703 8.69324 15.5701 8.69919C15.9092 8.71107 16.4058 8.74672 16.8964 9.05571C17.1386 9.2102 17.3445 9.44788 17.4656 9.69745C17.5928 9.94702 17.6352 10.1966 17.6534 10.4046C17.6897 10.8264 17.6716 11.1354 17.6776 11.3375C17.6716 11.5335 17.6655 11.6464 17.5807 11.6227Z" fill="white"/>
<path d="M19.2764 13.5301C19.3067 13.4766 19.8881 13.1201 20.0637 12.4843C20.1606 12.1812 20.1485 11.8485 20.0576 11.593C19.9607 11.3256 19.8093 11.2127 19.6943 11.177C19.5368 11.1117 19.2401 11.1117 18.913 11.177C18.5981 11.2364 18.2953 11.3434 18.0712 11.4504C17.8411 11.5633 17.7079 11.6524 17.5625 11.7118C17.4172 11.7712 17.2416 11.8485 16.9993 11.8069C16.7692 11.7712 16.6239 11.5454 16.7208 11.1889C16.8116 10.8324 17.175 10.4699 17.6049 10.2738C18.0349 10.0718 18.5194 10.0005 18.9615 10.0124C19.3915 10.0183 19.8517 10.1193 20.1848 10.3214C20.3725 10.4283 20.5784 10.6185 20.7056 10.8502C20.8328 11.082 20.8994 11.3315 20.9115 11.5751C20.9479 12.0862 20.7662 12.5853 20.4997 12.9299C20.2332 13.2865 19.882 13.4885 19.6337 13.5657C19.3733 13.643 19.234 13.6073 19.2764 13.5301Z" fill="white"/>
<path d="M4.60266 14.2847C4.63294 14.2491 4.8873 14.1421 5.05081 13.845C5.2446 13.5598 5.27488 13.132 5.52318 12.6566C5.63824 12.4249 5.90471 12.1694 6.26807 12.104C6.61932 12.0208 7.01296 12.1931 7.17042 12.5259C7.33998 12.9181 7.33393 13.0666 7.41871 13.2508C7.48533 13.4231 7.558 13.5776 7.63067 13.7024C7.69729 13.8212 7.76996 13.9341 7.8608 14.047C7.90319 14.1005 7.9577 14.1718 7.98192 14.1837C8.00009 14.1897 8.01826 14.1956 8.03037 14.1956C8.08487 14.1897 8.05459 14.1837 8.21205 14.1183C8.35134 14.047 8.49668 13.946 8.65414 13.8272C8.963 13.5954 9.30213 13.2865 9.72605 13.0904C10.1318 12.8943 10.586 12.8408 10.8949 12.9478C11.2037 13.0488 11.3127 13.2567 11.2461 13.435C11.1795 13.6192 11.0281 13.7083 10.8767 13.8094C10.7253 13.9044 10.5254 14.0114 10.2772 14.1837C10.0349 14.3441 9.72606 14.6175 9.31425 14.8849C9.10229 15.0156 8.87216 15.1463 8.59964 15.2355C8.46035 15.283 8.29683 15.3246 8.07882 15.3246C7.87897 15.3246 7.68518 15.277 7.52166 15.1879C7.37026 15.1047 7.24309 14.9859 7.14014 14.8611C7.04929 14.7423 7.01296 14.671 6.95845 14.5878C6.86761 14.4273 6.78889 14.2728 6.72833 14.1421C6.63749 13.9401 6.54665 13.6965 6.48608 13.4291C6.4558 13.2983 6.43158 13.1379 6.41341 13.0309C6.4013 12.9418 6.40736 12.9596 6.39524 12.918C6.34074 12.823 6.17117 12.7576 5.91076 13.1498C5.6988 13.5063 5.43839 14.0292 5.0932 14.2253C4.74801 14.4333 4.51182 14.356 4.60266 14.2847Z" fill="white"/>
<path d="M14.8434 14.3679C14.7526 14.4452 14.3468 14.5343 14.2136 14.5402C14.0319 14.5462 13.608 14.665 14.2923 13.9936C14.9766 13.3221 14.8616 13.7678 14.9161 13.845C14.9827 13.9341 15.0493 14.1956 14.8434 14.3679Z" fill="white"/>
<path d="M18.6102 13.7499C18.5497 13.744 18.4225 13.6668 18.2893 13.6311C18.156 13.5895 18.0228 13.5895 17.9622 13.5954C17.8775 13.5895 17.7563 13.6608 17.7442 13.643C17.7321 13.6252 17.7745 13.4885 17.9441 13.0428C18.1076 12.5972 18.3135 12.5199 18.4831 12.615C18.6526 12.7041 18.7192 12.924 18.7677 13.0191C18.8404 13.126 18.9009 13.3221 18.8767 13.4885C18.8464 13.6489 18.7495 13.7559 18.6102 13.7499Z" fill="white"/>
<path d="M11.991 12.6091C11.9486 12.722 11.7185 13.0072 11.6337 13.0844C11.5247 13.1854 11.2885 13.5063 11.5974 12.6091C11.9062 11.7118 11.9062 12.1278 11.9547 12.1575C12.0092 12.1872 12.0879 12.3595 11.991 12.6091Z" fill="white"/>
<path d="M4.69956 16.0555C4.68745 16.1149 4.60872 16.2218 4.4876 16.311C4.36648 16.4001 4.20902 16.4595 4.12424 16.4655C3.89411 16.5308 3.28851 16.5189 3.97889 15.8415C4.65717 15.1701 4.46337 15.5207 4.54816 15.5801C4.59055 15.6276 4.72984 15.794 4.69956 16.0555Z" fill="white"/>
</g>
<defs>
<clipPath id="clip0">
<path d="M0 0H24V24H0V0Z" fill="white"/>
</clipPath>
</defs>
</svg>
