<svg width="24" height="24" viewBox="0 0 24 24" fill="none" xmlns="http://www.w3.org/2000/svg">
<g clip-path="url(#clip0)">
<path d="M23.992 11.2816C23.936 9.65526 23.52 7.8079 22.552 6.08684C21.584 4.37368 20.12 2.77105 18.264 1.69737C17.36 1.12105 16.336 0.742105 15.296 0.426316C14.248 0.15 13.176 0 12.104 0C9.968 0.00789474 7.888 0.576316 6.2 1.53158C4.504 2.47895 3.176 3.76579 2.272 5.04474C1.48 6.15 0.72 7.61053 0.312 9.36316C0.088 10.2316 0.016 11.1711 0 12.1421C0.04 13.1132 0.128 14.1237 0.416 15.1105C0.92 17.1079 2.056 19.0184 3.584 20.5579C5.152 22.05 7.096 23.1632 9.136 23.6526C11.168 24.1421 13.232 24.1184 14.992 23.6368C16.76 23.1789 18.216 22.3658 19.272 21.5053C20.344 20.6605 20.984 19.7368 21.36 19.0974C21.688 18.4105 21.784 18 21.608 17.8895C22.624 16.1605 23.224 14.1237 23.224 11.9368C23.224 11.0842 23.128 10.2553 22.96 9.45789C22.968 9.48158 22.976 9.51316 22.984 9.53684C23.376 11.0447 23.4 12.5053 23.232 13.7211C22.872 16.1763 21.912 17.6211 21.856 17.8658C21.76 18.1421 21.88 18.0474 22.176 17.6368C22.32 17.4237 22.536 17.1553 22.72 16.7763C22.816 16.5868 22.92 16.3816 23.04 16.1605C23.152 15.9316 23.232 15.6789 23.336 15.4105C23.728 14.3447 24.048 12.9158 23.992 11.2816Z" fill="#402710"/>
<path d="M9.54401 10.8079C9.39201 10.7132 9.31201 10.5711 9.31201 10.3895C9.31201 10.2079 9.36801 10.0421 9.48801 9.89213C9.44801 8.81055 9.42401 7.67371 9.42401 6.4816C9.48801 6.22108 9.59201 6.0316 9.72801 5.91318C9.86401 5.79476 10.064 5.71581 10.328 5.68423C11.768 5.74739 13.336 5.77897 15.016 5.77897C15.432 5.86581 15.64 6.0395 15.64 6.31581C15.64 6.76581 15.192 7.03423 14.296 7.10529C14.056 7.11318 13.792 7.12108 13.512 7.12108H12.448C12.24 7.12108 11.664 7.0816 10.728 6.99476C10.728 8.34476 10.752 9.26845 10.792 9.77371C11.368 9.7816 12.488 9.7895 14.136 9.7895C14.528 9.86845 14.728 10.0421 14.728 10.3184C14.728 10.5948 14.568 10.8079 14.256 10.9579C14.224 10.9816 14.16 10.9974 14.072 11.0211L11.24 10.9737C11.064 10.9737 10.92 10.9816 10.816 11.0053L10.88 13.7842C10.88 14.4079 10.864 14.8579 10.832 15.1263L14.632 15.079C14.984 15.1342 15.16 15.2763 15.16 15.5132C15.16 15.6711 15.088 15.8369 14.936 15.9948C14.792 16.1527 14.616 16.2553 14.416 16.3027L10.224 16.3658C9.97601 16.3658 9.80001 16.3184 9.69601 16.2316C9.59201 16.1448 9.55201 15.9869 9.55201 15.7737C9.59201 15.4737 9.61601 14.9842 9.61601 14.3211V13.1842L9.54401 10.8079Z" fill="white"/>
</g>
<defs>
<clipPath id="clip0">
<path d="M0 0H24V24H0V0Z" fill="white"/>
</clipPath>
</defs>
</svg>
