<svg width="24" height="24" viewBox="0 0 24 24" fill="none" xmlns="http://www.w3.org/2000/svg">
<g clip-path="url(#clip0)">
<path d="M10.0723 23.7813C11.6749 24.0938 13.564 24.1094 15.4607 23.5625C17.342 23.0156 19.2311 21.9531 20.6865 20.3828C21.4452 19.6328 22.0491 18.7266 22.5833 17.7891C23.0788 16.8359 23.4659 15.8203 23.7059 14.7813C24.1704 12.7031 24.0775 10.5547 23.5201 8.69532C22.9704 6.82814 22.0104 5.25001 20.9575 4.08595C20.0517 3.07032 18.7975 1.9922 17.1794 1.21095C16.382 0.796885 15.4762 0.515635 14.5394 0.273448C13.5872 0.0937603 12.5807 -0.0546772 11.5511 0.00782279C9.4917 0.0468853 7.37041 0.71876 5.54331 1.85939C3.73944 3.04689 2.22202 4.68751 1.29299 6.5547C0.363957 8.42189 -0.0695915 10.4297 0.00782784 12.25C0.0620214 14.0703 0.534279 15.6719 1.14589 16.8828C1.73428 18.1172 2.49299 18.9453 3.03492 19.4531C3.63105 19.9297 4.01041 20.1094 4.15751 19.9688C5.62073 21.3516 7.47105 22.3906 9.60783 22.8828C10.444 23.0781 11.2723 23.1719 12.0852 23.1875C12.0543 23.1875 12.0311 23.1875 12.0001 23.1953C10.444 23.2344 9.0117 22.9297 7.85815 22.4922C5.54331 21.5859 4.34331 20.3281 4.1188 20.2188C3.87105 20.0625 3.93299 20.1953 4.27363 20.5781C4.44396 20.7656 4.66073 21.0391 4.99363 21.3047C5.15621 21.4453 5.33428 21.5938 5.52783 21.75C5.72138 21.9063 5.95363 22.0469 6.19363 22.2109C7.14589 22.8281 8.46202 23.4688 10.0723 23.7813Z" fill="#402710"/>
<path d="M12.658 5.5C13.1767 5.5 13.6877 5.63281 14.2064 5.89062C14.7251 6.14844 14.9728 6.44531 14.9728 6.77344C14.9728 7.27344 14.7715 7.52344 14.3612 7.52344C14.2064 7.52344 13.9432 7.42187 13.5715 7.22656C13.1922 7.03125 12.8748 6.92969 12.6193 6.92969C11.6903 6.92969 10.9161 7.35156 10.2967 8.1875C9.67735 9.02344 9.36768 10.0937 9.36768 11.3906C9.36768 12.3594 9.57671 13.2109 10.0025 13.9375C10.4206 14.6641 10.9238 15.0312 11.4967 15.0312C12.0774 15.0312 12.5264 14.8359 12.8593 14.4531C13.1844 14.0703 13.3548 13.625 13.3548 13.1406C13.3548 12.8672 13.3393 12.6406 13.3006 12.4609C13.2619 12.2812 13.169 12.1172 13.0141 11.9687C12.8593 11.8203 12.6657 11.75 12.418 11.75C12.1703 11.75 11.938 11.6953 11.7135 11.5859C11.489 11.4766 11.3806 11.3281 11.3806 11.1484C11.3806 10.9609 11.4348 10.7891 11.5432 10.625C11.6515 10.4609 11.7986 10.3672 11.9767 10.3281C12.7122 10.3281 13.2077 10.4062 13.4554 10.5547C13.7109 10.7109 13.9044 10.8359 14.0283 10.9297C14.1599 11.0312 14.2683 11.1875 14.3535 11.4219C14.4386 11.6484 14.5083 11.8438 14.5548 11.9922C14.6012 12.1484 14.6399 12.3906 14.6632 12.7266C14.6864 13.2891 14.6941 13.9531 14.6941 14.7109C14.6941 15.4687 14.6399 15.9297 14.5315 16.1094C14.4309 16.25 14.2761 16.3281 14.0438 16.3281C13.8193 16.3359 13.6567 16.2891 13.5715 16.1875C13.4864 16.0859 13.4322 15.875 13.409 15.5312C13.1535 15.7578 12.8206 15.9531 12.4335 16.1094C12.0386 16.2656 11.6903 16.3437 11.3883 16.3437C10.4361 16.3437 9.63864 15.8359 8.99606 14.8203C8.34574 13.8047 8.02832 12.5781 8.02832 11.1406C8.02832 10.375 8.15219 9.63281 8.39993 8.89844C8.64768 8.16406 8.98058 7.54688 9.40638 7.04688C10.2735 6.01563 11.3651 5.5 12.658 5.5Z" fill="white"/>
</g>
<defs>
<clipPath id="clip0">
<path d="M0 0H24V24H0V0Z" fill="white"/>
</clipPath>
</defs>
</svg>
