<svg width="24" height="24" viewBox="0 0 24 24" fill="none" xmlns="http://www.w3.org/2000/svg">
<g clip-path="url(#clip0)">
<path d="M23.864 10.2498C23.736 9.18028 23.392 8.13504 22.984 7.13842C22.536 6.1499 21.976 5.21809 21.304 4.39163C19.952 2.74679 18.208 1.50709 16.408 0.810262C14.6 0.113435 12.776 -0.0891308 11.224 0.0405114C9.87203 0.145846 8.25603 0.494259 6.64803 1.31262C5.83203 1.70155 5.05603 2.25253 4.29603 2.86023C3.57603 3.51654 2.84803 4.23768 2.26403 5.09655C1.03203 6.7738 0.272027 8.88859 0.0400267 11.0601C-0.127973 13.2316 0.232027 15.4598 1.13603 17.3558C2.04003 19.2438 3.35203 20.8238 4.82403 21.8771C6.28803 22.9467 7.83203 23.5462 9.16003 23.8136C10.488 24.0972 11.6 23.9919 12.336 23.8704C13.048 23.6921 13.424 23.4976 13.424 23.3032C14.48 23.1897 15.488 22.9223 16.424 22.5172C14.896 23.2302 13.768 23.368 13.592 23.4652C13.32 23.5706 13.464 23.603 13.968 23.5625C14.216 23.5381 14.568 23.5381 14.976 23.4247C15.184 23.3761 15.408 23.3275 15.656 23.2708C15.904 23.214 16.152 23.1087 16.424 23.0196C17.504 22.6307 18.808 21.9581 20.04 20.8562C21.264 19.7623 22.432 18.2471 23.16 16.3916C23.88 14.5523 24.208 12.3808 23.864 10.2498ZM21.736 7.55975C21.8 7.6894 21.864 7.81904 21.928 7.95678C21.864 7.81904 21.8 7.6894 21.736 7.55975ZM16.752 22.3633C16.648 22.4119 16.544 22.4686 16.44 22.5172C16.552 22.4686 16.648 22.4119 16.752 22.3633Z" fill="#402710"/>
<path d="M9.66409 16.6833C9.50409 16.5618 9.42409 16.4321 9.42409 16.2782C9.42409 16.1323 9.48009 16.0108 9.60009 15.9055C9.39209 14.3417 9.28809 12.5429 9.28809 10.5172C9.28809 9.90142 9.31209 8.71033 9.36809 6.93585C9.42409 6.7738 9.53609 6.62795 9.69609 6.50641C9.86409 6.38487 10.0241 6.32816 10.1761 6.32816C10.3281 6.32816 10.4161 6.33626 10.4481 6.34436C11.9921 6.7819 13.3361 7.62458 14.4881 8.88048C15.6321 10.1364 16.2321 11.6354 16.2881 13.3855C16.2881 15.314 15.4961 16.5213 13.9201 17.0155C13.4641 17.1614 12.9841 17.2262 12.4881 17.2262C11.9841 17.2262 11.5441 17.1857 11.1681 17.1128C11.2081 17.2019 11.2321 17.3153 11.2321 17.4693C11.2321 17.6151 11.1441 17.761 10.9681 17.8987C10.7921 18.0365 10.5761 18.1013 10.3361 18.1013C10.0961 18.1013 9.93609 17.9554 9.87209 17.6556L9.66409 16.6833ZM10.6321 10.3957C10.6321 12.3079 10.7361 14.131 10.9601 15.8487C11.2161 15.9217 11.6561 15.9622 12.2721 15.9622C12.8881 15.9622 13.4801 15.8569 14.0481 15.6462C14.6161 15.4355 14.9121 15.1357 14.9441 14.7306C14.9761 14.4227 14.9921 14.1877 14.9921 14.0257C14.9921 12.5996 14.6161 11.3437 13.8641 10.2498C13.1121 9.15597 12.0641 8.3214 10.7121 7.75422C10.6641 9.04254 10.6321 9.92572 10.6321 10.3957Z" fill="white"/>
</g>
<defs>
<clipPath id="clip0">
<path d="M0 0H24V24H0V0Z" fill="white"/>
</clipPath>
</defs>
</svg>
