<svg width="24" height="24" viewBox="0 0 24 24" fill="none" xmlns="http://www.w3.org/2000/svg">
<g clip-path="url(#clip0)">
<path d="M23.992 11.2816C23.936 9.65526 23.52 7.8079 22.552 6.08684C21.584 4.37368 20.12 2.77105 18.264 1.69737C17.36 1.12105 16.336 0.742105 15.296 0.426316C14.248 0.15 13.176 0 12.104 0C9.968 0.00789474 7.888 0.576316 6.2 1.53158C4.504 2.47895 3.176 3.76579 2.272 5.04474C1.48 6.15 0.72 7.61053 0.312 9.36316C0.088 10.2316 0.016 11.1711 0 12.1421C0.04 13.1132 0.128 14.1237 0.416 15.1105C0.92 17.1079 2.056 19.0184 3.584 20.5579C5.152 22.05 7.096 23.1632 9.136 23.6526C11.168 24.1421 13.232 24.1184 14.992 23.6368C16.76 23.1789 18.216 22.3658 19.272 21.5053C20.344 20.6605 20.984 19.7368 21.36 19.0974C21.688 18.4105 21.784 18 21.608 17.8895C22.624 16.1605 23.224 14.1237 23.224 11.9368C23.224 11.0842 23.128 10.2553 22.96 9.45789C22.968 9.48158 22.976 9.51316 22.984 9.53684C23.376 11.0447 23.4 12.5053 23.232 13.7211C22.872 16.1763 21.912 17.6211 21.856 17.8658C21.76 18.1421 21.88 18.0474 22.176 17.6368C22.32 17.4237 22.536 17.1553 22.72 16.7763C22.816 16.5868 22.92 16.3816 23.04 16.1605C23.152 15.9316 23.232 15.6789 23.336 15.4105C23.728 14.3447 24.048 12.9158 23.992 11.2816Z" fill="#402710"/>
<path d="M12.624 6.91577L14.44 6.88419C15.248 6.88419 15.656 7.09735 15.656 7.51577C15.656 7.66577 15.632 7.7684 15.592 7.83156C15.544 7.89472 15.512 7.93419 15.496 7.96577C15.472 7.99735 15.432 8.02893 15.368 8.04472C15.24 8.08419 15.128 8.11577 15.04 8.12366C14.952 8.13156 14.896 8.13945 14.856 8.13945C14.736 8.16314 14.536 8.17893 14.248 8.18682C13.968 8.19472 13.552 8.20261 13.008 8.20261C12.464 8.20261 11.8 8.17893 11.016 8.13945V11.1158H14.36C14.48 11.1158 14.592 11.171 14.696 11.2816C14.8 11.3921 14.848 11.5105 14.848 11.6368C14.848 12.1342 14.632 12.3789 14.208 12.3789H11.016L11.08 16.6184C11.08 17.171 10.888 17.4395 10.512 17.4395C10.136 17.4395 9.91204 17.1947 9.84804 16.6973C9.81604 16.5395 9.79204 15.1658 9.79204 12.5842C9.78404 10.0026 9.77604 8.5184 9.75204 8.13156C9.34404 8.17103 9.14404 7.94998 9.14404 7.45261C9.14404 7.32629 9.20004 7.18419 9.30404 7.02629C9.41604 6.8684 9.51204 6.78945 9.59204 6.77366C9.67204 6.76577 9.77604 6.75787 9.90404 6.75787C10.032 6.75787 10.336 6.78156 10.832 6.82103C11.52 6.88419 12.112 6.91577 12.624 6.91577Z" fill="white"/>
</g>
<defs>
<clipPath id="clip0">
<path d="M0 0H24V24H0V0Z" fill="white"/>
</clipPath>
</defs>
</svg>
