<svg width="24" height="24" viewBox="0 0 24 24" fill="none" xmlns="http://www.w3.org/2000/svg">
<g clip-path="url(#clip0)">
<path d="M24.0001 13.025C23.9153 12.2822 23.7821 11.8841 23.5943 11.8722C23.5943 10.4402 23.3097 9.07352 22.8071 7.81975C23.7034 9.92324 23.6852 11.4979 23.7639 11.7296C23.8305 12.0148 23.8729 11.8722 23.8911 11.3672C23.8911 11.1117 23.9274 10.767 23.8669 10.3451C23.8426 10.1312 23.8184 9.89947 23.7881 9.6499C23.7579 9.40034 23.6852 9.13889 23.6246 8.85367C23.3582 7.73656 22.8373 6.358 21.8805 5.00915C20.9236 3.66624 19.5489 2.32928 17.7745 1.40232C16.0062 0.481297 13.8744 -0.0891413 11.7003 0.0118738C10.6163 0.0178159 9.53227 0.243614 8.48458 0.534775C7.44295 0.867531 6.44976 1.31913 5.54136 1.88957C3.74272 3.04233 2.30139 4.6348 1.39298 6.34612C0.478525 8.05743 0.0667163 9.85193 0.0122121 11.4088C-0.042292 12.7635 0.115164 14.4036 0.74499 16.0911C1.04174 16.9408 1.49594 17.7727 2.01675 18.5987C2.58602 19.3889 3.21585 20.1971 4.01524 20.8685C5.54741 22.2827 7.57012 23.281 9.7079 23.7504C11.8578 24.1664 14.1227 24.0594 16.1212 23.382C18.1137 22.7046 19.8517 21.5816 21.075 20.2446C22.3226 18.9195 23.1099 17.4518 23.5338 16.1683C23.6307 15.8415 23.7397 15.5385 23.7942 15.2414C23.8487 14.9443 23.8971 14.6591 23.9456 14.3976C24.0062 13.8628 24.0062 13.3993 24.0001 13.025Z" fill="#7A8727"/>
<path d="M20.0455 13.9817C19.7669 13.4588 19.2521 12.9656 18.7616 12.5318C18.2589 12.0802 17.6836 11.6167 17.1143 11.2424C16.1999 10.6304 15.3036 10.2976 14.8797 10.4105C14.7343 10.2204 14.5708 10.0362 14.371 9.88166C14.3407 9.85789 14.3043 9.83413 14.268 9.81036C14.3104 9.76876 14.3589 9.71528 14.4073 9.65586C14.6374 9.35876 14.8857 8.82398 14.9281 8.18223C14.9705 7.54049 14.807 6.79179 14.377 6.19758C14.2438 6.00149 14.0742 5.84106 13.8925 5.69845C14.0742 5.58555 14.2135 5.37758 14.3407 5.1696C14.5466 4.82496 14.7162 4.45656 14.7404 4.41496C15.0856 3.77916 15.9031 3.488 15.2673 2.77495C15.0008 2.47191 14.6132 2.57886 14.2741 2.87002C13.9349 3.15524 13.6685 3.60684 13.5171 3.88018C13.3778 4.11786 13.0992 4.51598 13.0084 4.9141C12.9841 5.02105 12.972 5.12801 12.9781 5.22903C12.8691 5.19931 12.7601 5.1696 12.6571 5.16366C12.3725 5.12801 12.0091 5.15772 11.6397 5.27656C11.6336 4.93192 11.5791 4.61699 11.5852 4.5754C11.5125 3.85641 11.8698 3.04234 10.9009 3.00669C10.0651 2.97104 10.2105 4.2367 10.2589 4.77743C10.271 5.08642 10.2226 5.69845 10.4467 6.05497C10.0651 6.49468 9.82289 7.05324 9.75022 7.59397C9.64727 8.28919 9.81078 8.93687 10.0712 9.32311C10.3316 9.71528 10.6344 9.84007 10.8282 9.7034C11.2158 9.41224 10.8948 8.78238 11.0038 7.90295C11.0462 7.47513 11.2037 6.99976 11.5004 6.64918C11.7911 6.29265 12.209 6.10845 12.5965 6.12628C12.8691 6.13816 13.2748 6.25106 13.62 6.58382C13.9652 6.90469 14.2256 7.40382 14.3225 7.9089C14.4255 8.41991 14.3649 8.91905 14.2559 9.28151C14.2075 9.44789 14.1529 9.57862 14.1045 9.68557C13.8501 9.54296 13.5776 9.44195 13.3293 9.39441C12.9781 9.32311 12.6874 9.31122 12.3725 9.31717C11.7548 9.32905 11.1431 9.5192 10.695 9.82818C10.3558 10.0599 10.1257 10.3333 9.96824 10.5947C9.59276 10.464 8.50874 11.0404 7.61245 11.9376C7.1098 12.4249 6.66771 12.9894 6.36491 13.4528C6.04999 13.9223 5.88043 14.3323 5.84409 14.4155C5.71691 14.7244 5.60791 15.0691 5.56551 15.4434C5.5534 15.5147 5.54735 15.6752 5.5534 15.8178C5.5534 15.9604 5.57763 16.0971 5.62607 16.2278C5.72297 16.4892 5.93493 16.6913 6.18928 16.8161C6.30435 16.8755 6.47392 16.929 6.57687 16.9587C6.66771 16.9884 6.75855 17.0003 6.84939 17.024C7.03107 17.0597 7.21275 17.0716 7.38837 17.0775C7.73962 17.0775 8.0727 17.0181 8.36339 16.9171C8.78126 16.7745 9.10223 16.5487 9.3263 16.3169C9.37475 16.5784 9.43531 16.8458 9.5322 17.1191C9.7805 17.7965 10.1984 18.5036 10.8948 19.0265C11.2158 19.2701 11.6034 19.4603 12.0394 19.5494C12.0576 19.5732 12.0697 19.5969 12.0878 19.6207C12.1847 19.7871 12.536 20.1793 12.6571 20.1971C12.9296 20.2327 13.0689 19.8109 13.0871 19.6148C13.0871 19.5969 13.0992 19.5732 13.1053 19.5435C13.2385 19.5138 13.3717 19.4781 13.4989 19.4306C14.3467 19.1275 14.9221 18.3966 15.1522 17.7787C15.3884 17.1607 15.461 16.6913 15.5337 16.3229C15.6003 15.9545 15.6306 15.7108 15.6427 15.6276C15.6548 15.5385 15.6609 15.4494 15.667 15.3602C15.9213 15.7346 16.3028 16.1684 16.8842 16.513C17.2476 16.7269 17.6897 16.8933 18.1802 16.9408C18.6526 16.9824 19.2279 16.923 19.7124 16.5368C20.2029 16.1387 20.3483 15.5682 20.3483 15.1285C20.3604 14.6769 20.2029 14.261 20.0455 13.9817ZM8.7752 15.4553C8.4724 15.5801 8.0727 15.7287 7.63062 15.7524C7.4126 15.7643 7.18853 15.7465 6.97657 15.693C6.90389 15.6692 6.91601 15.6692 6.91601 15.6692L6.90995 15.6633C6.90389 15.6574 6.90389 15.6514 6.90389 15.6455C6.90389 15.6336 6.90389 15.6633 6.90389 15.6039C6.90389 15.5504 6.91601 15.5029 6.92206 15.4494C6.93417 15.3484 6.96445 15.2473 6.99473 15.1463C7.05529 14.9502 7.14613 14.766 7.23092 14.6056C7.53977 14.0352 8.33311 13.1082 9.02955 12.4011C9.2718 12.1456 9.49587 11.9138 9.68966 11.694C9.71994 11.9138 9.82895 12.0446 9.94401 12.0505C9.99246 12.0565 10.0349 12.0327 10.0833 11.997C10.2529 12.1278 10.4709 12.2228 10.6707 12.2941C11.2218 12.4962 11.8214 12.5318 11.888 12.5378C12.8812 12.6269 14.0197 12.722 14.0076 12.2525C13.9894 11.8485 12.4391 11.9792 11.7911 11.8663C11.5004 11.8307 11.028 11.7059 10.6344 11.587C10.5678 11.5692 10.5133 11.5514 10.4588 11.5336C10.5557 11.4147 10.6647 11.278 10.81 11.1473C11.0583 10.9215 11.3732 10.7314 11.785 10.6482C11.9909 10.6066 12.215 10.5888 12.4573 10.6007C12.6934 10.6125 12.966 10.6482 13.1658 10.7136C13.5413 10.8265 13.8501 11.1651 14.0742 11.6405C14.2741 12.0624 14.371 12.5734 14.4134 13.0844C14.3528 13.0963 14.2922 13.1082 14.2196 13.1201C13.8078 13.2033 13.3051 13.2805 12.9902 13.2924C12.4391 13.3459 11.0825 13.1023 11.0402 13.5776C11.028 13.7797 11.5246 13.8985 12.0515 13.946C12.5844 13.9936 13.1416 13.946 13.2022 13.9342C13.614 13.8985 14.0682 13.851 14.4315 13.7381C14.4376 14.5937 14.3589 15.3959 14.2377 16.0436C14.1227 16.0614 14.0015 16.0852 13.8744 16.103C13.3899 16.1921 12.8025 16.2634 12.4391 16.2694C11.9849 16.2991 11.0704 16.1624 10.5557 16.2456C10.4285 15.8772 10.3316 15.5088 10.271 15.1701C10.3437 15.1939 10.4164 15.2236 10.4951 15.2473C11.0038 15.4078 11.5549 15.4791 11.6215 15.4791C12.0878 15.5445 12.6087 15.6039 13.0205 15.5385C13.4262 15.485 13.6927 15.3305 13.6321 15.1047C13.5776 14.9027 13.2264 14.9205 12.8025 14.9027C12.3785 14.8968 11.8759 14.8611 11.561 14.8076C11.2279 14.766 10.6223 14.5581 10.1681 14.4986C10.0772 13.9223 9.99246 13.536 9.77444 13.5063C9.58065 13.4766 9.28996 14.1362 9.25968 15.2295C9.25968 15.2473 9.25968 15.2652 9.25968 15.2889C9.10223 15.3187 8.95083 15.3781 8.7752 15.4553ZM13.0326 18.1708C12.6632 18.3075 12.2877 18.2956 11.9183 18.0936C11.5428 17.9035 11.2097 17.541 10.9554 17.1488C10.8888 17.0419 10.8403 16.929 10.7797 16.8161C10.9433 16.8517 11.131 16.8814 11.3187 16.8992C11.9243 16.9646 12.5663 16.929 12.6389 16.9171C13.1174 16.8933 13.6442 16.8398 14.0682 16.7269C14.0076 16.9705 13.9349 17.2142 13.8259 17.4281C13.6685 17.7549 13.3959 18.0342 13.0326 18.1708ZM18.9251 15.4434C18.8585 15.5385 18.7434 15.5979 18.5133 15.6098C18.053 15.6395 17.5443 15.4018 17.1507 15.1285C16.751 14.8492 16.4058 14.5224 16.109 14.3263C15.9819 14.2431 15.8668 14.1897 15.7578 14.154C15.7638 14.0055 15.776 13.8628 15.776 13.7143C15.776 13.0666 15.7275 12.3833 15.5337 11.7118C15.5216 11.6643 15.4974 11.6227 15.4853 11.5752C15.9092 11.9198 16.4421 12.3239 16.9569 12.7695C17.5443 13.2627 18.1923 13.8213 18.5617 14.2075C18.9311 14.6056 18.9856 14.8671 18.9978 14.9146C19.0462 15.1166 19.0038 15.3424 18.9251 15.4434Z" fill="white"/>
</g>
<defs>
<clipPath id="clip0">
<path d="M0 0H24V24H0V0Z" fill="white"/>
</clipPath>
</defs>
</svg>
