<svg width="24" height="24" viewBox="0 0 24 24" fill="none" xmlns="http://www.w3.org/2000/svg">
<g clip-path="url(#clip0)">
<path d="M23.992 13.023C23.896 12.2517 23.744 11.8539 23.536 11.8539C23.416 11.8539 23.32 11.9432 23.232 12.1218C23.24 11.935 23.256 11.7564 23.256 11.5697C23.256 9.70229 22.792 7.94045 21.984 6.39783C22.2 6.74695 22.4 7.08795 22.568 7.42083C23.664 9.69418 23.64 11.4641 23.736 11.7077C23.808 12 23.856 11.8539 23.88 11.3342C23.888 11.0744 23.92 10.7253 23.864 10.295C23.84 10.0839 23.816 9.84844 23.792 9.58863C23.752 9.33694 23.68 9.06901 23.624 8.78484C23.352 7.64817 22.808 6.2598 21.832 4.91204C20.856 3.57239 19.48 2.24898 17.712 1.35588C15.96 0.454662 13.872 -0.0893166 11.744 -6.68038e-06C10.68 -6.68038e-06 9.61596 0.219208 8.58396 0.495257C7.55996 0.828139 6.55996 1.24221 5.66396 1.81867C3.84796 2.92286 2.39996 4.52232 1.44796 6.22733C0.503959 7.95669 0.0719594 9.78349 0.0159594 11.3748C-0.0480406 12.7632 0.127959 14.4438 0.775959 16.157C1.08796 17.0176 1.55196 17.862 2.09596 18.6901C2.39996 19.0798 2.67196 19.5101 3.03196 19.8674C3.19996 20.0541 3.37596 20.2409 3.55196 20.4357C3.74396 20.6062 3.93596 20.7848 4.12796 20.9553C5.67196 22.3518 7.67996 23.3099 9.78396 23.7645C11.896 24.1705 14.104 24.0568 16.08 23.4154C18.048 22.7659 19.768 21.6617 21.024 20.3383C22.288 19.023 23.096 17.5372 23.536 16.23C23.992 14.9229 24.024 13.7781 23.992 13.023Z" fill="#402710"/>
<path d="M12.6719 5.43167C12.9439 5.43167 13.1759 5.55346 13.3679 5.79703C13.5519 6.0406 13.7999 6.5521 14.0959 7.32342C14.7919 9.15021 15.4719 12.0081 16.1279 15.9053C16.1359 15.954 16.1439 16.0108 16.1439 16.1001C16.1439 16.1813 16.0879 16.2706 15.9839 16.3681C15.8799 16.4655 15.7279 16.5142 15.5359 16.5142C15.3439 16.5142 15.1839 16.4655 15.0479 16.3681C14.9119 16.2706 14.8239 16.1164 14.7839 15.8972C14.7359 15.6779 14.6559 15.2476 14.5359 14.6143C14.2719 13.1935 14.0959 12.4547 14.0079 12.3978C13.8719 12.3167 13.4399 12.2355 12.6959 12.1462C11.9519 12.0568 11.4559 12.0081 11.2159 12.0081C10.9759 12.0081 10.8319 12.0325 10.7839 12.0731C10.5839 12.2517 10.3119 13.6157 9.97594 16.1489C9.92794 16.36 9.71994 16.4655 9.34394 16.4655C8.96794 16.4655 8.78394 16.3031 8.78394 15.9784C8.78394 15.1746 9.07994 13.6319 9.66394 11.3586C10.2479 9.08526 10.7359 7.58323 11.1199 6.84439C11.6079 5.90258 12.1199 5.43167 12.6719 5.43167ZM12.6079 7.29094C12.4399 7.29094 12.1519 7.7862 11.7439 8.77673C11.3359 9.76726 11.1359 10.3762 11.1359 10.6116C11.1359 10.6685 11.1439 10.7091 11.1679 10.7253C11.2559 10.8146 11.5999 10.8958 12.2079 10.9608C12.8159 11.0257 13.2159 11.0582 13.4159 11.0582C13.6159 11.0582 13.7279 11.042 13.7439 11.0176C13.7679 10.9932 13.7759 10.9039 13.7759 10.7497C13.7759 10.5954 13.6239 9.98647 13.3279 8.90664C13.0399 7.83492 12.7919 7.29094 12.6079 7.29094Z" fill="white"/>
</g>
<defs>
<clipPath id="clip0">
<path d="M0 0H24V24H0V0Z" fill="white"/>
</clipPath>
</defs>
</svg>
