<svg width="24" height="24" viewBox="0 0 24 24" fill="none" xmlns="http://www.w3.org/2000/svg">
<g clip-path="url(#clip0)">
<path d="M24.0001 13.025C23.9153 12.2822 23.7821 11.8841 23.5943 11.8722C23.5943 10.4402 23.3097 9.07352 22.8071 7.81975C23.7034 9.92324 23.6852 11.4979 23.7639 11.7296C23.8305 12.0148 23.8729 11.8722 23.8911 11.3672C23.8911 11.1117 23.9274 10.767 23.8669 10.3451C23.8426 10.1312 23.8184 9.89947 23.7881 9.6499C23.7579 9.40034 23.6852 9.13889 23.6246 8.85367C23.3582 7.73656 22.8373 6.358 21.8805 5.00915C20.9236 3.66624 19.5489 2.32928 17.7745 1.40232C16.0062 0.481297 13.8744 -0.0891413 11.7003 0.0118738C10.6163 0.0178159 9.53227 0.243614 8.48458 0.534775C7.44295 0.867531 6.44976 1.31913 5.54136 1.88957C3.74272 3.04233 2.30139 4.6348 1.39298 6.34612C0.478525 8.05743 0.0667163 9.85193 0.0122121 11.4088C-0.042292 12.7635 0.115164 14.4036 0.74499 16.0911C1.04174 16.9408 1.49594 17.7727 2.01675 18.5987C2.58602 19.3889 3.21585 20.1971 4.01524 20.8685C5.54741 22.2827 7.57012 23.281 9.7079 23.7504C11.8578 24.1664 14.1227 24.0594 16.1212 23.382C18.1137 22.7046 19.8517 21.5816 21.075 20.2446C22.3226 18.9195 23.1099 17.4518 23.5338 16.1683C23.6307 15.8415 23.7397 15.5385 23.7942 15.2414C23.8487 14.9443 23.8971 14.6591 23.9456 14.3976C24.0062 13.8628 24.0062 13.3993 24.0001 13.025Z" fill="#7A8727"/>
<path d="M9.97429 11.8901C10.9432 12.1159 11.9183 12.4189 12.8024 12.5912C13.4444 12.7219 14.3286 12.8289 15.2854 12.7932C15.7638 12.7754 16.2604 12.7338 16.757 12.6209C17.2536 12.508 17.732 12.2882 18.1317 12.0148C18.9251 11.4563 19.4217 10.7373 19.7669 10.2085C20.106 9.66772 20.2998 9.29337 20.3119 9.22801C20.3361 9.06757 20.1242 9.28149 19.7608 9.70932C19.3914 10.1253 18.8706 10.7729 18.156 11.284C17.7987 11.5395 17.3929 11.7356 16.9569 11.8425C16.5208 11.9495 16.0303 11.9732 15.5458 11.9673C14.5708 11.9554 13.6563 11.8069 12.966 11.6227C12.3543 11.4741 11.5367 11.1651 10.5738 10.8561C9.62304 10.5531 8.46028 10.2738 7.33992 10.4342C6.24378 10.559 5.26271 11.0879 4.79034 11.6999C4.2998 12.3119 4.33008 12.8348 4.54204 12.9061C4.77822 12.9953 5.01441 12.7338 5.42622 12.4605C5.81986 12.1753 6.44969 11.8544 7.26725 11.7237C8.06059 11.5573 8.99927 11.6643 9.97429 11.8901Z" fill="white"/>
<path d="M19.458 12.9775C18.7555 13.5717 17.8713 14.1064 16.9569 14.4392C16.0424 14.7779 15.134 14.9027 14.4194 14.9086C13.7956 14.9264 12.9236 14.8314 11.9546 14.6709C10.9796 14.5164 9.90162 14.3144 8.84181 14.2847C7.75779 14.255 6.68587 14.5343 6.07421 15.0869C5.77141 15.3602 5.60184 15.6633 5.56551 15.8891C5.52311 16.1149 5.58367 16.2515 5.69268 16.2931C5.92887 16.3763 6.16505 16.1267 6.58292 15.9307C6.99473 15.7227 7.69117 15.5385 8.55718 15.5385C10.3074 15.5504 12.6934 16.0436 14.5345 15.8831C15.2006 15.8415 16.1151 15.6751 17.0174 15.3008C17.9258 14.9383 18.81 14.362 19.5125 13.7143C20.215 13.0606 20.7298 12.3476 21.0326 11.7831C21.3414 11.2127 21.4626 10.8086 21.4626 10.7373C21.4383 10.4105 20.8691 11.7772 19.458 12.9775Z" fill="white"/>
<path d="M11.0583 8.84178C11.9849 9.31714 13.3112 9.56671 14.2862 9.50729C14.9947 9.50135 16.1817 9.22207 17.0417 8.71105C17.9198 8.21192 18.4467 7.57017 18.4527 7.48699C18.4648 7.28496 17.8713 7.74249 16.9993 8.07525C16.1333 8.43177 14.9887 8.58627 14.2741 8.52685C13.6503 8.51496 12.6026 8.17626 11.7426 7.7722C10.8706 7.38597 10.1196 7.0235 9.84106 7.41568C9.56853 7.80191 10.1196 8.3783 11.0583 8.84178Z" fill="white"/>
</g>
<defs>
<clipPath id="clip0">
<path d="M0 0H24V24H0V0Z" fill="white"/>
</clipPath>
</defs>
</svg>
