<svg width="24" height="24" viewBox="0 0 24 24" fill="none" xmlns="http://www.w3.org/2000/svg">
<g clip-path="url(#clip0)">
<path d="M24.0001 13.025C23.9153 12.2822 23.7821 11.8841 23.5943 11.8722C23.5943 10.4402 23.3097 9.07352 22.8071 7.81975C23.7034 9.92324 23.6852 11.4979 23.7639 11.7296C23.8305 12.0148 23.8729 11.8722 23.8911 11.3672C23.8911 11.1117 23.9274 10.767 23.8669 10.3451C23.8426 10.1312 23.8184 9.89947 23.7881 9.6499C23.7579 9.40034 23.6852 9.13889 23.6246 8.85367C23.3582 7.73656 22.8373 6.358 21.8805 5.00915C20.9236 3.66624 19.5489 2.32928 17.7745 1.40232C16.0062 0.481297 13.8744 -0.0891413 11.7003 0.0118738C10.6163 0.0178159 9.53227 0.243614 8.48458 0.534775C7.44295 0.867531 6.44976 1.31913 5.54136 1.88957C3.74272 3.04233 2.30139 4.6348 1.39298 6.34612C0.478525 8.05743 0.0667163 9.85193 0.0122121 11.4088C-0.042292 12.7635 0.115164 14.4036 0.74499 16.0911C1.04174 16.9408 1.49594 17.7727 2.01675 18.5987C2.58602 19.3889 3.21585 20.1971 4.01524 20.8685C5.54741 22.2827 7.57012 23.281 9.7079 23.7504C11.8578 24.1664 14.1227 24.0594 16.1212 23.382C18.1137 22.7046 19.8517 21.5816 21.075 20.2446C22.3226 18.9195 23.1099 17.4518 23.5338 16.1683C23.6307 15.8415 23.7397 15.5385 23.7942 15.2414C23.8487 14.9443 23.8971 14.6591 23.9456 14.3976C24.0062 13.8628 24.0062 13.3993 24.0001 13.025Z" fill="#7A8727"/>
<path d="M12.4997 6.7918C13.3233 6.80368 13.1901 5.50237 13.1961 4.93193C13.2022 4.42685 13.5171 3.21467 12.5481 3.20279C11.7245 3.1909 11.8638 4.96164 11.8638 5.06265C11.8759 5.85295 11.5307 6.77991 12.4997 6.7918Z" fill="white"/>
<path d="M21.4263 10.9453C21.3475 10.1372 19.452 10.5175 18.6102 10.6185C17.8714 10.7076 16.0304 10.6363 16.1757 11.5752C16.2968 12.3773 18.8403 11.9079 18.9917 11.8841C20.1303 11.7297 21.5171 11.8901 21.4263 10.9453Z" fill="white"/>
<path d="M11.882 16.1862C11.0584 16.1149 11.1371 18.0045 11.131 18.1114C11.1129 18.9433 10.7374 19.9297 11.7064 19.9475C12.53 19.9594 12.4391 18.6165 12.4694 18.0223C12.4936 17.4994 12.8449 16.2634 11.882 16.1862Z" fill="white"/>
<path d="M16.8176 7.15426C17.4475 6.54817 18.4649 6.20947 17.8956 5.44295C17.4051 4.77743 16.2726 5.84106 15.7942 6.31049C15.5762 6.51846 15.1643 6.78585 14.8676 7.2018C14.5648 7.61774 14.5466 8.15253 15.0251 8.28325C15.4187 8.38427 15.6852 8.15253 16.0485 7.87919C16.4179 7.57615 16.7813 7.18991 16.8176 7.15426Z" fill="white"/>
<path d="M9.10227 8.33673C9.45352 8.12282 9.27789 7.54644 8.96904 7.02354C8.66624 6.50063 8.23626 6.04309 8.18781 5.99556C7.51559 5.20526 6.84943 4.0941 6.17116 4.77743C5.60795 5.34787 6.83732 6.38773 7.27335 6.96411C7.69122 7.44542 8.29076 8.82992 9.10227 8.33673Z" fill="white"/>
<path d="M7.38842 11.385C7.40053 10.981 6.84943 10.8027 6.28016 10.7552C5.7109 10.7017 5.12347 10.7789 5.05685 10.7849C4.07577 10.8562 2.85851 10.6898 2.99175 11.6286C3.10681 12.4189 4.62082 12.0921 5.3112 12.0743C5.92286 12.0327 7.36419 12.3298 7.38842 11.385Z" fill="white"/>
<path d="M17.508 15.6811C17.1265 15.3305 16.4179 14.2669 15.7518 14.9562C15.1825 15.5445 16.6238 16.6616 16.7026 16.7269C17.3082 17.2617 17.7805 18.153 18.4528 17.4637C19.016 16.8814 17.938 16.0852 17.508 15.6811Z" fill="white"/>
<path d="M6.08637 15.5979C5.35359 16.1684 4.26957 16.5605 4.85094 17.3211C5.34754 17.9688 6.48001 16.9408 7.02506 16.5368C7.50348 16.1862 8.82975 15.5623 8.24837 14.8017C7.75783 14.16 6.18327 15.5266 6.08637 15.5979Z" fill="white"/>
<path d="M14.6314 11.7297C14.4134 11.7297 14.3226 12.2466 13.9107 12.7992C13.5232 13.3518 12.7298 13.8866 11.8517 13.8391C10.9796 13.8272 10.2226 13.2449 9.95011 12.6507C9.65337 12.0565 9.7321 11.5514 9.7321 11.4623C9.80477 10.7373 10.3619 10.0718 11.0463 9.81631C11.7366 9.54891 12.4936 9.68558 13.0023 10.0005C14.0864 10.6601 14.1409 11.7297 14.6375 11.7297C14.8252 11.7415 15.0372 11.3078 14.8676 10.5769C14.7162 9.86978 14.044 8.90717 12.8933 8.52094C12.3301 8.33079 11.6882 8.28325 11.0705 8.41398C10.4528 8.5447 9.87744 8.85369 9.43535 9.27558C8.99326 9.69152 8.69046 10.2144 8.533 10.7314C8.37555 11.2483 8.36343 11.7534 8.41794 12.1694C8.49667 12.9062 8.94481 13.9223 9.8835 14.564C10.3498 14.8789 10.913 15.0929 11.5005 15.1523C12.0818 15.2058 12.6814 15.1107 13.1961 14.8908C14.2378 14.4392 14.8373 13.5182 14.9524 12.8349C15.0856 12.1278 14.8555 11.7178 14.6314 11.7297Z" fill="white"/>
</g>
<defs>
<clipPath id="clip0">
<path d="M0 0H24V24H0V0Z" fill="white"/>
</clipPath>
</defs>
</svg>
