<svg width="24" height="24" viewBox="0 0 24 24" fill="none" xmlns="http://www.w3.org/2000/svg">
<g clip-path="url(#clip0)">
<path d="M22.4241 5.96407C21.9201 5.02994 21.2241 4.19162 20.4801 3.42515C19.7041 2.68264 18.8401 2.02795 17.9121 1.50898C16.0561 0.487028 13.9761 -0.0159658 12.0401 2.28282e-06C10.1041 0.0159703 8.32008 0.502996 6.91208 1.18962C5.68808 1.78044 4.31208 2.69062 3.10408 4.03194C2.48808 4.69461 1.96008 5.47705 1.47208 6.32336C1.03208 7.19362 0.616081 8.11976 0.384081 9.12575C-0.159919 11.1218 -0.103919 13.3493 0.472081 15.4331C1.09608 17.501 2.24808 19.4092 3.77608 20.8303C5.30408 22.2435 7.10408 23.2176 8.86408 23.6407C10.6161 24.0958 12.2801 24.0798 13.6161 23.8323C14.9601 23.6088 15.9601 23.1058 16.6001 22.7226C17.2241 22.2834 17.5041 21.9641 17.4081 21.7804C17.3681 21.7086 17.2881 21.6766 17.1761 21.6607C18.5601 21.022 19.7841 20.1118 20.7761 19.002C19.2881 20.9182 17.7921 21.7006 17.6241 21.8842C17.4081 22.0838 17.5521 22.0519 18.0161 21.8363C18.2401 21.7246 18.5681 21.5888 18.9121 21.3413C19.0881 21.2216 19.2801 21.0938 19.4881 20.9501C19.6961 20.8064 19.8881 20.6228 20.1121 20.4391C20.9841 19.6886 21.9601 18.5948 22.7121 17.1258C23.4561 15.6727 24.0081 13.8523 24.0081 11.8723C24.0001 9.91617 23.5201 7.8004 22.4241 5.96407Z" fill="#402710"/>
<path d="M11.1919 16.7026L9.09594 16.6547C8.97594 16.1996 8.90394 14.1557 8.88794 10.515V9.36528C8.88794 8.44711 8.97594 7.74452 9.15194 7.26548C9.32794 6.78644 9.68794 6.39522 10.2399 6.10779C10.5199 5.96408 10.9119 5.90021 11.4159 5.90021C11.9199 5.90021 12.3119 5.93214 12.5759 5.99602C13.3039 6.14771 13.7999 6.42715 14.0639 6.84232C14.3279 7.25749 14.4639 7.80839 14.4639 8.49502C14.4639 9.46109 14.2079 10.1717 13.6959 10.6188C13.9599 10.6507 14.2159 10.7785 14.4799 11.01C14.7439 11.2335 14.9519 11.4731 15.1119 11.7046C15.3919 12.1357 15.5359 12.7266 15.5359 13.4771C15.5359 14.6427 15.1839 15.481 14.4719 15.9681C13.7599 16.4551 12.6639 16.7026 11.1919 16.7026ZM13.8559 12.2475C13.7439 12.1357 13.5679 12.0319 13.3439 11.9282C13.1199 11.8323 12.7839 11.7844 12.3599 11.7844C11.9359 11.7844 11.1999 11.8563 10.1679 11.992C10.1679 13.6846 10.1919 14.8264 10.2479 15.4172C11.5199 15.4172 12.4079 15.3373 12.9199 15.1617C13.4319 14.994 13.7759 14.7864 13.9519 14.5469C14.1279 14.3074 14.2239 14.0439 14.2239 13.7645C14.2239 13.485 14.2239 13.2934 14.2159 13.1816C14.2079 13.0699 14.1759 12.9102 14.1199 12.7106C14.0559 12.519 13.9679 12.3593 13.8559 12.2475ZM10.1839 8.79841L10.2159 10.6507C10.2399 10.6507 10.4239 10.6268 10.7679 10.5789C11.1119 10.5309 11.4079 10.4751 11.6479 10.4272C12.7439 10.1637 13.2879 9.54093 13.2879 8.55889C13.2879 8.07186 13.1439 7.71258 12.8559 7.48903C12.5679 7.26548 12.1919 7.14572 11.7279 7.14572C11.1439 7.14572 10.7439 7.24951 10.5439 7.45709C10.4559 7.54492 10.3839 7.61677 10.3359 7.67266C10.2799 7.72855 10.2399 7.82436 10.2239 7.96009C10.1999 8.08783 10.1919 8.18364 10.1839 8.23953C10.1759 8.29542 10.1759 8.39921 10.1839 8.55091C10.1839 8.68664 10.1839 8.77446 10.1839 8.79841Z" fill="white"/>
</g>
<defs>
<clipPath id="clip0">
<path d="M0 0H24V24H0V0Z" fill="white"/>
</clipPath>
</defs>
</svg>
