<svg width="24" height="24" viewBox="0 0 24 24" fill="none" xmlns="http://www.w3.org/2000/svg">
<g clip-path="url(#clip0)">
<path d="M24.0001 13.025C23.9153 12.2822 23.7821 11.8841 23.5943 11.8722C23.5943 10.4402 23.3097 9.07352 22.8071 7.81975C23.7034 9.92324 23.6852 11.4979 23.7639 11.7296C23.8305 12.0148 23.8729 11.8722 23.8911 11.3672C23.8911 11.1117 23.9274 10.767 23.8669 10.3451C23.8426 10.1312 23.8184 9.89947 23.7881 9.6499C23.7579 9.40034 23.6852 9.13889 23.6246 8.85367C23.3582 7.73656 22.8373 6.358 21.8805 5.00915C20.9236 3.66624 19.5489 2.32928 17.7745 1.40232C16.0062 0.481297 13.8744 -0.0891413 11.7003 0.0118738C10.6163 0.0178159 9.53227 0.243614 8.48458 0.534775C7.44295 0.867531 6.44976 1.31913 5.54136 1.88957C3.74272 3.04233 2.30139 4.6348 1.39298 6.34612C0.478525 8.05743 0.0667163 9.85193 0.0122121 11.4088C-0.042292 12.7635 0.115164 14.4036 0.74499 16.0911C1.04174 16.9408 1.49594 17.7727 2.01675 18.5987C2.58602 19.3889 3.21585 20.1971 4.01524 20.8685C5.54741 22.2827 7.57012 23.281 9.7079 23.7504C11.8578 24.1664 14.1227 24.0594 16.1212 23.382C18.1137 22.7046 19.8517 21.5816 21.075 20.2446C22.3226 18.9195 23.1099 17.4518 23.5338 16.1683C23.6307 15.8415 23.7397 15.5385 23.7942 15.2414C23.8487 14.9443 23.8971 14.6591 23.9456 14.3976C24.0062 13.8628 24.0062 13.3993 24.0001 13.025Z" fill="#7A8727"/>
<path d="M18.5677 10.0718C18.4526 8.7467 17.7441 7.73061 17.0476 7.2909C16.3391 6.8393 15.8122 6.92249 15.7941 7.08292C15.7517 7.2493 16.3209 7.40974 16.8417 8.06931C17.3626 8.71105 17.7925 9.86975 17.52 11.1235C17.2899 12.3951 16.5268 13.7024 15.8425 14.968C15.5034 15.5979 15.1703 16.2099 14.8675 16.7744C14.5707 17.3389 14.2861 17.8143 13.9954 18.1649C13.7411 18.4679 13.3959 18.771 12.9659 18.9017C12.542 19.0324 12.003 18.9789 11.4943 18.7413C10.4587 18.2837 9.73198 17.0775 9.05976 15.9841C7.71533 13.7975 6.86143 11.8366 6.51623 11.9614C6.22554 12.0624 7.21268 15.0928 9.07187 17.8559C9.5503 18.5511 10.1801 19.2404 11.0098 19.6326C11.8092 20.0247 12.7903 20.0901 13.5352 19.7574C14.274 19.4305 14.6858 18.9136 14.9523 18.5571C15.2187 18.1886 15.358 17.9391 15.4065 17.8559C16.0847 16.6199 16.7933 15.3305 17.4776 14.0827C18.1438 12.817 18.6828 11.4147 18.5677 10.0718Z" fill="white"/>
<path d="M6.75242 11.076C6.75847 10.9096 6.74636 10.6719 6.71608 10.4045C6.6313 9.8757 6.67975 9.55482 6.70397 9.53106C6.71003 9.44787 6.8372 9.35874 7.00072 9.27555C6.99466 9.29337 6.99466 9.3112 6.9886 9.32903C6.98255 9.40033 6.96438 9.47758 6.96438 9.6083C6.97044 9.72714 6.97044 9.84599 6.98255 9.95888C7.00677 10.0658 7.04916 10.1669 7.12184 10.25C7.27929 10.458 7.54576 10.5234 7.81222 10.559C7.96362 10.5828 8.01207 10.5769 8.10897 10.5828C8.19375 10.5828 8.27854 10.5828 8.36332 10.5709C8.6964 10.5412 9.01131 10.4521 9.28383 10.3154C9.86521 10.0302 10.1741 9.60236 10.4284 9.33497C10.925 8.7467 11.1915 8.72293 11.2763 8.71105C11.5367 8.66351 11.9061 8.82989 12.33 9.07352C12.548 9.19236 12.7782 9.31714 13.0567 9.4241C13.196 9.47163 13.3414 9.51917 13.5049 9.54294C13.6684 9.57265 13.8258 9.59048 14.0741 9.537C14.5586 9.45381 14.9038 9.00221 14.8614 8.5209C14.8433 8.2654 14.7706 8.09902 14.6676 7.9267C14.5465 7.74844 14.4133 7.63554 14.2861 7.53452C14.0196 7.35032 13.7713 7.2493 13.6018 7.15423C13.5836 7.14235 13.5957 7.14829 13.5957 7.14235H13.6018L13.953 7.07698C14.1408 7.04133 14.3285 7.00568 14.5162 6.97003C14.7464 6.92843 14.9402 6.85118 15.0734 6.76205C15.3277 6.58973 15.4852 6.31046 15.461 5.9777C15.3822 5.31813 14.7766 4.98538 13.9772 5.03291C13.8682 5.03291 13.838 5.03291 13.7835 5.03291L13.6381 5.03885C13.5412 5.0448 13.4443 5.05074 13.3535 5.05668C13.1657 5.06856 12.9841 5.09233 12.8145 5.1161C11.4458 5.31813 10.6828 5.7519 10.7615 5.97176C10.8221 6.15596 11.676 5.96582 12.978 5.92422C13.1415 5.92422 13.3111 5.91828 13.4867 5.91828C13.5715 5.91828 13.6623 5.92422 13.7532 5.92422L13.8864 5.93016L13.8925 5.94205C13.9651 5.94799 14.0257 5.98958 14.0015 6.04901C13.9894 6.07872 13.947 6.08466 13.9227 6.08466H13.8864C13.8743 6.08466 13.8985 6.07872 13.8501 6.0906L13.6805 6.12031L13.2929 6.19161C13.081 6.23915 12.8387 6.25698 12.657 6.33422C12.4754 6.41741 12.3966 6.49466 12.3118 6.64915C12.2331 6.81553 12.2392 6.98785 12.2876 7.16017C12.3542 7.39191 12.5056 7.61771 12.7418 7.80786C12.8508 7.89699 13.0022 7.99206 13.1112 8.05148L13.3414 8.16438C13.6199 8.28916 13.8137 8.43177 13.8258 8.50902C13.8501 8.58032 13.838 8.54467 13.838 8.5625C13.8319 8.56844 13.8319 8.57438 13.8258 8.57438C13.8501 8.57438 13.7229 8.58627 13.626 8.5625C13.523 8.53873 13.414 8.50902 13.299 8.46148C12.8327 8.27728 12.3482 7.86728 11.6154 7.75438C11.252 7.69496 10.8645 7.7722 10.5677 7.9267C10.2649 8.08119 10.0651 8.27728 9.89549 8.44366C9.56241 8.77641 9.27172 9.17453 8.93258 9.37062C8.75696 9.47164 8.545 9.54294 8.32698 9.57265C8.21797 9.58453 8.09685 9.58453 7.99996 9.57859C7.9939 9.57859 7.9939 9.57859 7.9939 9.57265V9.56671C7.9939 9.58453 7.99996 9.52511 8.00601 9.47758C8.01813 9.43004 8.02418 9.3825 8.03629 9.33497C8.08474 9.14482 8.16347 8.95468 8.27248 8.75859C8.38149 8.56844 8.51472 8.37235 8.66006 8.18221L9.16877 7.56423C9.26567 7.39191 9.42312 7.23742 9.36256 6.79176C9.31411 6.63727 9.32017 6.68481 9.32017 6.67292L9.29595 6.67886C9.27778 6.67886 9.18694 6.70263 9.13849 6.66104C9.04159 6.57191 9.06582 6.53625 9.30806 6.47683C9.32623 6.47089 9.33228 6.47089 9.36256 6.46495L9.47763 6.45901C9.5503 6.45307 9.62297 6.44712 9.68959 6.44118C9.82282 6.4293 9.93788 6.41147 10.0287 6.39365C10.2165 6.35205 10.3194 6.29857 10.3255 6.22727C10.3315 6.17379 10.2346 6.12031 10.0529 6.06089C9.96211 6.03118 9.8531 6.00147 9.72592 5.97176C9.65931 5.95987 9.59269 5.94205 9.52002 5.92422L9.40495 5.90045C9.34439 5.88857 9.28989 5.88263 9.22933 5.87074C8.75696 5.79944 7.94545 5.67465 7.47914 5.73408C7.23084 5.75784 7.01283 5.80538 6.81298 5.9064C6.61919 6.00147 6.41934 6.1619 6.30427 6.43524C6.26188 6.54814 6.22554 6.69669 6.26188 6.82147C6.29216 6.92249 6.32244 6.94032 6.35272 6.98191C6.41328 7.04133 6.44356 7.04727 6.44356 7.0235C6.44962 7.00568 6.41934 6.92843 6.44356 6.96408C6.46173 6.97597 6.44356 7.01162 6.59496 7.16017C6.66763 7.23148 6.85537 7.33249 7.17634 7.3622L7.2914 7.37409L7.32168 7.38003L7.61237 7.2909L8.24825 7.09481C7.99996 7.38003 7.70927 7.73061 7.47308 8.1109C7.32774 8.11684 7.15817 8.14061 6.96438 8.20003C6.71608 8.27728 6.43751 8.40206 6.1771 8.62192C6.04992 8.72888 5.9288 8.87149 5.84402 9.03192C5.75318 9.1983 5.72895 9.31714 5.70473 9.43598C5.60178 9.85193 5.66234 10.4699 5.80162 10.8799C5.86824 11.0998 5.98936 11.3374 6.14682 11.4622C6.30427 11.593 6.4799 11.5989 6.61919 11.486C6.72819 11.385 6.74636 11.2424 6.75242 11.076ZM8.66612 6.94032H8.66006C8.67823 6.93437 8.69034 6.92843 8.6964 6.92249C8.69034 6.93437 8.68429 6.93437 8.66612 6.94032Z" fill="white"/>
<path d="M13.2687 11.5395C13.2626 11.3909 13.1779 11.2661 13.0991 11.2186C13.0204 11.1651 12.9598 11.1651 12.9477 11.1889C12.9538 11.1711 12.9053 11.1295 12.8084 11.1116C12.7115 11.0938 12.5541 11.1295 12.4451 11.2543C12.3361 11.3731 12.2997 11.5632 12.3663 11.7177C12.4269 11.8722 12.5662 11.9614 12.6813 11.9911C12.7782 12.0208 12.9296 12.0148 13.0567 11.9317C13.1839 11.8485 13.2747 11.688 13.2687 11.5395Z" fill="white"/>
<path d="M16.224 11.4087C16.3209 11.4385 16.4723 11.4325 16.5995 11.3493C16.7267 11.2721 16.8175 11.1116 16.8115 10.9631C16.8054 10.8145 16.7206 10.6898 16.6419 10.6422C16.5632 10.5887 16.5026 10.5887 16.4905 10.6125C16.4966 10.5947 16.4481 10.5531 16.3512 10.5353C16.2543 10.5174 16.0969 10.5531 15.9878 10.6779C15.8788 10.7967 15.8425 10.9869 15.9091 11.1414C15.9697 11.2899 16.115 11.379 16.224 11.4087Z" fill="white"/>
<path d="M15.4065 12.1337C15.4125 12.1159 15.3641 12.0743 15.2672 12.0564C15.1703 12.0386 15.0128 12.0743 14.9038 12.199C14.7948 12.3179 14.7585 12.508 14.8251 12.6625C14.8857 12.817 15.0249 12.9062 15.14 12.9359C15.2369 12.9656 15.3883 12.9596 15.5155 12.8764C15.6427 12.7992 15.7335 12.6388 15.7274 12.4902C15.7214 12.3417 15.6366 12.2169 15.5579 12.1693C15.4791 12.1099 15.4186 12.1099 15.4065 12.1337C15.4125 12.1337 15.4125 12.1337 15.4065 12.1337Z" fill="white"/>
<path d="M8.87808 11.7593C8.87202 11.7593 8.87202 11.7593 8.87808 11.7593C8.88414 11.7415 8.83569 11.694 8.73879 11.6821C8.6419 11.6643 8.48444 11.6999 8.37543 11.8247C8.26642 11.9435 8.23009 12.1337 8.2967 12.2882C8.35726 12.4427 8.49655 12.5318 8.61162 12.5615C8.70851 12.5912 8.85991 12.5853 8.98709 12.5021C9.11427 12.4248 9.20511 12.2644 9.19905 12.1159C9.19299 11.9673 9.10821 11.8425 9.02948 11.795C8.9447 11.7356 8.88414 11.7415 8.87808 11.7593Z" fill="white"/>
<path d="M10.7676 13.0785C10.8947 13.0012 10.9856 12.8408 10.9795 12.6922C10.9735 12.5437 10.8887 12.4189 10.81 12.3714C10.7312 12.3179 10.6707 12.3179 10.6586 12.3417C10.6646 12.3238 10.6162 12.2822 10.5193 12.2644C10.4224 12.2466 10.2649 12.2822 10.1559 12.407C10.0469 12.5259 10.0106 12.716 10.0772 12.8705C10.1377 13.025 10.277 13.1141 10.3921 13.1438C10.489 13.1617 10.6404 13.1557 10.7676 13.0785Z" fill="white"/>
<path d="M10.0166 14.4333C10.0227 14.4154 9.97422 14.3679 9.87732 14.356C9.78043 14.3382 9.62297 14.3738 9.51396 14.4986C9.40495 14.6175 9.36862 14.8076 9.43523 14.9621C9.49579 15.1166 9.63508 15.2057 9.75015 15.2354C9.84704 15.2651 9.99844 15.2592 10.1256 15.176C10.2528 15.0988 10.3436 14.9383 10.3376 14.7898C10.3315 14.6412 10.2467 14.5164 10.168 14.4689C10.0893 14.4095 10.0287 14.4154 10.0166 14.4333Z" fill="white"/>
<path d="M12.3845 17.9926C12.4814 18.0223 12.6328 18.0163 12.76 17.9331C12.8872 17.8559 12.978 17.6955 12.9719 17.5469C12.9659 17.3984 12.8811 17.2736 12.8024 17.226C12.7237 17.1726 12.6631 17.1726 12.651 17.1963C12.657 17.1785 12.6086 17.1369 12.5117 17.1191C12.4148 17.1012 12.2573 17.1369 12.1483 17.2617C12.0393 17.3805 12.003 17.5707 12.0696 17.7252C12.1302 17.8737 12.2755 17.9688 12.3845 17.9926Z" fill="white"/>
<path d="M10.8342 16.8992C10.9311 16.9289 11.0825 16.923 11.2096 16.8398C11.3368 16.7626 11.4277 16.6021 11.4216 16.4536C11.4156 16.305 11.3308 16.1802 11.252 16.1327C11.1733 16.0792 11.1128 16.0792 11.1006 16.103C11.1067 16.0852 11.0582 16.0436 10.9614 16.0257C10.8645 16.0079 10.707 16.0436 10.598 16.1683C10.489 16.2872 10.4526 16.4773 10.5193 16.6318C10.5798 16.7804 10.7191 16.8755 10.8342 16.8992Z" fill="white"/>
<path d="M13.5897 16.5546C13.6866 16.5843 13.838 16.5783 13.9651 16.4952C14.0923 16.4179 14.1832 16.2575 14.1771 16.1089C14.171 15.9604 14.0863 15.8356 14.0075 15.7881C13.9288 15.7346 13.8682 15.7346 13.8561 15.7583C13.8622 15.7405 13.8137 15.6989 13.7168 15.6811C13.6199 15.6633 13.4625 15.6989 13.3535 15.8237C13.2445 15.9425 13.2081 16.1327 13.2747 16.2872C13.3353 16.4357 13.4746 16.5308 13.5897 16.5546Z" fill="white"/>
<path d="M12.4451 14.3263C12.439 14.1778 12.3542 14.053 12.2755 14.0054C12.1968 13.952 12.1362 13.952 12.1241 13.9757C12.1302 13.9579 12.0817 13.9163 11.9848 13.8985C11.8879 13.8806 11.7305 13.9163 11.6215 14.0411C11.5124 14.1599 11.4761 14.3501 11.5427 14.5046C11.6033 14.6591 11.7426 14.7482 11.8576 14.7779C11.9545 14.8076 12.1059 14.8017 12.2331 14.7185C12.3663 14.6353 12.4511 14.4749 12.4451 14.3263Z" fill="white"/>
<path d="M14.6676 14.772C14.7948 14.6947 14.8856 14.5343 14.8796 14.3857C14.8735 14.2372 14.7888 14.1124 14.71 14.0649C14.6313 14.0114 14.5707 14.0114 14.5586 14.0351C14.5647 14.0173 14.5162 13.9757 14.4193 13.9579C14.3224 13.9401 14.165 13.9757 14.056 14.1005C13.947 14.2193 13.9106 14.4095 13.9772 14.564C14.0378 14.7185 14.1771 14.8076 14.2922 14.8373C14.3891 14.8551 14.5405 14.8551 14.6676 14.772Z" fill="white"/>
</g>
<defs>
<clipPath id="clip0">
<path d="M0 0H24V24H0V0Z" fill="white"/>
</clipPath>
</defs>
</svg>
