<svg xmlns="http://www.w3.org/2000/svg" width="27" height="27" viewBox="0 0 27 27"><defs><style>.cls-1 {fill-rule: evenodd;}</style></defs><path id="form-facebook" class="cls-1" d="M30.5,17a13.594,13.594,0,0,0-2.162,27V34.4H24.831V30.591h3.507v-3c0-3.418,2.079-5.3,5.156-5.3q0.139,0,.278,0L34.047,22.3l0.136,0.007c0.586,0.031,1.133.1,1.542,0.155l0.092,0.013L35.984,22.5l0.076,0.012L36.3,22.555l0.145,0.027v3.391H34.811a1.879,1.879,0,0,0-2.148,2.065v2.553h3.784L35.822,34.4h-3.16V44A13.594,13.594,0,0,0,30.5,17Z" transform="translate(-17 -17)"/></svg>
