<svg width="24" height="24" viewBox="0 0 24 24" fill="none" xmlns="http://www.w3.org/2000/svg">
	<path fill-rule="evenodd"
	      clip-rule="evenodd"
	      d="M11.9995 2.16207C15.2037 2.16207 15.5829 2.17446 16.8485 2.23209C18.0183 2.28544 18.6538 2.48074 19.0767 2.64507C19.6369 2.86276 20.0365 3.12283 20.4566 3.54248C20.8768 3.96261 21.1368 4.36225 21.354 4.92242C21.5184 5.3454 21.7137 5.98083 21.767 7.1507C21.8246 8.41584 21.837 8.79548 21.837 11.9998C21.837 15.204 21.8246 15.5832 21.767 16.8488C21.7137 18.0187 21.5184 18.6541 21.354 19.0771C21.1363 19.6373 20.8763 20.0369 20.4566 20.457C20.0365 20.8772 19.6369 21.1372 19.0767 21.3545C18.6538 21.5188 18.0183 21.7141 16.8485 21.7674C15.5834 21.8251 15.2037 21.8375 11.9995 21.8375C8.7953 21.8375 8.41567 21.8251 7.15056 21.7674C5.98071 21.7141 5.34529 21.5188 4.92232 21.3545C4.36216 21.1368 3.96253 20.8767 3.54241 20.457C3.1223 20.0369 2.86222 19.6373 2.64502 19.0771C2.48069 18.6541 2.2854 18.0187 2.23205 16.8488C2.17441 15.5837 2.16203 15.204 2.16203 11.9998C2.16203 8.79548 2.17441 8.41631 2.23205 7.1507C2.2854 5.98083 2.48069 5.3454 2.64502 4.92242C2.8627 4.36225 3.12277 3.96261 3.54241 3.54248C3.96253 3.12236 4.36216 2.86228 4.92232 2.64507C5.34529 2.48074 5.98071 2.28544 7.15056 2.23209C8.41615 2.17446 8.7953 2.16207 11.9995 2.16207ZM11.9995 0C8.74052 0 8.33184 0.0138136 7.05196 0.0724025C5.77494 0.130515 4.90279 0.333433 4.13925 0.630188C3.34998 0.936945 2.68074 1.34707 2.01389 2.01441C1.34704 2.68127 0.936451 3.35052 0.630175 4.13933C0.333426 4.90289 0.130512 5.77505 0.0724011 7.0521C0.0138134 8.332 0 8.7407 0 11.9998C0 15.2588 0.0138134 15.6675 0.0724011 16.9474C0.130512 18.2245 0.333426 19.0966 0.630175 19.8602C0.936927 20.6495 1.34704 21.3187 2.01437 21.9856C2.6817 22.6529 3.35045 23.0631 4.13972 23.3698C4.90279 23.6666 5.77541 23.8695 7.05244 23.9276C8.33231 23.9862 8.741 24 12 24C15.259 24 15.6677 23.9862 16.9476 23.9276C18.2246 23.8695 19.0972 23.6666 19.8603 23.3698C20.6495 23.0631 21.3188 22.6529 21.9856 21.9856C22.653 21.3182 23.0631 20.6495 23.3698 19.8602C23.6666 19.0971 23.8695 18.2245 23.9276 16.9474C23.9862 15.6675 24 15.2588 24 11.9998C24 8.7407 23.9862 8.332 23.9276 7.0521C23.8695 5.77505 23.6666 4.90241 23.3698 4.13933C23.0631 3.35004 22.653 2.6808 21.9856 2.01393C21.3183 1.34659 20.6495 0.936469 19.8603 0.629711C19.0963 0.333433 18.2241 0.130515 16.9471 0.0724025C15.6672 0.0138136 15.2585 0 11.9995 0ZM11.9996 5.83789C8.59628 5.83789 5.83789 8.59681 5.83789 11.9997C5.83789 15.4027 8.59675 18.1616 11.9996 18.1616C15.4025 18.1616 18.1613 15.4027 18.1613 11.9997C18.1613 8.59681 15.4029 5.83789 11.9996 5.83789ZM11.9996 15.9995C9.79042 15.9995 7.99992 14.2085 7.99992 11.9997C7.99992 9.7905 9.79089 7.99997 11.9996 7.99997C14.2083 7.99997 15.9993 9.79098 15.9993 11.9997C15.9993 14.209 14.2088 15.9995 11.9996 15.9995ZM19.8452 5.59425C19.8452 6.38951 19.2005 7.0342 18.4053 7.0342C17.61 7.0342 16.9653 6.38951 16.9653 5.59425C16.9653 4.79899 17.61 4.1543 18.4053 4.1543C19.2005 4.1543 19.8452 4.79899 19.8452 5.59425Z"
	      fill="white"></path>
</svg>