<svg xmlns="http://www.w3.org/2000/svg" width="61.813" height="65.625" viewBox="0 0 61.813 65.625">
  <defs>
    <style>
      .cls-1 {
        fill-rule: evenodd;
      }
    </style>
  </defs>
  <path id="Form_2" data-name="Form 2" class="cls-1" d="M71.6,61.014a1.378,1.378,0,0,0-1.212-1.027c-1.037.016-1.612,1.064-2.507,2.248a9.341,9.341,0,0,1-4,3.389,7.138,7.138,0,0,1-3.076.489,6.627,6.627,0,0,1-5.351-3.521,6.608,6.608,0,0,1,1.724-8.2,7.393,7.393,0,0,1,6.9-1.332,8.891,8.891,0,0,1,4.984,4.115c0.947,1.563,1.222,2.842,1.832,2.811,0.483,0,1.072-1.343.6-3.566a9.211,9.211,0,0,0-1.663-3.6,10.646,10.646,0,0,0-3.834-3.15,10.975,10.975,0,0,0-5.463-1.062,11.245,11.245,0,0,0-5.467,1.83,11.727,11.727,0,0,0-3.747,4.092l0,0.01a12.509,12.509,0,0,0-1.432-1.192,51.848,51.848,0,0,0-8.124-4.412c-1.762-.84-4.728-2.5-7.316-3.8-1.022-.5-1.972-0.96-2.8-1.288a8.043,8.043,0,0,0,.23-0.832,5.454,5.454,0,0,0-.119-3.012,1.379,1.379,0,0,0-1.211-1.027c-1.037.015-1.612,1.064-2.507,2.249a9.343,9.343,0,0,1-4,3.389,7.14,7.14,0,0,1-3.076.489,6.627,6.627,0,0,1-5.351-3.521,6.608,6.608,0,0,1,1.725-8.2,7.393,7.393,0,0,1,6.9-1.332A8.891,8.891,0,0,1,29.2,36.168c0.947,1.562,1.222,2.842,1.832,2.81,0.483,0,1.072-1.343.6-3.566a8.7,8.7,0,0,0-.45-1.432,8.512,8.512,0,0,0,3.008-1.1,37.416,37.416,0,0,0,6.729-5.22A76.88,76.88,0,0,0,46.5,22.344a15.674,15.674,0,0,0,2.1-2.786,5.253,5.253,0,0,0,1.254,2.047,1.376,1.376,0,0,0,1.541.376c0.921-.478.968-1.674,1.242-3.134a9.375,9.375,0,0,1,2.075-4.825,7.152,7.152,0,0,1,2.534-1.815,6.613,6.613,0,0,1,6.356.754,6.6,6.6,0,0,1,2.108,8.109,7.412,7.412,0,0,1-5.581,4.281A8.867,8.867,0,0,1,53.837,23.9c-1.543-.974-2.359-2-2.891-1.694-0.431.218-.361,1.682,1.055,3.457a9.175,9.175,0,0,0,3.09,2.475,10.616,10.616,0,0,0,4.834,1.1,10.978,10.978,0,0,0,5.361-1.5,11.279,11.279,0,0,0,4.077-4.085A11.77,11.77,0,0,0,67.478,9.645,11.413,11.413,0,0,0,51.21,9.522a10.844,10.844,0,0,0-2.779,4.9,9.648,9.648,0,0,0-.263,2.887c-0.921-.053-2.388.8-4.007,1.958-2.066,1.488-4.4,3.387-6.086,4.567-1.455,1.045-4.255,2.492-6.494,4.036a9.554,9.554,0,0,0-2.8,2.647,10.727,10.727,0,0,0-2.651-1.854A10.977,10.977,0,0,0,20.668,27.6a11.245,11.245,0,0,0-5.467,1.83A11.439,11.439,0,0,0,10.1,38.272a11.9,11.9,0,0,0,.551,4.544,11.424,11.424,0,0,0,14.5,7.393,10.8,10.8,0,0,0,4.668-3.14c0.146-.172.262-0.35,0.393-0.525A17.3,17.3,0,0,0,32.1,48.228c2.289,1.8,5.241,3.563,7.2,4.806,1.707,1.087,4.539,3.235,7.072,4.758a13.384,13.384,0,0,0,3.57,1.625,11.842,11.842,0,0,0,.555,4.408A11.424,11.424,0,0,0,65,71.219a10.8,10.8,0,0,0,4.668-3.14,9.269,9.269,0,0,0,2.044-4.052A5.454,5.454,0,0,0,71.6,61.014Z" transform="translate(-10.063 -6.188)"/>
</svg>
