<svg width="341" height="229" viewBox="0 0 341 229" fill="none" xmlns="http://www.w3.org/2000/svg">
<path d="M70.0705 78.2205C69.2616 78.8694 68.3027 79.1938 67.5856 79.3768C66.8518 79.5515 66.3348 79.5848 66.168 79.6014C65.5176 79.6513 64.8505 79.6014 64.1918 79.4933C63.8582 79.4433 63.5581 79.3602 63.2162 79.2687C62.8743 79.1688 62.5157 79.0441 62.1322 78.911C60.6229 78.4035 58.8968 77.58 56.587 77.4719C55.453 77.422 54.1688 77.6466 53.1015 78.1706C52.0341 78.678 51.242 79.3352 50.5916 79.9092C50.0329 80.4249 49.4825 80.9324 48.9489 81.4315C48.4652 81.8557 48.115 82.1219 47.6814 82.3548C45.9553 83.3114 44.0374 83.353 42.7033 83.2865C41.3524 83.2199 40.3601 83.0785 39.8348 83.7523C39.6263 84.0268 39.7097 84.4927 40.1767 85.0583C40.6353 85.624 41.4858 86.2645 42.7033 86.6971C43.9207 87.1379 45.4967 87.3542 47.2478 87.0797C48.115 86.9383 49.0239 86.6638 49.9162 86.2229C50.8084 85.7903 51.6756 85.1581 52.3343 84.5758C53.0181 83.9852 53.6101 83.4279 54.1521 83.0036C54.7025 82.5877 55.1528 82.3215 55.5864 82.23C56.4286 81.9722 57.7377 82.2716 59.2637 82.804C60.0225 83.0619 60.8313 83.3614 61.7069 83.6192C62.5991 83.8771 63.5747 84.0767 64.467 84.135C66.2764 84.2847 67.9525 84.0684 69.37 83.6442C70.6042 83.2615 72.0801 82.646 73.4393 81.4647C74.1314 80.8908 74.7401 80.1421 75.2737 79.3186C75.7907 78.4867 76.1576 77.58 76.4245 76.6733C76.9415 74.8266 77.0582 73.088 77.0499 71.2996C77.0165 69.5111 76.7497 67.6478 76.0909 65.9258C75.7657 65.0607 75.3488 64.2372 74.8485 63.4968C74.3398 62.7399 73.7311 62.0661 73.0974 61.5254C71.8299 60.4273 70.404 59.8034 69.1532 59.5705C67.8941 59.3376 66.8184 59.5206 66.1764 59.845C65.5176 60.1695 65.2675 60.6103 65.3508 61.0013C65.5176 61.7167 67.252 61.7084 69.0365 63.1308C69.9287 63.8213 70.8126 64.7945 71.3713 66.0506C71.9633 67.3233 72.2802 68.8706 72.3386 70.5259C72.3886 72.1564 72.2552 73.9948 71.88 75.334C71.5214 76.7232 70.9043 77.5883 70.0705 78.2205Z" fill="white"/>
<path d="M137.613 50.7945C137.129 51.6929 136.637 52.4166 136.354 53.1071C136.07 53.7892 135.979 54.463 136.396 55.195C136.737 55.8023 137.63 55.9104 138.797 55.3697C139.956 54.8456 141.29 53.6145 142.208 51.9009C143.141 50.2039 143.617 48.0079 143.417 45.9615C143.241 43.9152 142.466 42.1766 141.766 40.9621C141.14 39.8974 140.148 38.4915 138.664 37.3353C137.171 36.1374 135.286 35.4054 133.619 35.1142C131.943 34.8148 130.475 34.8896 129.441 35.1808C128.407 35.4803 127.773 36.0126 127.715 36.8362C127.673 37.5432 128.549 38.0839 129.808 38.5331C131.067 38.9906 132.676 39.3982 134.019 40.0221C134.694 40.3382 135.295 40.6959 135.803 41.0869C136.32 41.4862 136.762 41.9354 137.113 42.3596C137.821 43.2081 138.155 43.9568 138.23 44.0982C138.739 45.2129 138.897 46.4939 138.722 47.6502C138.555 48.8231 138.097 49.9045 137.613 50.7945Z" fill="white"/>
<path d="M124.93 100.106C123.888 101.296 123.329 102.327 122.887 103.051C122.478 103.758 122.212 104.224 122.12 104.382C121.444 105.53 120.811 106.428 119.943 107.235C119.093 108.034 118.109 108.708 117.075 109.199C114.99 110.197 112.797 110.471 110.896 110.288C107.035 109.972 104.609 108.283 103.466 109.556C103.008 110.064 103.55 111.303 105.201 112.567C106.827 113.815 109.612 114.955 112.864 114.913C116.124 114.905 119.593 113.582 122.128 111.478C123.404 110.438 124.488 109.19 125.272 107.984C126.047 106.803 126.589 105.771 127.081 104.989C127.515 104.299 128.032 103.534 128.616 102.985C129.208 102.419 129.791 102.095 130.533 101.995C131.284 101.887 132.343 102.036 133.61 102.302C134.87 102.552 136.362 102.901 138.013 102.86C141.249 102.777 143.867 101.263 145.201 99.757C146.569 98.2264 146.719 96.8622 146.052 96.4047C145.451 95.9805 144.275 96.9204 142.408 97.6525C141.474 98.0102 140.365 98.3263 139.189 98.4011C138.597 98.4427 138.005 98.4261 137.404 98.3429C136.787 98.2514 136.104 98.0934 135.353 97.9187C133.869 97.5776 132.034 97.0619 129.908 97.328C128.857 97.4695 127.807 97.8521 126.956 98.3762C126.114 98.8919 125.455 99.5158 124.93 100.106Z" fill="white"/>
<path d="M224.609 108.699C226.544 108.666 228.462 108.184 230.113 107.485C231.78 106.786 233.181 105.888 234.407 105.039C235.633 104.191 236.675 103.367 237.559 102.685C238.335 102.086 239.243 101.387 240.236 100.68C240.719 100.348 241.295 99.9317 241.678 99.7155C241.878 99.599 242.037 99.5408 242.145 99.5075C242.262 99.4825 242.27 99.4825 242.362 99.4909C242.696 99.4659 244.48 100.264 245.864 100.73C247.332 101.246 248.875 101.704 250.434 101.97C251.985 102.236 253.578 102.311 255.012 102.128C256.438 101.953 257.713 101.554 258.697 101.03C259.681 100.506 260.373 99.8818 260.715 99.3245C261.066 98.7672 261.091 98.293 260.849 97.9686C260.39 97.3946 258.898 98.0434 256.629 98.1599C255.495 98.2264 254.161 98.1765 252.752 97.9103C251.326 97.6525 249.8 97.195 248.232 96.621C247.449 96.3382 246.656 96.0221 245.856 95.706C245.097 95.4314 244.197 94.9407 242.762 94.7992C242.062 94.7244 241.22 94.8408 240.594 95.0654C239.952 95.2817 239.452 95.5729 239.027 95.8307C238.601 96.0969 238.285 96.3382 237.968 96.5628C237.651 96.7874 237.342 97.0119 237.059 97.2365C234.866 98.9501 233.281 100.181 232.965 100.431C230.63 102.194 228.095 103.642 225.643 103.925C223.208 104.266 220.79 103.55 218.672 102.61C216.554 101.67 214.728 100.606 213.294 100.032C211.851 99.4409 210.801 99.3328 210.292 99.9983C209.875 100.564 210.559 101.729 212.06 103.201C213.577 104.648 215.921 106.495 219.181 107.726C220.807 108.325 222.675 108.749 224.609 108.699Z" fill="white"/>
<path d="M-69.8508 109.723C-69.5923 109.748 -69.7424 109.565 -69.7341 109.373C-69.7341 109.29 -69.7341 109.149 -69.634 108.857C-69.5423 108.575 -69.3338 108.192 -69.0336 107.809C-68.9586 107.71 -68.8835 107.635 -68.7835 107.526C-68.6751 107.41 -68.5667 107.294 -68.4499 107.169C-68.2248 106.928 -67.983 106.67 -67.7328 106.412C-67.2325 105.888 -66.6821 105.322 -66.0734 104.74C-64.8727 103.575 -63.4718 102.327 -61.9041 101.105C-60.3448 99.8818 -58.6187 98.684 -56.7926 97.5942C-55.8837 97.0619 -54.9164 96.4879 -54.1076 96.1552C-53.2654 95.8058 -52.59 95.7642 -52.2064 95.9389C-51.9979 96.0221 -51.7144 96.2134 -51.3558 96.5295C-50.9973 96.8289 -50.5804 97.2366 -50.005 97.6358C-49.4463 98.0434 -48.6375 98.4178 -47.8536 98.5342C-47.0531 98.6673 -46.286 98.5925 -45.6272 98.4261C-44.3014 98.085 -43.3341 97.4861 -42.4919 96.9288C-41.6414 96.3465 -40.9993 95.839 -40.3573 95.3566C-38.1392 93.7095 -35.079 91.4635 -31.5601 89.7C-29.809 88.8099 -27.9245 88.0946 -26.0149 87.6537C-25.5396 87.5372 -25.056 87.4623 -24.5807 87.3708C-24.1137 87.3376 -23.6634 87.2378 -23.1965 87.2378C-22.7379 87.2128 -22.2709 87.2045 -21.8123 87.2378C-21.3537 87.2378 -20.895 87.3043 -20.4448 87.3542C-18.6353 87.5788 -16.9676 88.1445 -15.5667 88.8349C-14.1575 89.5336 -13.0484 90.3821 -12.1979 91.1973C-11.3223 92.0042 -10.7803 92.8194 -10.255 93.3768C-9.81306 93.9591 -9.36279 94.3001 -8.95419 94.2253C-8.5456 94.1504 -8.30379 93.7012 -8.23708 92.8527C-8.21206 92.4368 -8.30379 91.946 -8.42052 91.3637C-8.48724 91.0726 -8.6123 90.7897 -8.72905 90.4736C-8.84579 90.1575 -8.98754 89.8248 -9.17933 89.517C-9.88811 88.2027 -11.0972 86.8135 -12.7149 85.6905C-14.3326 84.5592 -16.3338 83.6858 -18.5519 83.2199C-20.7616 82.7541 -23.2215 82.646 -25.6397 83.1534C-27.9828 83.6275 -30.2593 84.476 -32.3189 85.5574C-36.4715 87.7119 -39.8403 90.5485 -42.7004 92.8444C-43.7677 93.6929 -44.8768 94.7077 -46.1192 95.2152C-46.7363 95.4564 -47.2783 95.5146 -47.8036 95.3399C-48.3456 95.1736 -48.996 94.5497 -49.9383 93.8925C-50.4053 93.5681 -51.0306 93.2437 -51.7061 93.1106C-52.3815 92.9775 -53.0569 93.0191 -53.6573 93.1605C-54.8664 93.4433 -55.8337 94.0256 -56.7176 94.5996C-58.477 95.7309 -60.153 96.9787 -61.679 98.2764C-64.7476 100.863 -67.1825 103.65 -68.8001 105.854C-69.1921 106.412 -69.5923 106.911 -69.8508 107.393C-70.1093 107.876 -70.2427 108.35 -70.2761 108.724C-70.3094 109.107 -70.2177 109.39 -70.1093 109.531C-70.0092 109.673 -69.9092 109.723 -69.8508 109.723Z" fill="white"/>
<path d="M315.975 111.969C315.375 112.909 314.649 113.541 314.082 113.948C313.524 114.381 313.09 114.539 313.007 114.655C312.79 114.863 312.948 114.922 313.44 114.838C313.565 114.813 313.707 114.789 313.874 114.747C314.032 114.689 314.207 114.622 314.399 114.539C314.799 114.389 315.216 114.123 315.683 113.799C316.6 113.133 317.568 112.043 318.243 110.588C318.935 109.14 319.319 107.294 319.002 105.297C318.819 104.307 318.46 103.301 317.885 102.369C317.318 101.479 316.584 100.689 315.767 100.04C314.124 98.7256 312.248 97.9519 310.48 97.3613C308.695 96.7707 307.044 96.3631 305.493 95.9305C304.718 95.7226 303.967 95.5146 303.259 95.3233C303.117 95.2817 302.975 95.2401 302.85 95.1985C302.833 95.1902 302.808 95.1902 302.792 95.1736C302.833 95.0904 302.875 95.0072 302.917 94.9157L302.934 94.8824L302.942 94.8658L302.984 94.7493C303.042 94.5663 303.092 94.3916 303.15 94.2086C303.267 93.8426 303.367 93.4516 303.467 93.044C303.842 91.4386 304.126 89.4338 303.467 87.2461C303.134 86.1813 302.542 85.1082 301.758 84.2597C300.982 83.4029 300.073 82.7458 299.139 82.2383C297.263 81.2235 295.154 80.7327 293.094 80.8159C291.034 80.8824 289.058 81.5812 287.566 82.7291C286.081 83.8688 285.197 85.3162 284.772 86.6139C284.347 87.9199 284.397 89.0678 284.655 89.7998C284.906 90.5319 285.331 90.848 285.723 90.7981C286.557 90.665 286.857 89.5669 287.732 88.3108C288.174 87.6786 288.758 86.9799 289.55 86.4142C290.317 85.8486 291.301 85.441 292.494 85.2829C293.669 85.1249 295.012 85.258 296.279 85.7072C297.563 86.1647 298.723 86.9216 299.29 87.8699C299.915 88.8266 300.09 90.1742 299.923 91.6216C299.848 92.3453 299.698 93.0773 299.515 93.801C299.148 95.0821 298.673 96.4213 298.281 97.6026C298.698 97.719 299.139 97.8105 299.548 97.9103C300.432 98.1183 301.391 98.3429 302.408 98.5758C303.025 98.7089 303.684 98.842 304.376 98.9917C305.752 99.2829 307.278 99.5824 308.796 99.9234C310.313 100.273 311.856 100.697 313.232 101.396C314.599 102.078 315.817 103.093 316.534 104.357C316.892 104.989 317.101 105.696 317.234 106.404C317.318 107.111 317.368 107.826 317.259 108.508C317.092 109.839 316.592 111.045 315.975 111.969Z" fill="white"/>
<path d="M229.888 49.8213C230.73 49.8046 231.18 48.2241 231.53 45.7951C231.922 43.3994 232.214 40.097 233.94 37.2854C234.782 35.8712 235.975 34.6234 237.409 33.9164C238.835 33.2259 240.611 33.0762 242.445 33.4505C243.363 33.6335 244.28 33.9247 245.172 34.2824C245.622 34.4654 246.056 34.665 246.49 34.8813C246.923 35.0976 247.324 35.3222 247.824 35.5967C248.316 35.8629 248.858 36.1374 249.483 36.3537C250.109 36.5616 250.851 36.728 251.676 36.6448C252.493 36.5783 253.311 36.179 253.836 35.7381C254.37 35.2972 254.72 34.8564 255.012 34.4987C255.787 33.5088 256.754 32.4606 257.997 31.4541C259.231 30.4809 260.774 29.3911 262.283 29.0085C263.05 28.8255 263.742 28.8504 264.476 29.1832C265.218 29.5076 265.944 30.1148 266.677 30.7803C268.153 32.1362 269.579 33.5587 270.905 34.9811C276.233 40.671 279.594 46.5105 280.036 46.8932C280.978 47.8332 278.702 41.8772 273.749 35.1974C272.514 33.5337 271.122 31.8368 269.621 30.1897C268.854 29.3745 268.153 28.5593 267.161 27.7108C266.669 27.2949 266.102 26.8956 265.427 26.5795C264.76 26.2634 263.959 26.0554 263.209 26.0305C261.683 25.9722 260.39 26.4298 259.306 26.9289C258.222 27.4446 257.313 28.0019 256.421 28.6175C255.545 29.2331 254.745 29.8902 254.028 30.5557C253.669 30.8968 253.336 31.2295 253.019 31.5706C252.727 31.895 252.452 32.2111 252.185 32.5106C251.993 32.7268 251.81 32.9015 251.676 32.993C251.535 33.0928 251.493 33.0928 251.418 33.1012C251.301 33.1344 250.834 33.0429 250.184 32.6769C249.858 32.5022 249.517 32.2776 249.091 32.0198C248.658 31.7453 248.199 31.4874 247.732 31.2295C246.782 30.7221 245.764 30.2563 244.647 29.8736C242.454 29.1249 239.785 28.7173 237.134 29.441C235.825 29.7904 234.574 30.4226 233.515 31.2046C232.464 32.0031 231.58 32.9431 230.872 33.933C229.446 35.9128 228.662 38.1422 228.32 40.122C227.97 42.1101 227.986 43.8736 228.12 45.3127C228.412 48.1742 229.079 49.8379 229.888 49.8213Z" fill="white"/>
<path d="M-38.0558 191.244C-38.8563 191.202 -39.8486 191.077 -40.8826 190.711C-41.3996 190.528 -41.9333 190.295 -42.4419 189.987C-42.9506 189.696 -43.5093 189.272 -44.2097 188.831C-44.8851 188.39 -45.8107 187.941 -46.7696 187.725C-47.7286 187.509 -48.7042 187.484 -49.6298 187.558C-51.4809 187.725 -53.132 188.249 -54.6412 188.656C-57.6098 189.472 -60.4949 189.979 -62.7547 190.27C-64.7226 190.536 -67.4493 190.719 -70.4428 190.736C-73.4364 190.761 -76.6884 190.645 -79.707 190.553C-85.7441 190.353 -90.8724 190.37 -90.9974 192.05C-91.1225 193.689 -86.6614 194.596 -80.7243 194.912C-77.7641 195.062 -74.4287 195.037 -71.16 194.804C-67.8912 194.579 -64.6976 194.138 -61.9959 193.623C-60.0196 193.265 -57.368 192.624 -54.5829 191.668C-53.1737 191.21 -51.8145 190.62 -50.4386 190.245C-49.0794 189.863 -47.6952 189.705 -46.4361 190.046C-45.1853 190.378 -44.0012 191.268 -42.7338 191.701C-41.483 192.159 -40.2822 192.3 -39.2733 192.275C-37.2386 192.217 -36.0462 191.601 -35.8961 191.468C-35.5626 191.102 -36.4465 191.293 -38.0558 191.244Z" fill="white"/>
<path d="M25.3674 189.763C23.7664 190.029 21.3982 190.337 18.6632 190.387C15.9281 190.453 12.8512 190.312 9.87431 190.137C6.88909 189.971 4.05398 189.829 1.85259 189.738C-3.19225 189.53 -13.1902 188.582 -19.4691 188.906C-19.4608 187.209 -19.4358 185.654 -19.4108 184.314C-19.319 179.623 -18.7854 171.654 -18.5352 164.841C-18.3851 160.665 -18.3601 156.922 -18.7437 154.609C-17.2511 153.852 -15.7835 152.979 -14.3576 151.997C-11.2973 149.901 -8.42053 147.339 -5.76887 144.635C-5.12679 143.995 -4.48472 143.404 -3.81763 143.13C-3.15889 142.838 -2.50848 142.897 -1.76634 143.279C-1.04922 143.637 -0.290421 144.228 0.460052 144.743C1.20219 145.284 1.94432 145.825 2.66978 146.357C5.58828 148.512 8.50677 150.575 11.5587 151.789C14.5856 153.07 17.6875 153.212 20.1474 152.687C21.3815 152.43 22.4656 152.014 23.3578 151.531C24.2583 151.049 24.9338 150.458 25.4674 149.942C26.5098 148.861 26.7933 147.946 26.8767 147.73C27.0268 147.206 26.7849 147.414 26.2763 148.154C26.1262 148.32 25.9511 148.52 25.7593 148.753C25.5508 148.969 25.3007 149.194 25.0338 149.443C24.4585 149.909 23.7163 150.392 22.7908 150.799C20.9396 151.581 18.2963 151.972 15.4528 151.398C14.0603 151.107 12.6177 150.525 11.1501 149.759C9.6992 148.969 8.24828 148.004 6.78069 146.898C5.3131 145.8 3.83717 144.569 2.27786 143.337C1.88595 143.03 1.48569 142.722 1.08544 142.414C0.685196 142.115 0.268265 141.79 -0.240395 141.466C-0.749046 141.15 -1.35776 140.825 -2.11657 140.659C-2.86704 140.484 -3.73425 140.542 -4.44303 140.775C-5.8856 141.258 -6.77783 142.131 -7.56166 142.838C-8.30379 143.537 -9.0209 144.194 -9.77138 144.851C-11.2556 146.157 -12.7899 147.38 -14.3576 148.495C-17.4929 150.716 -20.8117 152.438 -24.0637 153.411C-27.3241 154.426 -30.4177 154.551 -33.1111 154.226C-35.4292 153.919 -38.1642 153.145 -40.6741 151.506C-41.9249 150.699 -43.0923 149.66 -44.0429 148.412C-44.2847 148.104 -44.4849 147.763 -44.7183 147.438C-44.9351 147.131 -45.1519 146.706 -45.4855 146.207C-45.8107 145.725 -46.286 145.126 -46.9531 144.652C-47.6035 144.186 -48.3289 143.911 -48.9794 143.762C-50.2968 143.462 -51.4059 143.529 -52.3064 143.487C-53.2154 143.462 -54.1326 143.387 -55.0415 143.288C-56.8676 143.063 -58.6938 142.664 -60.4449 142.073C-63.9471 140.908 -67.1491 138.995 -69.4922 136.508C-70.6596 135.269 -71.6353 133.896 -72.3107 132.507C-73.0028 131.101 -73.4447 129.595 -73.6615 128.131C-74.1202 125.195 -73.7616 122.425 -73.0278 120.287C-72.3107 118.116 -71.26 116.552 -70.4512 115.479C-70.0759 114.913 -69.7091 114.514 -69.5173 114.165C-69.3171 113.815 -69.2504 113.541 -69.3588 113.358C-69.4672 113.175 -69.7091 113.117 -70.101 113.175C-70.4762 113.25 -71.0516 113.366 -71.6519 113.757C-72.9277 114.414 -74.5287 115.878 -75.8379 118.149C-77.0887 120.428 -78.0309 123.515 -77.9225 127.008C-77.9059 128.755 -77.6057 130.594 -76.997 132.432C-76.4049 134.262 -75.446 136.142 -74.2119 137.756C-71.7353 141.042 -68.1581 143.654 -64.1889 145.276C-60.2281 146.923 -55.8253 147.655 -51.606 147.572C-50.6471 147.555 -49.8466 147.605 -49.4463 147.788C-49.2379 147.888 -49.1378 147.938 -48.9377 148.154C-48.7459 148.37 -48.5207 148.711 -48.2456 149.152C-47.0531 151.015 -45.5022 152.621 -43.7844 153.852C-40.3323 156.323 -36.3964 157.396 -32.8275 157.679C-32.444 157.712 -32.0437 157.728 -31.6351 157.745C-33.1027 163.959 -32.8609 181.245 -32.8609 182.459C-32.8692 185.288 -32.9276 188.307 -33.036 191.077C-33.1527 193.856 -33.4613 196.343 -33.9616 198.464C-34.9455 202.715 -36.3381 205.585 -34.9122 206.508C-34.3285 206.882 -33.2195 206.159 -32.0354 204.512C-30.8513 202.873 -29.6589 200.302 -29.0168 197.274C-28.3581 194.247 -28.2997 190.969 -28.283 188.066C-28.2747 185.154 -28.2663 182.434 -28.258 180.371C-28.208 174.64 -27.4909 162.545 -28.8167 157.662C-27.224 157.52 -25.548 157.213 -23.8636 156.697C-23.1465 156.489 -22.4293 156.239 -21.7122 155.965C-22.4043 159.126 -22.988 163.901 -23.3549 168.784C-24.0137 177.277 -24.0303 186.044 -24.022 187.009C-24.0303 187.9 -24.047 188.798 -24.0554 189.696C-24.6557 189.962 -24.9976 190.304 -25.0143 190.744C-25.031 191.219 -24.6891 191.601 -24.0887 191.926C-24.1721 197.84 -24.2388 203.829 -23.9886 208.687C-23.6801 214.91 -22.8963 219.252 -21.2453 219.169C-19.8194 219.094 -19.5692 213.046 -19.4858 205.693C-19.4525 201.6 -19.4691 197.091 -19.4691 192.982C-13.6321 193.606 -4.40968 193.273 2.00269 193.198C3.84551 193.173 6.33875 193.124 9.04879 193.049C11.7588 192.974 14.7274 192.866 17.4624 192.55C20.2058 192.242 22.699 191.693 24.4918 191.085C26.293 190.487 27.3853 189.888 27.5271 189.738C27.8189 189.355 26.9601 189.497 25.3674 189.763Z" fill="white"/>
<path d="M77.6502 185.77C76.5829 185.545 75.4822 185.213 74.4149 184.763C73.3559 184.306 72.3386 183.724 71.4213 183.075C70.9544 182.759 70.5458 182.393 70.1288 182.043C69.7453 181.661 69.3784 181.328 68.9781 180.887C68.186 180.055 67.3438 179.182 66.3014 178.525C65.8512 178.242 65.2841 177.942 64.5587 177.743C63.8416 177.543 62.9493 177.501 62.0988 177.718C61.2399 177.917 60.3977 178.416 59.789 178.99C59.172 179.564 58.73 180.18 58.3548 180.746C57.6127 181.877 57.054 182.917 56.4786 183.432C55.9116 183.99 55.2111 184.364 54.3356 184.564C52.5928 184.988 50.5082 184.788 48.9739 184.805C48.8155 184.805 48.6654 184.805 48.5153 184.813C48.5153 184.797 48.5153 184.78 48.5069 184.763C48.4319 182.925 48.3485 181.07 48.2735 179.282C48.1234 175.63 47.9899 172.228 47.9149 169.64C47.7898 165.082 47.9149 157.304 47.7565 150.674C47.5897 144.045 47.1227 138.538 45.4467 138.504C44.0291 138.48 43.312 146.49 43.1536 154.75C42.9785 163.011 43.3704 171.504 43.4037 172.444C43.5121 176.021 43.6205 179.772 43.7289 183.374C43.7706 184.248 43.7456 185.204 43.9874 186.427C44.1125 187.026 44.321 187.683 44.6795 188.332C45.0381 188.981 45.5634 189.563 46.0471 189.962C47.031 190.769 47.8482 191.135 48.3402 191.476C48.8071 191.793 49.224 192.159 49.6076 192.558C50.3331 193.39 50.8834 194.33 51.217 195.236C51.5672 196.143 51.7506 197 51.8757 197.74C52.1425 199.213 52.1676 200.277 52.9514 200.635C53.2682 200.777 53.7102 200.56 54.1688 199.928C54.6358 199.304 55.0527 198.239 55.2028 196.859C55.3446 195.478 55.1444 193.781 54.4106 192.05C54.0437 191.185 53.5267 190.32 52.8597 189.505C52.7513 189.372 52.6345 189.239 52.5178 189.114C53.1348 189.131 53.7852 189.106 54.4857 189.014C55.8949 188.831 57.5209 188.241 58.8384 187.118C59.4888 186.577 60.0725 185.878 60.4728 185.229C60.8814 184.58 61.1815 183.965 61.4651 183.416C62.0071 182.301 62.5157 181.553 62.8993 181.345C63.1161 181.22 63.3496 181.145 63.6164 181.17C63.8916 181.195 64.2335 181.32 64.5837 181.519C65.1007 181.81 65.7428 182.326 66.4766 182.983C67.1937 183.64 68.1693 184.456 69.1866 185.105C70.2289 185.762 71.3713 186.311 72.5554 186.743C73.7395 187.176 74.9652 187.442 76.141 187.608C78.5091 187.924 80.7022 187.683 82.2448 187.267C83.7958 186.868 84.7214 186.344 84.8381 186.219C85.3884 185.471 81.9613 186.702 77.6502 185.77Z" fill="white"/>
<path d="M338.748 189.588C337.855 189.247 336.721 188.84 335.371 188.523C334.02 188.199 332.419 187.958 330.684 188.024C328.958 188.091 327.24 188.44 325.606 188.723C324.789 188.881 323.997 188.964 323.188 189.056L321.987 189.197C321.587 189.214 321.178 189.239 320.778 189.255C317.584 189.422 314.507 189.23 312.106 188.998C310.013 188.798 307.153 188.357 303.993 187.808C300.832 187.276 297.347 186.702 294.061 186.452C290.776 186.211 287.682 186.277 285.473 186.785C284.997 186.868 284.572 186.993 284.188 187.126C283.513 182.601 282.938 178.475 282.654 175.181C282.512 173.392 282.346 171.304 282.287 168.992C282.22 166.679 282.229 164.15 282.287 161.513C282.404 156.239 282.704 150.475 282.813 145.168C282.963 138.504 282.921 132.557 282.462 129.038C284.722 129.346 287.257 129.096 289.608 128.073C290.209 127.824 290.793 127.499 291.36 127.158C291.893 126.817 292.352 126.501 292.744 126.351C293.086 126.21 293.411 126.21 293.744 126.359C294.128 126.534 294.562 126.909 295.07 127.324C297.222 129.046 299.998 129.704 302.508 129.471C305.035 129.238 307.328 128.073 308.787 126.434C310.255 124.804 310.972 122.891 311.189 121.252C311.439 119.613 311.197 118.232 310.922 117.301C310.638 116.361 310.305 115.837 310.205 115.712C309.963 115.429 309.938 115.654 310.071 116.236C310.18 116.827 310.397 117.825 310.338 119.147C310.271 120.453 309.905 122.1 308.946 123.639C307.995 125.187 306.427 126.501 304.393 127.042C302.375 127.582 299.973 127.374 298.064 126.293C297.58 126.035 297.155 125.711 296.738 125.353C296.279 124.962 295.771 124.363 294.745 123.864C294.211 123.614 293.619 123.49 293.027 123.515C292.735 123.531 292.435 123.564 292.152 123.639C291.893 123.706 291.651 123.789 291.443 123.881C290.584 124.247 290.034 124.654 289.567 124.87C287.591 125.894 285.297 126.176 283.296 125.885C282.287 125.744 281.353 125.453 280.528 125.07C279.727 124.737 278.743 124.014 277.276 123.714C276.642 123.589 275.892 123.581 275.224 123.731C274.549 123.872 273.932 124.122 273.39 124.405C272.84 124.687 272.356 125.004 271.906 125.303C271.455 125.619 271.038 125.844 270.597 126.11C270.155 126.368 269.713 126.642 269.246 126.9C268.762 127.125 268.262 127.349 267.761 127.582C267.511 127.69 267.261 127.824 266.994 127.923C266.727 128.015 266.461 128.106 266.185 128.198C265.643 128.373 265.11 128.597 264.543 128.747C262.291 129.387 259.856 129.72 257.413 129.828C254.962 129.878 252.527 129.629 250.217 129.196C245.614 128.215 241.678 126.351 238.977 124.704C238.351 124.297 237.768 123.939 237.234 123.614C238.093 122.724 238.818 121.801 239.494 120.878C241.111 118.665 242.429 116.411 243.696 114.281C244.013 113.765 244.322 113.25 244.63 112.734L245.081 112.035L245.172 111.91C245.189 111.885 245.222 111.877 245.256 111.885C245.306 111.902 245.147 111.852 245.489 111.952C245.731 112.035 245.964 112.11 246.223 112.218C248.291 113.017 250.451 114.056 252.827 114.772C253.427 114.947 254.053 115.105 254.72 115.221C255.429 115.338 256.029 115.379 256.638 115.404C257.855 115.446 259.064 115.379 260.24 115.196C262.583 114.83 264.835 113.982 266.702 112.642C267.97 111.744 269.146 110.513 270.013 109.132C270.897 107.751 271.539 106.254 272.056 104.74C273.031 101.77 273.849 98.5342 274.04 94.924C274.124 93.1272 274.049 91.2306 273.623 89.2841C273.19 87.3459 272.364 85.3495 271.005 83.6275C270.68 83.1867 270.305 82.7874 269.913 82.4047C269.529 81.9971 269.104 81.6561 268.737 81.3566C267.987 80.766 267.378 80.2752 267.044 79.8676C266.727 79.46 266.652 79.2437 266.619 78.7779C266.611 78.3204 266.744 77.6632 267.011 76.9312C267.278 76.1825 267.653 75.3923 268.045 74.4439C268.428 73.5206 268.787 72.5723 269.104 71.599C269.738 69.6525 270.213 67.5978 270.388 65.4517C270.496 64.0292 270.471 62.5569 270.271 61.0928C270.963 60.9264 271.797 60.7018 272.765 60.4856C274.074 60.1695 275.675 59.9615 277.468 59.9365C279.252 59.895 281.245 60.1029 283.263 60.6769C285.281 61.2342 287.324 62.1409 289.142 63.4469C290.05 64.0958 290.893 64.8444 291.651 65.6763C292.427 66.5414 292.969 67.3317 293.803 68.5711C294.228 69.1617 294.737 69.8189 295.496 70.4095C296.238 71.0001 297.363 71.4493 298.389 71.441C299.39 71.441 300.123 71.2081 300.699 71.0667C301.266 70.9252 301.824 70.7921 302.392 70.684C304.635 70.2431 306.853 70.1017 308.887 70.1932C310.372 70.2598 312.114 70.4511 313.999 70.867C315.833 71.2913 317.81 72.0233 319.636 73.1463C321.445 74.2776 323.121 75.8415 324.038 77.8046C324.489 78.7862 324.714 79.8593 324.756 80.9407C324.772 82.0304 324.564 83.1367 324.247 84.2098C322.846 88.5105 320.778 92.3203 319.127 95.0322C317.451 97.7606 316.133 99.4576 316.008 99.782C315.692 100.481 316.867 99.5408 318.768 97.3364C320.653 95.1237 323.188 91.58 325.314 87.1379C325.848 86.0233 326.373 84.8088 326.732 83.4445C327.099 82.0969 327.232 80.5497 327.007 79.0357C326.782 77.5135 326.181 76.0577 325.364 74.8016C324.539 73.5456 323.521 72.4808 322.429 71.5824C320.228 69.7939 317.751 68.6044 315.333 67.889C312.94 67.1902 310.688 66.8575 308.695 66.7327C306.961 66.6163 304.893 66.6329 302.625 66.8991C302.058 66.9656 301.483 67.0572 300.891 67.157C300.34 67.2651 299.773 67.3733 299.198 67.4897C298.731 67.5729 298.447 67.5646 298.347 67.5147C298.214 67.4731 298.055 67.3733 297.805 67.1071C297.555 66.8409 297.28 66.4333 296.98 65.9508L296.504 65.1605L295.904 64.2871L295.287 63.4053C295.062 63.1308 294.82 62.8646 294.587 62.5985L293.869 61.7916L293.077 61.0679C290.951 59.1463 288.416 57.7405 285.848 56.8753C283.279 56.0102 280.67 55.6858 278.31 55.769C275.942 55.8272 273.84 56.4261 272.189 57.0916C271.372 57.4743 270.638 57.7987 270.063 58.2396C269.946 58.3228 269.829 58.4059 269.721 58.4808C269.112 56.4677 268.145 54.5462 266.769 52.8658C265.302 51.0774 263.267 49.5967 261.024 48.8148C258.789 48.0245 256.471 47.8748 254.361 48.0162C252.235 48.1493 250.259 48.5319 248.374 48.9146C246.481 49.3055 244.739 49.6716 242.954 49.9544C239.402 50.52 235.883 50.8029 232.473 50.8611C230.788 50.8861 229.054 50.8528 227.486 50.7696C226.752 50.728 226.185 50.6115 225.868 50.4618C225.71 50.3786 225.618 50.3287 225.485 50.1873C225.351 50.0542 225.201 49.8546 225.026 49.5801C224.859 49.3139 224.676 48.9811 224.468 48.6068C224.267 48.2325 223.992 47.8249 223.75 47.4422C223.233 46.6852 222.675 45.9865 222.058 45.3543C220.84 44.0815 219.456 43.0584 218.022 42.2764C215.153 40.7042 212.035 40.1053 209.258 40.3216C206.465 40.5462 204.096 41.4945 202.295 42.6591C200.469 43.807 199.202 45.1796 198.326 46.3774C196.608 48.8397 196.483 50.5533 196.825 50.6698C197.009 50.7446 197.342 50.2871 197.984 49.4969C198.626 48.7066 199.569 47.5753 201.028 46.444C202.479 45.3293 204.463 44.2146 206.906 43.7072C209.325 43.1915 212.21 43.3994 214.953 44.7137C216.329 45.346 217.63 46.2693 218.772 47.4006C219.323 47.9829 219.865 48.5985 220.298 49.2889C220.532 49.63 220.715 49.9877 220.932 50.3537C221.14 50.7446 221.357 51.2022 221.649 51.7096C221.949 52.2087 222.333 52.7743 222.892 53.2901C223.459 53.8058 224.151 54.1885 224.801 54.4131C226.119 54.8706 227.294 54.8956 228.312 54.9704C230.405 55.1035 232.556 55.1451 234.749 55.1035C239.118 55.0037 243.68 54.4963 248.166 53.5812C250.375 53.1487 252.527 52.7244 254.586 52.6163C256.646 52.4998 258.589 52.7327 260.215 53.5147C263.45 55.0536 265.56 58.9716 265.727 62.8231C265.835 64.7945 265.56 66.8159 265.026 68.804C264.76 69.7939 264.434 70.7755 264.059 71.7488C263.867 72.2312 263.676 72.7137 263.467 73.1879C263.25 73.687 263.017 74.211 262.792 74.785C262.358 75.9163 261.899 77.2223 261.908 78.8444C261.916 79.643 262.083 80.5164 262.433 81.3067C262.783 82.1053 263.284 82.7791 263.784 83.2948C264.785 84.3263 265.718 84.9252 266.336 85.4909C266.919 86.0565 267.47 86.6305 267.861 87.3293C268.712 88.6768 269.137 90.3073 269.312 91.9793C269.487 93.6513 269.404 95.3732 269.171 97.0369C268.937 98.7006 268.562 100.306 268.128 101.845C267.686 103.384 267.194 104.756 266.594 105.896C265.985 107.036 265.285 107.917 264.476 108.583C263.676 109.265 262.758 109.739 261.858 110.08C260.04 110.771 258.305 110.879 257.005 110.854C256.679 110.854 256.379 110.829 256.104 110.812C255.829 110.796 255.645 110.754 255.445 110.729C255.045 110.646 254.728 110.588 254.511 110.513C252.51 109.964 250.409 108.966 248.057 108.034C247.757 107.917 247.449 107.801 247.115 107.693C246.948 107.635 246.798 107.576 246.606 107.526C246.34 107.452 246.014 107.352 245.748 107.31L244.897 107.219C244.614 107.194 244.347 107.277 244.072 107.302C243.805 107.36 243.53 107.435 243.271 107.535C243.046 107.693 242.796 107.818 242.596 108.026L241.97 108.6C241.778 108.808 241.612 109.065 241.437 109.307C241.203 109.623 241.061 109.872 240.87 110.155C240.528 110.696 240.202 111.228 239.894 111.752C238.643 113.84 237.442 115.87 236.108 117.742C235.449 118.673 234.749 119.547 234.024 120.345C233.273 121.127 232.606 121.685 231.622 122.35C229.788 123.623 227.861 124.538 225.793 125.045C223.725 125.561 221.507 125.694 219.223 125.627C214.778 125.511 210.234 124.463 206.314 122.708C202.47 121.027 199.402 117.999 197.025 114.589C195.85 112.875 194.841 111.07 194.057 109.207C193.857 108.749 193.682 108.275 193.506 107.809C193.356 107.36 193.248 106.936 193.115 106.495C192.914 105.613 192.773 104.723 192.739 103.808C192.589 100.148 193.723 96.3964 194.924 92.7862C195.549 90.9395 196.158 89.1344 196.75 87.3708C197.034 86.4641 197.317 85.5741 197.559 84.659L197.709 84.1266C197.767 83.9187 197.817 83.7107 197.867 83.5028C197.968 83.0868 198.068 82.6709 198.168 82.255C198.359 81.4398 198.551 80.6246 198.743 79.8177C197.576 79.6014 196.425 79.3602 195.283 79.094C195.141 79.0607 194.999 79.0274 194.866 78.9858L194.59 78.886L194.265 78.7612C194.04 78.6947 193.84 78.5699 193.631 78.4784C192.798 78.0708 192.039 77.5551 191.355 76.9728C190.013 75.7832 189.012 74.3358 188.437 72.8551C187.244 69.9021 187.861 66.8991 188.895 64.7446C189.412 63.6549 190.038 62.7565 190.646 62.0162C191.272 61.2925 191.864 60.7102 192.381 60.2693C193.406 59.3792 194.057 58.9051 193.94 58.564C193.873 58.356 192.998 58.3394 191.538 58.9716C190.104 59.6038 188.061 60.968 186.452 63.5384C185.643 64.8112 184.976 66.3834 184.659 68.2134C184.417 69.5361 184.417 71.0001 184.684 72.4891C183.533 72.148 182.199 71.9983 180.773 72.1896C178.047 72.5307 175.403 74.0779 173.536 76.0661C171.726 77.9876 170.117 80.5247 170.275 83.3364C170.308 84.318 170.817 85.6073 171.576 86.4558C172.31 87.3209 173.102 87.9282 173.569 88.602C174.078 89.3007 174.444 90.3239 174.928 91.4053C175.395 92.5033 176.162 93.5847 177.038 94.3334C178.806 95.9056 180.94 96.4213 182.441 96.413C183.967 96.3964 184.859 95.9472 184.976 95.839C185.101 95.6976 184.993 95.6061 184.709 95.5562C184.426 95.5146 183.975 95.5063 183.4 95.4148C182.266 95.2734 180.565 94.741 179.189 93.4932C178.505 92.8777 177.947 92.0957 177.596 91.2473C177.229 90.3655 177.021 89.1593 176.454 87.8117C176.179 87.1462 175.72 86.4225 175.312 85.9318C174.903 85.416 174.536 85.0167 174.286 84.6673C174.027 84.318 173.886 84.0601 173.819 83.8355C173.744 83.6026 173.719 83.3697 173.719 83.1201C173.727 82.6959 173.902 82.0886 174.278 81.4231C174.653 80.7577 175.228 80.0672 175.945 79.3768C177.355 78.0126 179.181 76.9894 180.898 76.6234C182.591 76.2407 184.242 76.4653 185.443 76.7066C185.777 76.7648 186.085 76.8313 186.377 76.8813C186.435 76.9811 186.494 77.0892 186.56 77.189C187.186 78.1457 187.936 79.0607 188.82 79.8925C189.704 80.7244 190.73 81.4564 191.864 82.0553C192.147 82.2051 192.431 82.3631 192.739 82.4796L193.348 82.7291C193.473 82.7791 193.59 82.8206 193.707 82.8539C193.715 82.9454 193.64 83.0868 193.615 83.195L193.556 83.3697L193.34 84.0851C193.006 85.1165 192.648 86.173 192.256 87.2461C191.48 89.4006 190.621 91.6382 189.854 94.0423C189.095 96.4463 188.403 99.0167 188.211 101.828C188.145 103.234 188.145 104.682 188.387 106.137L188.57 107.227C188.653 107.585 188.762 107.942 188.862 108.308C188.97 108.658 189.062 109.04 189.187 109.373L189.554 110.363C191.655 115.562 194.949 120.462 199.685 124.147C200.869 125.054 202.195 125.877 203.529 126.534C204.263 126.9 205.014 127.225 205.772 127.524C203.738 128.805 201.128 130.402 198.059 131.583C196.15 132.324 194.073 132.823 191.93 132.948C189.804 133.081 187.653 132.823 185.777 132.099C184.834 131.742 183.992 131.276 183.2 130.718C182.766 130.419 182.208 129.97 181.324 129.654C180.415 129.321 179.322 129.412 178.572 129.687C177.046 130.269 176.279 131.068 175.545 131.559C174.803 132.108 174.078 132.615 173.402 133.072C172.927 133.389 172.401 133.73 171.851 134.062C171.651 133.164 171.393 132.307 171.042 131.542C170.642 130.652 170.1 129.87 169.475 129.279C168.849 128.689 168.157 128.298 167.54 128.173C167.248 128.09 166.965 128.09 166.731 128.098C166.498 128.098 166.306 128.156 166.156 128.231C165.847 128.364 165.714 128.539 165.706 128.747C165.672 129.138 166.439 129.354 167.04 130.161C167.665 130.91 168.207 132.407 168.349 134.453C168.382 134.936 168.399 135.435 168.391 135.959C166.931 136.674 165.347 137.348 163.654 137.914C159.693 139.261 155.224 139.894 151.188 139.428C147.127 139.029 143.625 137.698 141.207 136.45C140.456 136.084 139.814 135.743 139.239 135.443C139.989 135.019 140.732 134.553 141.465 134.029C142.649 133.164 143.792 132.133 144.784 130.893C145.776 129.654 146.602 128.19 147.102 126.576L147.286 125.969C147.336 125.752 147.369 125.519 147.411 125.295L147.519 124.613L147.544 123.939L147.561 123.265L147.511 122.616C147.486 122.175 147.419 121.759 147.336 121.343C147.027 119.688 146.477 118.166 145.876 116.727C145.284 115.296 144.609 113.915 144.092 112.642C143.5 111.02 143.675 111.411 143.834 111.195C144.142 110.979 144.717 110.729 145.343 110.513C145.977 110.297 146.677 110.105 147.402 109.906C148.862 109.515 150.413 109.115 152.005 108.533C153.581 107.942 155.266 107.16 156.742 105.771C157.109 105.43 157.459 105.039 157.759 104.615C157.917 104.407 158.067 104.191 158.193 103.958L158.393 103.617L158.551 103.309C158.976 102.494 159.293 101.629 159.535 100.764C160.486 97.2781 160.177 93.8676 159.593 90.7897C158.985 87.687 158.001 84.684 156.491 81.9472C155.016 79.2188 152.939 76.7149 150.271 75.0262C149.929 74.8266 149.604 74.6103 149.254 74.4356C148.903 74.2693 148.545 74.0946 148.195 73.9282C147.486 73.6537 146.677 73.3709 146.127 73.2211C145.843 73.138 145.585 73.0548 145.376 72.9799C145.268 72.9383 145.176 72.905 145.093 72.8634C145.018 72.8302 144.918 72.7719 144.934 72.7886C144.918 72.7803 144.909 72.7636 144.901 72.747C144.901 72.7387 144.901 72.722 144.901 72.7137C144.901 72.7054 144.901 72.722 144.901 72.7054L144.926 72.6222L144.984 72.4309L145.159 71.9567C145.401 71.3245 145.668 70.7006 145.96 70.0851C146.544 68.8623 147.227 67.6644 147.878 66.4499C149.195 64.0292 150.204 61.5586 150.771 59.4291C151.897 55.1202 151.889 52.217 151.955 51.277C152.039 49.4303 152.022 47.5337 151.797 45.5872C151.572 43.649 151.096 41.6858 150.346 39.8225C150.271 39.6312 150.179 39.4398 150.096 39.2568C150.254 39.1487 150.413 39.0406 150.579 38.9241C152.005 37.9176 154.157 36.7363 156.958 35.9461C159.727 35.1725 163.162 34.6983 166.339 34.873C169.541 35.0311 172.518 36.0709 174.578 37.7013C175.12 38.1172 175.695 38.6329 176.246 39.2568C176.387 39.4149 176.521 39.5729 176.646 39.7476L176.854 40.0138L177.154 40.5129C177.363 40.829 177.546 41.2283 177.746 41.611C177.93 41.9853 178.113 42.3679 178.305 42.7589C179.147 42.3846 180.098 41.8356 180.907 41.4196C181.524 41.0869 182.158 40.7542 182.8 40.4131C183.95 39.8142 185.134 39.2236 186.344 38.7078C188.762 37.6763 191.288 36.9443 193.648 36.7862C196 36.6032 198.118 36.9526 199.619 37.4517C201.12 37.9425 202.02 38.5165 202.229 38.5498C202.462 38.5997 202.479 38.4915 202.287 38.2503C202.103 38.0091 201.712 37.6347 201.111 37.2105C199.919 36.362 197.792 35.4137 195.124 35.1059C193.798 34.9562 192.347 34.9395 190.855 35.1059C189.362 35.2723 187.853 35.605 186.369 36.0542C184.884 36.4951 183.442 37.0524 182.058 37.6431C181.424 37.9176 180.798 38.1921 180.181 38.4666L179.998 38.5414L179.906 38.5747C179.848 38.5914 179.781 38.6329 179.748 38.6246C179.706 38.5082 179.698 38.4583 179.614 38.3252C179.589 38.2836 179.598 38.2836 179.539 38.2004L179.289 37.8261C179.131 37.5765 178.947 37.3519 178.772 37.119C178.063 36.2206 177.296 35.4719 176.554 34.8564C175.57 34.0578 174.328 33.2093 172.827 32.5106C171.326 31.8035 169.608 31.2711 167.782 30.9633C165.964 30.6472 164.055 30.5557 162.187 30.6472C160.327 30.7387 158.459 30.98 156.683 31.4458C154.915 31.9033 153.248 32.5522 151.814 33.384C150.413 34.1992 149.254 35.1891 148.453 36.179C147.052 33.9663 145.334 31.9948 143.5 30.2812L142.449 29.3079L141.365 28.3846C140.673 27.7857 139.848 27.1285 139.005 26.5795C137.313 25.4648 135.462 24.5831 133.527 23.9758C132.56 23.6763 131.567 23.4434 130.567 23.2854C129.691 23.1356 128.657 22.9942 127.673 22.936C126.306 22.8611 124.913 22.9027 123.521 23.0941C123.763 22.3953 123.946 21.5718 124.021 20.6401C124.171 18.7352 123.796 16.406 122.687 14.1018C122.145 12.9372 121.378 11.8142 120.435 10.7494C119.969 10.2087 119.426 9.71796 118.868 9.23549C118.568 9.01089 118.267 8.78629 117.959 8.56169C117.65 8.34541 117.325 8.1624 117.008 7.96276C114.398 6.44048 111.255 5.65854 108.136 5.64191C105.001 5.61695 101.874 6.29075 99.0137 7.50524C97.6044 8.12081 96.4954 8.66983 95.6532 8.71974C95.253 8.75301 94.8944 8.69479 94.4275 8.5201C93.9688 8.34541 93.4602 8.05426 92.9265 7.70489C90.6584 6.21588 88.3153 4.85997 86.1139 3.78689C82.8952 2.23134 78.259 0.401273 72.8973 0.0602161C70.2373 -0.12279 67.4438 0.110127 64.7505 0.775604C62.0654 1.4494 59.4972 2.61399 57.3542 4.17786C56.2868 4.96811 55.3195 5.84987 54.494 6.78986C53.6602 7.73816 52.9847 8.7447 52.4094 9.75123C51.2837 11.7809 50.6666 13.8106 50.4498 15.5825C49.9912 19.1511 50.9501 21.3971 51.1086 21.6882C51.317 22.0376 51.3671 21.8047 51.3087 21.1392C51.242 20.4737 51.1419 19.3507 51.2587 17.8867C51.3754 16.4226 51.759 14.6175 52.6429 12.7459C53.4934 10.8659 54.8609 8.93602 56.6787 7.33887C58.5132 5.75837 60.848 4.50228 63.3829 3.75362C65.9179 2.99664 68.6529 2.73044 71.2879 2.88018C76.5829 3.15469 81.4193 5.18439 84.9215 7.05605C86.4558 7.87126 88.2319 8.96098 90.1164 10.2919C91.0587 10.9241 92.1594 11.8724 93.9522 12.3965C94.8444 12.6544 95.8951 12.6793 96.7623 12.5296C97.6461 12.3882 98.4216 12.1137 99.1054 11.8475C99.8058 11.573 100.39 11.3234 100.973 11.1238C101.565 10.9158 102.166 10.7245 102.783 10.5748C104.008 10.267 105.276 10.0673 106.535 10.0008C109.053 9.85937 111.563 10.2503 113.673 11.1986C114.732 11.6728 115.691 12.2634 116.483 12.9372C117.283 13.6276 118.001 14.4013 118.559 15.2414C119.693 16.9134 120.319 18.6853 120.569 20.2075C120.827 21.6217 120.777 22.7946 120.727 23.7179C119.051 24.2337 117.434 25.0073 116.016 26.0388C114.34 27.2533 112.947 28.7589 111.813 30.3727C110.896 31.7037 109.887 32.993 108.887 33.933C108.636 34.1659 108.395 34.3656 108.203 34.4903C108.094 34.5652 108.028 34.5902 107.969 34.6318C107.953 34.6401 107.961 34.6318 107.953 34.6318L107.986 34.7316L108.011 34.8314C108.094 35.1059 107.936 34.5902 107.936 34.6318L107.886 34.6484L107.778 34.6734C107.194 34.8148 106.877 34.8397 106.552 34.7316C105.851 34.5735 104.45 33.4921 103.183 32.5272C101.865 31.529 100.531 30.5474 99.1554 29.6157C97.7712 28.6841 96.2786 27.8023 94.6859 27.1036C93.0933 26.4048 91.4005 25.939 89.7745 25.6728C88.1402 25.4066 86.5642 25.3151 85.0549 25.2984C84.2794 25.2901 83.5957 25.2984 82.8535 25.3151C82.1197 25.3317 81.3693 25.365 80.6271 25.4399C77.6586 25.706 74.7568 26.4963 72.3386 27.8189C69.887 29.075 67.9358 30.8385 66.3932 32.5022C64.8589 34.1659 63.6248 35.8379 62.6075 37.4268C60.5979 40.6044 59.5722 43.4743 59.2053 45.479C58.8384 47.5004 59.0385 48.6317 59.4305 48.6983C59.8057 48.7648 60.2643 47.384 61.4234 45.1214C62.5741 42.8671 64.492 39.7143 67.5772 36.4369C68.3444 35.63 69.1866 34.7649 70.0955 34.0245C70.9794 33.2426 71.98 32.5438 73.064 31.9283C75.2237 30.6805 77.7837 29.9069 80.6188 29.7072C81.3276 29.649 82.0614 29.6324 82.8118 29.6324C83.5623 29.6324 84.3795 29.649 85.1299 29.674C86.6642 29.7322 88.1902 29.8736 89.6578 30.198C91.1254 30.5308 92.5263 31.0299 93.8938 31.7702C95.2697 32.4856 96.6372 33.4422 98.0381 34.4571C99.4473 35.4719 100.756 36.5533 102.357 37.7096C103.166 38.2669 104.142 38.9324 105.534 39.2984C106.227 39.4565 106.969 39.5064 107.636 39.4398C107.969 39.4066 108.278 39.3483 108.586 39.2901L109.02 39.182C109.162 39.1487 109.295 39.1154 109.529 39.0239C110.346 38.7161 110.879 38.3418 111.346 37.9758C111.813 37.6098 112.222 37.2354 112.589 36.8528C113.339 36.0958 113.973 35.3222 114.582 34.5319C114.882 34.1327 115.174 33.7334 115.466 33.3258C115.616 33.1012 115.741 32.9431 115.858 32.7851L116.224 32.3109L116.583 31.8284L116.992 31.4042C117.267 31.1214 117.517 30.8136 117.834 30.5807C120.152 28.4678 123.304 27.5195 126.573 27.5611C127.39 27.586 128.207 27.6443 129.049 27.769C129.958 27.9021 130.717 28.0352 131.501 28.2432C133.06 28.6508 134.544 29.2913 135.912 30.1148C136.596 30.5391 137.238 30.98 137.863 31.4957C138.505 32.053 139.197 32.5771 139.798 33.1511C141.065 34.2574 142.166 35.4636 143.183 36.6864C145.159 39.157 146.485 41.8439 147.002 44.6888C147.277 46.1029 147.386 47.5503 147.411 48.9894C147.419 50.4369 147.344 51.8926 147.211 53.2568C146.952 56.0102 146.36 58.4891 145.493 60.6769C144.859 62.3156 143.959 63.9876 142.883 65.9342C142.358 66.9157 141.799 67.9555 141.29 69.1118C141.04 69.6941 140.798 70.2764 140.581 70.9086C140.523 71.075 140.465 71.2663 140.406 71.4743C140.34 71.7238 140.273 72.0316 140.24 72.3061C140.165 72.8801 140.198 73.4624 140.34 74.028C140.648 75.2176 141.524 76.2158 142.633 76.823C143.55 77.3221 144.284 77.5218 144.951 77.7297L145.41 77.8712L145.785 78.0126C146.035 78.1124 146.293 78.1789 146.535 78.312C146.777 78.4368 147.027 78.5366 147.269 78.678L147.978 79.1106C149.829 80.375 151.405 82.3382 152.589 84.6507C153.765 86.9799 154.59 89.6168 155.057 92.3619C155.524 95.0821 155.583 97.8438 154.765 100.148C154.665 100.439 154.549 100.714 154.424 100.988L154.223 101.396L154.048 101.687C153.79 102.07 153.448 102.427 153.014 102.76C152.139 103.425 150.921 103.966 149.587 104.407C148.253 104.856 146.802 105.214 145.259 105.671C144.484 105.904 143.683 106.146 142.825 106.512C142.391 106.703 141.941 106.911 141.465 107.219C141.04 107.468 140.348 108.026 139.923 108.616C139.489 109.215 139.139 109.922 139.114 110.663L139.072 111.22C139.081 111.403 139.114 111.594 139.131 111.777C139.172 112.152 139.206 112.551 139.297 112.759C139.581 113.774 139.914 114.464 140.24 115.213C140.89 116.635 141.524 117.916 142.041 119.189C142.558 120.445 142.958 121.676 143.108 122.799C143.183 123.357 143.2 123.889 143.15 124.371C143.108 124.812 142.966 125.37 142.775 125.894C142.024 127.973 140.423 129.753 138.539 131.126C136.654 132.507 134.494 133.513 132.393 134.245C128.174 135.693 124.054 135.992 120.777 135.568C117.467 135.169 115.065 133.946 113.514 132.939C112.764 132.399 112.147 131.974 111.738 131.658C111.305 131.359 110.996 131.242 110.838 131.342C110.729 131.417 110.796 131.708 111.038 132.224C111.263 132.748 111.747 133.43 112.464 134.245C113.923 135.826 116.691 137.681 120.536 138.488C124.355 139.295 129.108 139.212 134.069 137.664C134.995 137.373 135.92 137.04 136.854 136.633C137.254 137.332 137.913 138.147 138.88 139.02C141.065 140.975 144.851 142.93 149.404 143.637C151.955 144.07 154.724 144.061 157.475 143.679C157.592 144.211 157.667 144.818 157.651 145.459C157.617 146.365 157.575 147.347 157.534 148.387C157.5 149.452 157.467 150.575 157.434 151.731C157.359 154.052 157.275 156.539 157.192 159.051C157 164.059 156.683 169.125 156.366 173.084C156.041 177.069 155.808 179.947 155.758 180.521C155.616 182.126 155.474 183.765 155.332 185.412C154.248 185.354 153.148 185.296 152.014 185.246C145.86 184.98 138.905 185.138 132.685 187.001C131.909 187.209 131.151 187.475 130.408 187.758C129.658 188.024 128.924 188.315 128.29 188.582C127.006 189.122 125.906 189.497 125.055 189.522C124.63 189.538 124.288 189.488 123.913 189.364C123.537 189.239 123.129 189.014 122.695 188.731C121.836 188.174 120.919 187.409 119.868 186.818C119.61 186.677 119.343 186.535 119.001 186.394C118.684 186.269 118.376 186.169 118.067 186.111C117.467 185.986 116.9 185.953 116.366 186.011C115.632 186.069 114.974 186.286 114.423 186.594C113.364 185.071 112.322 183.724 111.613 182.418C109.879 179.282 109.504 175.563 109.337 172.718C109.078 167.602 109.245 158.693 109.37 151.165C109.429 146.723 109.445 142.73 109.12 140.16C110.312 140.16 111.363 140.002 112.18 139.744C113.715 139.253 114.432 138.463 114.24 137.673C114.073 136.966 112.897 136.783 111.23 136.5C109.562 136.225 107.336 135.776 105.168 134.728C104.067 134.195 102.841 133.463 101.398 132.765C99.9809 132.083 98.2298 131.4 96.2536 131.4C95.2863 131.392 94.2857 131.575 93.4935 131.85C92.6764 132.116 92.0093 132.424 91.4089 132.698C90.2332 133.256 89.4076 133.58 88.5404 133.813C87.0728 134.22 84.9548 134.42 82.7451 134.054C80.5521 133.721 78.2256 132.773 76.5495 131.567C75.7157 130.968 75.0736 130.319 74.615 129.67C74.1647 129.046 73.8645 128.356 73.6644 127.757C73.4643 127.191 73.3559 126.667 73.2225 126.218C73.9479 125.453 74.5983 124.579 75.107 123.623C75.624 122.641 76.0159 121.585 76.3161 120.537C76.4745 120.012 76.5996 119.48 76.7247 118.989L76.9081 118.291C76.9498 118.166 76.9498 118.174 76.9581 118.149C76.9665 118.116 76.9915 118.091 76.9998 118.058C77.0415 117.999 77.0916 117.958 77.1499 117.925L77.6419 117.642C78.1339 117.367 78.6259 117.101 79.1178 116.818C80.1518 116.228 81.2275 115.545 82.2365 114.73C84.2878 113.133 86.0555 110.979 87.3647 108.558C87.7149 107.959 87.9567 107.319 88.2569 106.686C88.5404 106.054 88.7405 105.389 88.9824 104.731C89.416 103.425 89.7495 102.086 90.008 100.697C90.5167 97.927 90.6667 94.9323 89.983 91.8795C89.6411 90.3572 89.0658 88.8349 88.2236 87.4291C87.8066 86.722 87.298 86.0565 86.781 85.441C86.2723 84.8587 85.8471 84.4012 85.5886 84.0268C85.4635 83.8438 85.3801 83.6858 85.3384 83.5693C85.2884 83.4529 85.2717 83.3447 85.255 83.1783C85.2217 82.8373 85.2884 82.3049 85.3968 81.6228C85.6302 80.1671 85.797 78.6697 85.8971 77.189C86.0639 74.2194 86.0472 71.2081 85.6052 68.1801C85.1633 65.1605 84.4212 62.0661 82.7034 59.1796C82.3198 58.4475 81.7528 57.7821 81.2442 57.0999C80.6438 56.4844 80.0184 55.8023 79.4264 55.3447C78.2173 54.3299 76.9081 53.4065 75.4739 52.6662C72.6304 51.1689 69.3951 50.3953 66.2598 50.3953C63.1161 50.3869 60.1059 51.0524 57.3708 52.0174C56.9372 52.1754 56.5036 52.3335 56.0784 52.4915C56.045 52.4832 56.0617 52.4416 56.0533 52.4083L56.0033 51.668C55.8032 48.9063 55.2945 45.9948 53.877 43.3578C53.1849 42.0435 52.2426 40.829 51.1336 39.8391C50.5832 39.34 49.9745 38.8908 49.3825 38.5248C48.7988 38.1671 48.2151 37.8261 47.598 37.5432C45.1632 36.362 42.5282 35.8047 40.0516 35.7963C37.5667 35.7797 35.2152 36.2372 33.1139 37.0441C31.7881 37.5432 30.3538 38.2087 28.9947 39.1986C27.6188 40.1719 26.4514 41.4612 25.4674 42.7506C24.4752 44.0483 23.6163 45.3792 22.7407 46.7185C22.3071 47.384 21.8652 48.0578 21.4232 48.7399L21.1064 49.2224C21.0897 49.2556 21.048 49.2889 21.0063 49.3388C20.9146 49.4303 20.7645 49.5385 20.5644 49.63C20.3642 49.7298 20.1141 49.8213 19.8556 49.8795C19.6972 49.9211 19.6972 49.9128 19.5971 49.9211C19.5137 49.9211 19.4136 49.9294 19.2969 49.9211C18.8299 49.8962 18.0878 49.6882 17.1205 49.4636C15.0275 48.9645 12.6677 49.1059 10.6164 49.8046C8.53179 50.4868 6.65561 51.6597 5.07128 53.1487C3.47861 54.6127 2.1778 56.5177 1.31059 58.4808C-0.473869 62.4654 -0.81575 66.7993 -0.607285 70.9003C-0.557251 71.8902 -0.457191 73.0548 -0.290421 74.053C-0.131989 75.0762 0.0514603 76.0577 0.243248 77.031C0.618484 78.9775 1.0104 80.8908 1.32726 82.7624C1.48569 83.6941 1.61077 84.6174 1.67748 85.4659L1.71084 85.9983C1.71084 86.0149 1.71084 86.0149 1.71084 86.0149L1.65247 86.0233L1.54407 86.0399C1.40231 86.0648 1.25221 86.0732 1.11046 86.1064L0.234917 86.2895C-0.932487 86.5806 -2.09989 87.0464 -3.18391 87.7535C-4.26792 88.4606 -5.24353 89.4338 -5.93563 90.5818C-6.62773 91.7297 -7.01965 93.0108 -7.16975 94.2253C-7.21978 94.5331 -7.23645 94.8325 -7.24479 95.132C-7.26147 95.4314 -7.26981 95.7475 -7.26147 95.9805C-7.25313 96.4879 -7.23646 97.0036 -7.2031 97.5443C-7.12805 98.6091 -6.96962 99.7155 -6.66943 100.797C-6.08573 102.976 -4.96836 104.923 -3.70924 106.528C-3.08384 107.352 -2.40842 108.084 -1.71632 108.783C-1.38277 109.14 -1.01588 109.456 -0.673996 109.797L-0.407158 110.047L-0.0485992 110.346C0.184875 110.554 0.451714 110.712 0.701874 110.887C2.78651 112.177 4.91285 112.468 6.80571 112.592C8.7069 112.701 10.4914 112.567 12.0924 112.476L12.6761 112.451H12.8178L12.8512 112.443C12.9012 112.434 12.9512 112.434 13.0096 112.443C13.068 112.451 13.0763 112.518 13.1013 112.559L13.1347 112.634L13.143 112.659L13.1764 112.784L13.2431 113.067C13.61 114.581 14.0186 116.144 14.5606 117.625C15.1109 119.106 15.7613 120.553 16.6786 121.851C17.1039 122.475 17.7126 123.19 18.3296 123.689C18.9467 124.205 19.5971 124.604 20.2225 124.945C21.4816 125.603 22.649 126.027 23.7997 126.401C24.9421 126.767 26.0428 127.017 27.0768 127.2C29.1448 127.557 30.9626 127.616 32.4218 127.524C33.4308 127.458 34.2563 127.333 34.9234 127.183C34.8233 129.928 34.7816 132.981 34.7566 136.059C34.7399 145.908 34.7149 156.031 34.7149 157.154C34.6732 161.422 34.4814 165.881 34.248 170.156C34.1229 172.286 33.9895 174.382 33.8727 176.387C33.731 178.358 33.5392 180.197 33.2723 181.86C32.7637 185.213 31.8548 187.758 31.0876 189.547C30.3122 191.318 29.7368 192.466 30.3038 193.115C30.5373 193.381 31.0626 193.29 31.8548 192.866C32.5886 192.4 33.6059 191.576 34.5065 190.295C35.4237 189.031 36.2742 187.359 36.908 185.446C37.5417 183.532 37.9753 181.394 38.2672 179.173C38.559 176.952 38.6924 174.673 38.8258 172.419C38.9593 170.148 39.0593 167.869 39.126 165.656C39.2678 161.239 39.3095 157.121 39.3345 153.993C39.4095 148.487 39.6097 139.095 39.2928 131.101C39.1177 126.617 38.8092 122.575 38.2755 119.896C39.3678 120.037 40.3851 120.087 41.5025 120.037C42.6532 119.979 43.8707 119.755 44.9714 119.272C46.1054 118.773 47.0227 118.058 47.6898 117.251C47.9899 116.885 48.2985 116.444 48.557 115.911C48.8155 115.404 49.0156 114.697 49.0906 114.181C49.124 113.957 49.1573 113.732 49.1907 113.499C49.199 113.441 49.2074 113.474 49.2157 113.458C49.2324 113.449 49.2407 113.449 49.2574 113.458C49.2824 113.466 49.2824 113.483 49.2824 113.483L49.7577 113.657C49.9662 113.732 50.208 113.824 50.4832 113.915C51.0335 114.09 51.759 114.273 52.6095 114.223C53.4851 114.173 54.2856 113.865 54.8859 113.466C55.4946 113.075 55.9449 112.601 56.2952 112.118C57.0039 111.12 57.1957 110.163 57.2374 109.448C57.2708 108.001 56.7788 107.252 55.9783 107.077C55.3862 106.944 54.8442 107.66 54.2439 108.508C53.9437 108.924 53.6018 109.323 53.2599 109.54C52.9014 109.797 52.5261 109.847 52.4511 109.756C52.401 109.723 52.2509 109.681 51.9674 109.556L51.4504 109.323L51.1252 109.182C50.9918 109.124 50.9251 109.09 50.6916 109.015C49.0823 108.408 47.2144 108.55 46.022 109.623C45.48 110.114 45.0798 110.729 44.8546 111.411C44.7379 111.752 44.6628 112.102 44.6045 112.451C44.5795 112.617 44.5628 112.792 44.5378 112.958L44.5044 113.216C44.4711 113.532 44.4377 113.715 44.4127 113.79C44.3877 113.882 44.346 113.982 44.2959 114.073C44.0791 114.464 43.6956 114.747 43.6289 114.797C42.8117 115.396 41.2023 115.504 39.5013 115.313C37.8419 115.155 36.4744 114.739 35.4821 114.231C34.4814 113.724 33.5475 112.975 32.672 112.551C31.8048 112.118 31.0126 112.027 30.3789 112.576C29.8452 113.033 29.9286 113.94 30.5623 115.155C30.8875 115.762 31.3712 116.444 32.0716 117.134C32.7637 117.825 33.7393 118.499 34.8066 118.956C35.0401 119.056 35.2736 119.147 35.5154 119.231C35.2569 120.894 35.0902 123.223 34.9734 125.919C33.9311 125.835 32.4885 125.719 30.6957 125.42C28.8029 125.078 26.5348 124.504 24.1166 123.431C22.9075 122.891 21.64 122.258 20.6728 121.41C20.1724 120.977 19.8389 120.553 19.4553 119.913C19.0968 119.297 18.7549 118.632 18.4714 117.9C17.896 116.444 17.4791 114.805 17.1205 113.033C17.0205 112.543 16.9204 112.052 16.812 111.561C16.6119 110.787 16.4534 109.939 15.9531 109.398C15.4195 108.824 14.6273 108.633 13.8018 108.55C13.5933 108.525 13.3848 108.533 13.168 108.516C12.9679 108.508 12.7011 108.516 12.601 108.516L11.8255 108.525C9.82427 108.583 7.89806 108.649 6.08859 108.375C5.18803 108.242 4.33749 108.017 3.62872 107.676C3.27016 107.51 2.96996 107.302 2.69479 107.077L2.49467 106.903L2.22783 106.636L1.68582 106.104C0.276604 104.665 -0.965843 103.084 -1.74133 101.379C-2.53349 99.6739 -2.75864 97.8438 -2.72528 95.681C-2.7086 93.8676 -2.01651 92.5033 -0.682335 91.6216C0.0014267 91.189 0.835289 90.8729 1.75253 90.7066C1.86927 90.6899 1.97767 90.6566 2.09441 90.6483L2.6114 90.5818C3.20345 90.5735 3.66206 90.3988 4.17905 90.299L4.56263 90.2074C4.67103 90.1575 4.7711 90.091 4.8795 90.0328C5.08797 89.8913 5.27975 89.7167 5.45486 89.5253C5.79674 89.1427 5.99686 88.6685 6.16364 88.1694C6.29705 87.6537 6.3721 87.1047 6.38044 86.5556V85.782L6.35542 85.2746C6.31373 84.6174 6.23868 83.9935 6.16364 83.3863C5.99686 82.1635 5.79674 80.9906 5.57993 79.826C5.15467 77.5135 4.67103 75.2259 4.34583 73.0714C4.27077 72.5224 4.21241 72.0482 4.17905 71.5158C4.13736 70.9752 4.11235 70.4261 4.09567 69.8938C4.06232 68.8207 4.07899 67.7559 4.16238 66.7078C4.32082 64.6282 4.7294 62.6317 5.4632 60.8516C6.19699 59.0548 7.20596 57.5575 8.57349 56.3596C9.90766 55.1784 11.492 54.3299 13.0596 54.0138C13.8435 53.8557 14.619 53.8225 15.3611 53.9057C16.0532 53.9556 16.9287 54.2717 18.1962 54.4879C18.8216 54.5878 19.5637 54.6543 20.3642 54.5379C20.7978 54.4713 21.1064 54.3881 21.4149 54.2966C21.7318 54.2051 22.0486 54.0887 22.3655 53.9472C22.9909 53.6727 23.6246 53.2901 24.2083 52.7494C24.5002 52.4832 24.7753 52.1671 25.0088 51.8177L25.4091 51.2022C27.452 48.0994 29.1864 45.113 31.0543 43.4743C32.8888 41.8688 35.3987 40.9871 37.3749 40.6127C39.4179 40.2467 41.144 40.3632 42.4114 40.6044C43.6872 40.854 44.5378 41.1701 44.9464 41.3531C45.4467 41.5444 45.9136 41.794 46.3889 42.0518L47.081 42.4678C47.2812 42.6175 47.4896 42.7423 47.6814 42.9003C48.4485 43.5076 49.1073 44.2396 49.6243 45.113C50.675 46.8516 51.1919 49.0643 51.3921 51.4101C51.4504 52.0839 51.4671 52.3168 51.5422 53.8474C51.5755 54.4713 51.6255 55.0869 51.7339 55.6442C51.8674 56.1849 52.0675 56.6341 52.351 56.9419L52.843 57.3661L52.9847 57.4826C52.9931 57.5907 53.0765 57.5658 53.1182 57.6074C53.2182 57.6406 53.3266 57.6656 53.4267 57.6906L54.0521 57.807C54.2689 57.832 54.519 57.8403 54.7692 57.832C55.0527 57.7571 55.3195 57.7155 55.6031 57.624L56.4786 57.2996L58.0463 56.6923C60.3227 55.8355 62.5991 55.2449 64.8839 55.0869C67.1603 54.9205 69.4034 55.2117 71.4797 55.977C73.5393 56.7506 75.4906 57.9983 77.0916 59.5206C78.4924 60.8932 79.5264 62.8314 80.1518 64.9859C80.7939 67.1403 81.1191 69.4529 81.2442 71.7654C81.3692 74.0779 81.3192 76.4154 81.0774 78.678C81.019 79.2437 80.9523 79.8094 80.8689 80.3584C80.8022 80.8908 80.6688 81.5313 80.6104 82.3049C80.5521 83.0702 80.5688 84.0351 80.9106 85.0167C81.2358 85.9817 81.7612 86.7137 82.2198 87.2793C82.6784 87.845 83.1037 88.2776 83.4122 88.6436C83.6874 89.0096 83.9876 89.3673 84.221 89.7666C84.6964 90.5485 85.0966 91.3887 85.3467 92.3037C85.8804 94.1088 85.9805 96.0969 85.8137 98.0518C85.6302 100.007 85.2217 101.986 84.6046 103.792C84.0293 105.588 83.2287 107.227 82.2198 108.641C81.2108 110.055 79.985 111.228 78.6342 112.218C77.9588 112.717 77.25 113.166 76.4828 113.616C76.0993 113.849 75.7074 114.065 75.2571 114.356L74.8818 114.597C74.7151 114.705 74.565 114.872 74.4065 114.996C74.073 115.254 73.8228 115.595 73.5727 115.92L73.2642 116.619C73.1808 116.876 73.0974 117.159 73.064 117.284C72.9973 117.567 72.9389 117.85 72.8722 118.133C72.7555 118.665 72.6638 119.131 72.547 119.58C72.3219 120.487 72.0551 121.285 71.7132 122.009C71.3796 122.733 70.946 123.332 70.4791 123.881C70.2206 124.122 69.9954 124.405 69.7036 124.604L69.295 124.929L68.8447 125.195C67.6023 125.919 66.4015 126.301 65.1507 126.326C63.9083 126.376 62.6908 126.16 61.5901 125.877C59.3804 125.286 57.621 124.521 56.3702 124.122C55.1194 123.698 54.3856 123.589 54.2272 123.864C54.1105 124.064 54.6191 124.604 55.7031 125.42C56.7955 126.218 58.4298 127.358 60.873 128.356C62.0988 128.838 63.5497 129.271 65.2508 129.362C66.9102 129.487 68.778 129.046 70.4874 128.19C70.4624 128.522 70.4624 128.872 70.4957 129.229C70.5958 130.702 71.3213 132.415 72.4887 133.78C73.6561 135.169 75.1904 136.267 76.8164 137.074C78.4507 137.889 80.2269 138.438 81.9446 138.704C83.6624 138.97 85.3217 138.979 86.7643 138.821C89.6494 138.513 91.5923 137.581 91.9759 137.448C92.2177 137.34 92.4429 137.24 92.668 137.14C92.0593 140.068 92.151 147.172 92.2594 154.434C92.3011 156.788 92.3512 159.159 92.3928 161.405C92.4345 163.66 92.4846 165.756 92.4429 167.544C92.3845 171.138 91.8508 173.517 91.7341 173.991C91.3172 175.796 90.5834 177.651 89.7996 179.598C89.0074 181.528 88.1985 183.657 87.6232 185.737C86.4308 189.904 85.8471 193.997 85.6052 197.524C85.3718 201.059 85.4385 204.037 85.7303 206.134C86.0305 208.23 86.5558 209.461 87.3814 209.486C88.0901 209.511 88.6321 207.831 89.0741 205.144C89.5244 202.457 89.8829 198.772 90.4916 194.812C91.092 190.844 92.026 186.668 93.4852 182.925C94.2107 181.02 95.0028 179.09 95.6115 177.177C96.2286 175.255 96.5955 173.359 96.7789 171.787C97.1542 168.992 97.2042 165.273 97.1208 161.43C97.0625 157.562 96.929 153.403 96.6622 149.568C96.2453 143.462 95.4865 138.23 94.3524 136.425C94.761 136.267 95.1362 136.142 95.4781 136.092C96.3453 135.934 97.2709 136.109 98.3549 136.55C99.4223 136.974 100.565 137.623 101.79 138.238C103 138.862 104.417 139.444 105.71 139.744C105.943 139.802 106.177 139.852 106.41 139.894C105.559 143.279 104.876 149.41 104.634 155.707C104.434 160.449 104.45 165.273 104.567 169.033C104.642 172.777 104.951 175.638 105.042 176.195C105.318 178.35 105.776 180.621 106.677 182.825C107.119 183.923 107.702 185.013 108.311 185.978C108.92 186.943 109.554 187.825 110.137 188.648C111.33 190.312 112.197 191.734 112.814 193.348C113.439 194.937 113.848 196.567 114.14 198.131C114.707 201.267 114.874 204.121 115.224 206.159C115.566 208.205 116.074 209.436 116.908 209.453C117.609 209.469 118.184 207.814 118.534 205.061C118.859 202.315 119.01 198.389 117.917 194.022C117.484 192.292 116.766 190.503 115.841 188.839C115.916 188.848 115.974 188.84 116.049 188.856C116.541 188.931 117.158 189.122 117.575 189.447C118.092 189.804 118.768 190.453 119.602 191.219C120.027 191.601 120.519 192.025 121.128 192.433C121.736 192.841 122.478 193.24 123.362 193.473C124.23 193.706 125.155 193.756 126.006 193.673C126.856 193.589 127.657 193.39 128.399 193.157C129.141 192.924 129.825 192.649 130.483 192.4C131.134 192.134 131.759 191.951 132.41 191.709C137.613 189.921 143.909 189.289 150.196 189.272C151.805 189.264 153.423 189.28 155.016 189.305C154.907 190.886 154.807 192.475 154.749 194.047C154.574 198.547 154.665 202.873 154.991 206.633C155.641 214.153 157.175 219.277 158.785 218.986C160.202 218.736 159.477 211.615 159.368 202.939C159.293 198.597 159.368 193.889 159.652 189.455C159.652 189.438 159.652 189.422 159.652 189.413C162.587 189.48 165.414 189.547 168.049 189.505C167.999 207.265 167.84 224.035 170.55 224.027C172.61 224.018 172.793 205.451 172.71 189.347C175.87 189.172 179.473 188.84 183.258 188.274C186.127 187.85 189.095 187.301 192.039 186.627C193.515 186.294 194.907 185.911 196.191 186.053C197.459 186.178 198.651 186.943 199.869 187.725C200.477 188.124 201.145 188.473 201.778 188.815C202.445 189.114 203.087 189.422 203.763 189.638C205.089 190.112 206.423 190.42 207.715 190.57C210.292 190.919 212.677 190.661 214.62 190.204C218.547 189.255 220.632 187.5 220.907 187.242C221.224 186.91 220.965 186.943 220.265 187.251C219.573 187.567 218.389 188.091 216.771 188.548C215.153 188.989 213.077 189.372 210.726 189.255C208.382 189.156 205.756 188.598 203.321 187.334C202.704 187.034 202.128 186.652 201.528 186.277C200.936 185.87 200.302 185.396 199.56 184.93C198.818 184.472 197.943 184.015 196.909 183.79C195.891 183.566 194.891 183.591 193.998 183.69C193.098 183.79 192.281 183.965 191.505 184.098L189.154 184.497C187.586 184.747 186.018 184.971 184.459 185.154C180.298 185.662 176.271 185.92 172.677 186.011C172.643 181.203 172.593 176.761 172.577 173.301C172.543 166.463 172.727 154.8 172.51 144.843C172.46 142.414 172.376 140.093 172.268 137.964C173.469 137.207 174.595 136.441 175.629 135.684C176.212 135.252 176.846 134.778 177.496 134.245C178.172 133.713 178.814 133.122 179.364 132.831C179.639 132.682 179.865 132.607 180.04 132.598C180.215 132.582 180.423 132.632 180.782 132.831C181.115 133.014 181.566 133.33 182.066 133.605C182.541 133.896 183.058 134.129 183.575 134.362C185.676 135.235 188.011 135.61 190.288 135.526C192.564 135.452 194.799 134.969 196.808 134.22C200.844 132.698 204.005 130.344 206.264 128.547C206.506 128.348 206.74 128.156 206.965 127.973C207.165 128.048 207.373 128.131 207.574 128.198C210.342 129.121 213.177 129.753 216.079 130.07C216.804 130.144 217.538 130.203 218.272 130.236C218.997 130.261 219.706 130.277 220.432 130.269C221.557 130.261 222.7 130.203 223.85 130.07C223.425 134.378 223.25 141.241 223.075 148.229C222.8 159.683 222.491 171.462 222.425 172.76C222.066 182.692 221.107 193.506 220.548 201.858C220.006 210.21 219.923 216.124 221.591 216.29C222.992 216.44 224.443 208.321 225.418 198.314C226.419 188.315 226.902 176.453 227.144 169.183C227.386 162.786 227.886 151.864 227.695 142.547C227.595 137.348 227.303 132.665 226.777 129.537C229.062 128.971 231.272 128.015 233.19 126.8C233.298 126.734 233.406 126.651 233.515 126.584C231.572 133.73 231.455 163.069 231.43 165.007C231.188 181.894 229.662 201.9 232.998 201.924C234.349 201.933 235.049 195.694 235.449 187.816C236.65 188.216 238.76 187.675 241.295 187.134C241.712 187.043 242.195 186.943 242.504 186.885C242.662 186.86 242.796 186.843 242.887 186.843C242.996 186.843 242.954 186.826 242.971 186.826C242.979 186.818 242.996 186.81 243.013 186.81C243.021 186.81 243.029 186.801 243.046 186.81C243.079 186.835 243.121 186.876 243.171 186.935C243.379 187.167 243.663 187.642 244.163 188.224C245.181 189.389 246.606 190.012 247.799 190.204C249.016 190.428 250.067 190.362 251.001 190.279C251.676 190.212 252.46 190.079 253.261 189.913C254.053 189.746 254.912 189.563 255.804 189.372C257.597 188.981 259.531 188.548 261.332 188.132C262.8 187.791 264.176 187.459 265.31 187.167C264.968 190.728 264.71 194.155 264.693 197.249C264.693 199.179 264.676 200.96 264.843 202.565C264.993 204.162 265.101 205.56 265.402 206.708C265.944 209.012 266.594 210.293 267.42 210.201C268.128 210.126 268.47 208.246 268.62 205.318C268.779 203.846 268.829 202.107 268.962 200.186C269.112 198.256 269.212 196.143 269.421 193.922C269.763 189.488 270.271 184.63 270.73 180.039C271.197 175.455 271.572 171.138 271.806 167.844C271.989 164.941 272.331 161.006 272.281 156.672C272.331 154.518 272.139 152.255 272.014 150.009C271.897 148.886 271.739 147.763 271.597 146.657C271.514 146.099 271.464 145.55 271.355 145.01C271.239 144.469 271.122 143.928 271.013 143.396C270.772 142.331 270.572 141.291 270.288 140.301C269.971 139.32 269.663 138.371 269.354 137.465C269.196 137.015 269.046 136.583 268.895 136.159C268.72 135.709 268.52 135.26 268.303 134.853C267.87 134.021 267.378 133.272 266.811 132.64C266.702 132.515 266.586 132.399 266.469 132.282C268.378 131.583 270.18 130.677 271.831 129.662C272.389 129.296 272.948 128.938 273.49 128.581C273.999 128.206 274.449 127.873 274.866 127.616C275.283 127.349 275.658 127.183 275.967 127.108C276.283 127.042 276.517 127.033 276.875 127.125C277.401 127.25 278.101 127.649 279.102 128.081C279.402 128.206 279.711 128.323 280.027 128.431C279.16 132.881 278.477 142.056 277.968 151.431C277.593 157.986 277.401 164.733 277.668 170.04C277.968 175.347 278.468 179.124 278.568 179.864C279.277 185.579 280.194 191.485 280.953 197.133C281.712 202.773 282.254 208.155 282.454 212.822C282.654 217.488 282.579 221.431 282.512 224.251C282.529 224.958 282.529 225.599 282.529 226.156C282.546 226.714 282.579 227.204 282.654 227.604C282.796 228.41 283.054 228.901 283.463 228.993C283.813 229.068 284.213 228.56 284.664 227.554C284.889 227.046 285.131 226.422 285.372 225.682C285.581 224.942 285.781 224.085 285.981 223.137C286.773 219.335 287.124 213.961 286.79 208.138C286.49 202.307 285.556 196.077 284.689 190.304C284.68 190.229 284.664 190.154 284.655 190.079C284.88 190.112 285.122 190.137 285.372 190.162C287.265 190.37 289.867 190.487 292.844 190.711C298.789 191.177 306.344 192.159 312.098 192.383C314.191 192.483 317.051 192.491 320.144 192.175C320.92 192.075 321.704 191.984 322.496 191.859C323.28 191.701 324.072 191.535 324.872 191.377C326.448 191.011 327.941 190.52 329.392 190.204C332.269 189.497 335.087 189.829 337.163 190.187C339.24 190.553 340.616 190.861 340.857 190.819C341.358 190.794 340.515 190.295 338.748 189.588ZM168.074 142.048C167.982 144.901 167.924 147.963 167.89 151.04C167.749 163.36 167.965 176.021 167.974 177.418C167.999 180.271 168.007 183.2 167.999 186.128C167.89 186.128 167.765 186.128 167.657 186.128C165.472 186.111 162.812 185.953 159.852 185.77C160.077 182.767 160.327 179.997 160.527 177.726C160.778 174.923 161.186 171.105 161.453 166.945C161.72 162.786 161.853 158.294 161.753 154.16C161.703 152.097 161.595 150.117 161.436 148.32C161.361 147.422 161.261 146.565 161.161 145.766C161.061 144.835 160.803 143.928 160.469 143.188C161.57 142.922 162.645 142.605 163.696 142.231C165.247 141.69 166.731 141.05 168.14 140.343C168.115 140.9 168.099 141.466 168.074 142.048ZM267.186 149.227C268.053 159.226 266.994 169.774 266.936 170.938C266.536 175.813 265.902 180.97 265.402 185.911C264.418 185.928 263.234 185.97 261.949 186.044C260.048 186.153 257.93 186.319 255.912 186.494C254.903 186.585 253.928 186.677 253.01 186.768C252.102 186.86 251.343 186.926 250.684 186.926C250.117 186.935 249.467 186.885 248.858 186.735C248.257 186.577 247.757 186.302 247.465 185.961C247.39 185.87 247.324 185.787 247.249 185.67L246.94 185.146C246.807 184.922 246.648 184.655 246.423 184.339C246.215 184.048 245.823 183.624 245.431 183.341C245.03 183.042 244.564 182.825 244.08 182.692C243.838 182.626 243.588 182.584 243.346 182.551C243.129 182.526 242.912 182.517 242.721 182.526C241.937 182.534 241.328 182.676 240.844 182.784C238.818 183.233 237.034 183.94 235.883 184.73C235.758 184.813 235.65 184.897 235.541 184.98C235.866 176.878 235.925 167.736 236.033 161.979C236.217 152.23 237.467 130.119 235.258 125.819C235.608 126.226 236 126.651 236.45 127.116C237.025 127.699 237.759 128.231 238.518 128.847C239.285 129.446 240.202 129.953 241.136 130.535C241.62 130.81 242.137 131.034 242.654 131.292C243.179 131.525 243.705 131.833 244.28 132.016C245.414 132.432 246.59 132.889 247.857 133.172C249.1 133.538 250.426 133.73 251.76 133.938C252.427 134.037 253.119 134.054 253.803 134.112L254.837 134.187L255.879 134.179C258.397 134.212 260.957 133.846 263.425 133.231C263.917 133.838 264.426 134.736 264.835 135.926C264.968 136.325 265.101 136.741 265.21 137.182C265.31 137.664 265.418 138.172 265.527 138.687C265.735 139.727 266.019 140.809 266.235 141.948C266.419 143.096 266.602 144.277 266.794 145.492C266.969 146.723 267.044 147.979 267.186 149.227Z" fill="white"/>
</svg>
