<svg width="130" height="280" viewBox="0 0 130 280" fill="none" xmlns="http://www.w3.org/2000/svg">
<path d="M129.118 273.422C128.619 274.638 126.599 277.196 129.358 278.359C131.703 279.353 132.985 274.849 133.079 274.595C133.793 272.652 135.682 270.746 132.887 269.674C130.505 268.769 129.68 272.048 129.118 273.422Z" fill="white"/>
<path d="M135.714 242.653C135.861 243.907 135.747 246.053 135.838 247.886C135.94 249.718 136.275 251.295 137.764 251.473C139.025 251.626 139.811 249.28 139.998 246.763C140.201 244.251 139.763 241.673 139.709 241.398C139.404 239.238 139.115 236.829 138.415 235.09C137.736 233.34 136.736 232.338 135.377 232.933C134.197 233.453 134.389 235.121 134.719 237.053C135.07 238.974 135.576 241.228 135.714 242.653Z" fill="white"/>
<path d="M114.089 216.284C115.241 216.972 117.095 218.292 118.804 219.142C120.513 219.981 122.098 220.381 122.92 219.127C123.626 218.053 121.893 216.345 119.901 214.973C117.915 213.595 115.755 212.488 115.532 212.351C113.764 211.338 112.032 209.937 110.562 209.081C109.086 208.23 107.835 207.908 106.938 209.11C106.179 210.131 107.265 211.587 108.923 212.935C110.575 214.299 112.773 215.517 114.089 216.284Z" fill="white"/>
<path d="M86.9213 189.17C87.4927 190.433 88.4066 192.659 89.6203 194.284C90.8234 195.92 92.2574 196.93 93.4461 196.029C94.4657 195.256 93.5258 193.163 92.5278 191.107C91.5086 189.072 90.4522 186.99 90.3402 186.763C89.5073 184.977 89.0388 182.865 88.4716 181.29C87.9045 179.724 87.1855 178.663 85.7139 178.978C84.4699 179.244 84.3122 181.072 84.7491 183.215C85.1753 185.369 86.2434 187.748 86.9213 189.17Z" fill="white"/>
<path d="M82.4666 151.044C82.3813 152.374 82.0346 154.648 82.1052 156.608C82.1811 158.573 82.6902 160.197 84.1842 160.211C85.461 160.22 85.9984 157.934 86.2919 155.586C86.5801 153.232 86.6084 150.79 86.618 150.525C86.8152 146.413 88.2334 141.59 85.2395 141.367C82.7012 141.163 82.6464 148.002 82.4666 151.044Z" fill="white"/>
<path d="M83.5718 113.68C83.7142 114.971 83.6745 117.181 83.8984 119.06C84.1277 120.934 84.6525 122.5 86.157 122.492C87.4337 122.491 87.9337 120.126 87.9779 117.668C88.0379 115.215 87.6157 112.716 87.5777 112.446C87.2999 110.344 87.1644 108.004 86.6866 106.263C86.2089 104.523 85.4155 103.409 83.9706 103.771C82.7321 104.084 82.6376 105.817 82.8039 107.84C82.986 109.868 83.4182 112.218 83.5718 113.68Z" fill="white"/>
<path d="M72.1614 84.3988C72.5763 84.8629 73.083 85.8192 73.7475 86.4463C74.4119 87.0733 75.266 87.3922 76.5026 86.5383C77.5542 85.8179 77.2847 84.5372 76.6556 83.4385C76.0319 82.345 75.0699 81.4651 74.9688 81.365C73.5064 79.8095 72.2048 77.3156 70.2476 79.5981C69.4141 80.5665 69.6876 81.4816 70.2574 82.2999C70.8271 83.1181 71.6986 83.866 72.1614 84.3988Z" fill="white"/>
<path d="M76.8834 37.8138C75.0597 36.588 72.528 35.8713 70.1797 35.3068C67.7609 34.7051 65.0869 34.1911 62.5904 33.9584C58.5611 33.5495 55.0852 34.0231 53.9202 35.1317C53.1152 34.7628 52.2622 34.445 51.3449 34.2877C51.2053 34.2627 51.0461 34.2483 50.887 34.2338C50.9498 34.0238 51.0111 33.7643 51.0618 33.4853C51.2763 32.1117 51.1281 29.9284 50.1274 27.754C49.1266 25.5797 47.2733 23.4142 44.8357 22.219C44.0592 21.8095 43.2288 21.58 42.391 21.43C42.776 20.7437 42.856 19.8202 42.897 18.9178C42.9492 17.4307 42.8424 15.9293 42.8467 15.7509C42.821 13.0486 44.9272 10.6508 41.6264 9.44503C40.2313 8.91773 39.1728 9.94356 38.5967 11.4878C38.0101 13.0126 37.9523 14.9553 37.9492 16.1139C37.9219 17.1347 37.7304 18.9235 38.1434 20.3849C38.2549 20.7772 38.4054 21.1484 38.604 21.4685C38.2003 21.5613 37.7966 21.6541 37.4546 21.8142C36.4748 22.1937 35.3574 22.9245 34.3784 23.9575C33.7482 22.8401 33.0146 21.9043 32.9604 21.7576C31.4732 19.5699 31.2007 16.272 28.0173 17.8447C25.2329 19.1762 27.9439 23.0653 29.0776 24.7401C29.6447 25.7409 30.5733 27.8286 31.9267 28.6048C31.5074 30.7181 31.6871 32.9597 32.4114 34.8563C33.3119 37.3112 34.9862 39.1461 36.5092 39.9562C38.0428 40.7858 39.239 40.6663 39.6208 39.8811C40.3529 38.2523 38.2031 36.7504 36.9957 33.6819C36.374 32.2077 36.0386 30.3773 36.3729 28.7125C36.6772 27.0387 37.6963 25.7073 38.976 25.0899C39.8746 24.6536 41.3812 24.3157 43.0825 24.803C44.7627 25.2514 46.4858 26.4311 47.6929 27.9152C48.93 29.4083 49.6195 31.1476 49.9108 32.524C50.0497 33.1531 50.1058 33.676 50.1394 34.1105C49.0676 34.0872 48.011 34.2317 47.1272 34.509C45.8698 34.888 44.9127 35.356 43.9091 35.9245C41.9411 37.0403 40.3084 38.7291 39.4129 40.5218C38.7315 41.8716 38.4749 43.1674 38.4312 44.2977C36.9904 44.5245 34.5211 48.301 33.225 52.8004C32.4699 55.2716 32.0467 57.89 31.893 59.9349C31.7108 62.0204 31.8913 63.658 31.9218 63.9936C32.0598 65.2267 32.3195 66.5448 32.8464 67.8439C32.9548 68.1373 33.2002 68.6836 33.4724 69.1398C33.7251 69.6066 34.0453 70.0116 34.433 70.355C35.2083 71.0418 36.2489 71.3335 37.2891 71.2985C37.7649 71.2924 38.4057 71.1718 38.7899 71.0895C39.1351 71.0284 39.4486 70.9089 39.7833 70.8283C40.4315 70.6282 41.0376 70.3504 41.6137 70.0636C42.7447 69.4512 43.712 68.676 44.469 67.8386C45.5619 66.6432 46.1953 65.3446 46.5062 64.1954C47.1255 64.9667 47.7944 65.7363 48.5908 66.462C50.5908 68.2462 53.1895 69.8321 56.3588 70.3293C57.8241 70.5671 59.4091 70.5137 60.9711 70.0452C61.0718 70.0913 61.1529 70.148 61.2535 70.1941C61.8604 70.5697 63.6864 71.2409 64.1081 71.0881C65.0488 70.7297 64.7497 69.106 64.4607 68.4325C64.4291 68.3741 64.426 68.2752 64.3928 68.1674C64.7692 67.8379 65.135 67.4889 65.4603 67.1116C67.6535 64.6415 68.2109 61.2462 67.8568 58.8224C67.5222 56.3879 66.9243 54.7248 66.5054 53.3922C66.0671 52.0703 65.7328 51.2201 65.6244 50.9267C65.5055 50.6138 65.367 50.3116 65.2286 50.0093C66.711 50.7911 68.7083 51.5456 71.1912 51.66C72.7403 51.7266 74.4588 51.5004 76.1226 50.8008C77.7174 50.1133 79.4647 48.9158 80.3403 46.8069C81.2144 44.6486 80.6716 42.5281 79.8923 41.0889C79.1295 39.5403 77.8853 38.4534 76.8834 37.8138ZM43.1731 62.2779C42.4192 63.2142 41.3953 64.3973 40.0139 65.2459C39.3329 65.6649 38.5798 65.9972 37.8024 66.1917C37.5263 66.2406 37.5653 66.2195 37.5653 66.2195L37.5353 66.2106C37.5158 66.2212 37.5052 66.2017 37.4947 66.1823C37.4737 66.1434 37.5263 66.2406 37.421 66.0462C37.3262 65.8711 37.281 65.6944 37.2057 65.5088C37.0657 65.1571 36.9842 64.7736 36.9027 64.3902C36.7502 63.6428 36.7163 62.8815 36.705 62.2086C36.6887 59.8031 37.6006 55.3859 38.5902 51.8572C38.9174 50.5986 39.2283 49.4494 39.4627 48.392C39.9498 49.0588 40.5325 49.2966 40.9136 49.1154C41.0801 49.0504 41.1745 48.8987 41.2673 48.6975C42.045 48.8298 42.9155 48.7608 43.6854 48.6458C45.8181 48.3462 47.8119 47.4176 48.0369 47.3209C51.3931 45.881 55.2278 44.2071 54.3569 42.6918C53.5823 41.401 48.8217 44.5319 46.535 45.2921C45.5357 45.6822 43.7935 46.0974 42.3153 46.3947C42.0692 46.4525 41.8621 46.4892 41.655 46.5259C41.7564 45.968 41.8653 45.3306 42.1016 44.6493C42.501 43.4774 43.1781 42.306 44.3568 41.3157C44.9461 40.8206 45.6361 40.3716 46.4372 39.9881C47.2188 39.6152 48.1595 39.2568 48.9189 39.1223C50.328 38.8372 51.9228 39.4072 53.4868 40.5725C54.878 41.6049 56.0956 43.1085 57.1377 44.7072C56.9637 44.8517 56.7898 44.9962 56.5768 45.1618C55.3982 46.152 53.9165 47.2812 52.9235 47.8692C51.2436 49.0051 46.4436 50.5728 47.1495 52.2026C47.4686 52.885 49.2783 52.4081 51.0591 51.6451C52.8594 50.8715 54.5693 49.7446 54.7433 49.6001C56.0062 48.7654 57.3845 47.8179 58.3545 46.8149C59.8904 49.6049 61.0584 52.3677 61.8162 54.6988C61.4773 54.9578 61.1294 55.2467 60.7514 55.5268C59.3493 56.6632 57.584 57.9208 56.4245 58.5738C54.9861 59.5035 51.8187 60.64 50.3085 61.8097C49.2461 60.8257 48.2812 59.7888 47.486 58.7858C47.7621 58.7369 48.0488 58.7074 48.3444 58.648C50.2669 58.2861 52.1678 57.5587 52.3823 57.4425C53.9998 56.8435 55.7822 56.1299 56.9924 55.198C58.2042 54.3155 58.7885 53.3453 58.1933 52.7118C57.6598 52.1456 56.5603 52.8163 55.1636 53.4971C53.788 54.2167 52.1062 54.9764 50.9974 55.3504C49.8511 55.795 47.5325 56.1702 45.9646 56.7676C44.6026 55.0906 43.6647 53.9637 42.8905 54.2571C42.2138 54.4977 42.4466 57.1634 44.2866 60.7947C44.3182 60.853 44.3498 60.9114 44.3919 60.9892C44.014 61.2693 43.6318 61.7277 43.1731 62.2779ZM61.7248 63.752C60.7774 64.8434 59.5473 65.4592 57.9997 65.442C56.4536 65.4743 54.7387 64.8686 53.2247 64.0285C52.8206 63.7946 52.4645 63.5095 52.0694 63.2456C52.6592 63.0772 53.3163 62.8471 53.9525 62.5781C56.0184 61.7362 58.0224 60.5003 58.2353 60.3347C59.7338 59.4228 61.3356 58.3291 62.5006 57.2205C62.7374 58.1235 62.9351 59.0476 62.9632 59.9378C63.0353 61.282 62.6526 62.6712 61.7248 63.752ZM75.8555 44.5321C75.8095 44.9594 75.5443 45.3545 74.8243 45.7946C73.3949 46.6943 71.3356 46.8033 69.5836 46.595C67.8016 46.3778 66.1109 45.9099 64.8078 45.7855C64.2509 45.735 63.7856 45.7605 63.3714 45.8339C63.1276 45.3371 62.9139 44.8493 62.6506 44.363C61.5028 42.2431 60.1359 40.091 58.3219 38.2312C58.1987 38.0967 58.047 38.0028 57.9237 37.8683C59.8995 38.2573 62.3317 38.6506 64.7791 39.2118C67.5447 39.8018 70.6212 40.5002 72.4952 41.1203C74.3903 41.7793 75.0291 42.54 75.1524 42.6745C75.6664 43.2512 75.93 44.0642 75.8555 44.5321Z" fill="white"/>
</svg>
