<svg width="416" height="430" viewBox="0 0 416 430" fill="none" xmlns="http://www.w3.org/2000/svg">
<path d="M359.472 212.776C359.657 212.872 360.886 213.072 362.753 213.287C364.619 213.479 367.123 213.694 369.871 213.628C372.604 213.561 375.596 213.235 378.292 212.369C380.988 211.533 383.321 210.156 384.825 208.868C385.906 208.024 386.869 206.921 387.832 205.951C388.787 204.967 389.78 204.086 390.795 203.649C391.794 203.205 392.854 203.168 393.95 203.449C395.039 203.723 396.083 204.308 396.942 204.996C398.668 206.388 399.868 208.342 400.897 209.675C401.919 211.037 402.786 211.821 403.46 211.503C404.119 211.192 404.097 209.919 403.46 208.016C403.134 207.069 402.638 205.951 401.882 204.789C401.127 203.634 400.09 202.391 398.675 201.399C397.283 200.422 395.579 199.689 393.683 199.519C392.742 199.437 391.757 199.504 390.817 199.763C389.869 200.015 389.017 200.451 388.291 200.955C386.839 201.969 385.884 203.153 385.062 204.115C384.24 205.093 383.588 205.907 382.943 206.462C381.514 207.817 379.366 209.275 376.729 210.178C375.433 210.674 374.011 211 372.611 211.303C371.189 211.555 369.774 211.777 368.412 211.895C365.693 212.162 363.242 212.228 361.583 212.332C359.924 212.414 359.057 212.547 359.472 212.776Z" fill="white"/>
<path d="M232.929 235.916C233.485 235.798 236.951 234.613 242.151 232.785C244.75 231.86 247.78 230.786 251.105 229.609C252.764 229.017 254.498 228.395 256.283 227.759C258.068 227.13 259.904 226.434 261.778 225.834C263.652 225.242 265.593 224.776 267.548 224.709C269.503 224.627 271.437 225.064 273.281 225.782C276.992 227.241 280.347 229.743 284.161 231.29C287.909 232.889 291.753 233.792 295.316 234.214C296.212 234.288 297.078 234.443 297.938 234.443C298.789 234.465 299.626 234.495 300.434 234.517C301.241 234.51 302.019 234.45 302.774 234.421C303.152 234.406 303.522 234.384 303.885 234.369C304.248 234.325 304.596 234.28 304.944 234.243C308.729 233.843 312.803 232.918 316.832 231.282C320.861 229.661 324.831 227.322 328.32 224.294C329.157 223.51 330.068 222.747 330.845 221.933C331.63 221.134 332.371 220.356 333.126 219.683C333.875 219.002 334.63 218.432 335.408 218.039C336.178 217.64 336.956 217.432 337.844 217.351C339.607 217.195 341.629 217.588 343.674 218.002C345.703 218.402 347.673 218.868 349.577 219.387C357.205 221.415 363.642 224.243 368.204 226.382C372.774 228.514 375.552 229.935 375.981 229.298C376.389 228.714 373.774 226.241 368.863 223.28C363.968 220.341 356.709 217.062 348.332 215.027C346.229 214.508 344.118 214.064 341.874 213.702C340.733 213.531 339.526 213.405 338.252 213.45C336.985 213.494 335.615 213.753 334.356 214.301C333.112 214.849 332.045 215.611 331.127 216.411C330.208 217.21 329.416 218.047 328.668 218.846C328.29 219.246 327.934 219.631 327.571 220.001C327.201 220.356 326.831 220.704 326.46 221.06C326.09 221.407 325.735 221.77 325.349 222.103C324.957 222.422 324.564 222.732 324.172 223.051C321.046 225.553 317.617 227.418 314.343 228.721C313.514 229.017 312.729 229.387 311.914 229.602C311.107 229.839 310.329 230.076 309.573 230.298C308.025 230.623 306.596 230.994 305.248 231.127C302.182 231.571 298.604 231.756 294.805 231.297C291.012 230.86 286.998 229.831 283.198 228.055C281.287 227.189 279.369 226.071 277.317 225.064C275.266 224.058 273.036 223.132 270.607 222.769C268.17 222.377 265.711 222.71 263.526 223.302C261.327 223.902 259.319 224.731 257.408 225.486C242.114 231.601 230.441 236.434 232.929 235.916Z" fill="white"/>
<path d="M310.773 274.601C305.692 271.899 299.293 269.56 291.96 267.976C284.635 266.34 276.407 265.548 267.785 264.919C259.156 264.282 250.083 263.845 241.032 262.498C239.899 262.343 238.773 262.172 237.648 261.95C236.522 261.743 235.396 261.551 234.27 261.329C232.033 260.803 229.811 260.366 227.582 259.693C223.168 258.382 218.835 256.569 215.072 253.8C213.198 252.416 211.487 250.78 210.11 248.885C208.725 246.99 207.688 244.873 207.095 242.645C206.51 240.424 206.369 238.152 206.577 235.99C206.777 233.829 207.31 231.778 208.028 229.883C209.473 226.078 211.739 222.91 214.235 220.364C216.783 217.832 219.487 215.996 222.071 214.545C224.649 213.095 227.101 212.058 229.263 211.237C231.433 210.422 233.33 209.83 234.885 209.393C238.011 208.535 239.796 208.253 239.914 208.601C240.025 208.912 237.64 209.971 233.492 211.784C231.433 212.71 228.923 213.82 226.197 215.33C223.471 216.825 220.531 218.743 217.783 221.304C215.102 223.858 212.702 227.241 211.302 231.208C210.613 233.185 210.176 235.309 210.176 237.456C210.184 239.603 210.621 241.757 211.554 243.755C213.369 247.812 217.213 250.928 221.627 253.09C223.849 254.17 226.234 255.037 228.686 255.747C229.908 256.11 231.159 256.406 232.441 256.68C233.715 256.946 234.974 257.287 236.27 257.487C241.41 258.479 246.669 259.071 251.898 259.53C257.127 259.989 262.341 260.314 267.437 260.677C272.533 261.04 277.51 261.484 282.273 262.091C287.035 262.691 291.568 263.579 295.767 264.586C296.812 264.874 297.834 265.163 298.841 265.444C299.345 265.592 299.841 265.711 300.33 265.874C300.819 266.037 301.293 266.207 301.774 266.37C302.722 266.695 303.656 267.014 304.559 267.325C305.455 267.68 306.322 268.035 307.174 268.376C310.536 269.819 313.462 271.314 315.869 272.758C320.72 275.6 323.602 278.043 324.601 278.776C332.023 284.713 338.489 292.197 343.251 300.724C347.977 309.252 350.969 318.342 355.443 326.188C357.68 330.09 360.301 333.65 363.464 336.493C366.612 339.328 370.36 341.319 374.285 342.881C378.211 344.435 382.284 345.598 386.277 346.804C390.261 348.011 394.128 349.18 397.853 350.305C427.672 359.366 448.529 366.124 448.107 367.538C447.929 368.145 440.508 366.383 428.68 363.163C416.851 359.943 400.608 355.265 382.781 350.024C378.322 348.707 373.648 347.322 369.115 345.139C366.856 344.043 364.634 342.748 362.583 341.164C361.598 340.334 360.553 339.557 359.657 338.617C359.205 338.158 358.716 337.729 358.287 337.248L357.013 335.797C355.376 333.828 353.88 331.74 352.606 329.564C351.288 327.41 350.154 325.182 349.073 322.954C346.933 318.497 345.103 314.011 343.155 309.755C341.215 305.484 339.148 301.457 336.667 297.808C334.208 294.151 331.475 290.827 328.594 287.881C325.712 284.935 322.705 282.351 319.691 280.138C316.691 277.947 313.669 276.119 310.773 274.601Z" fill="white"/>
<path d="M252.742 297.452C244.61 294.417 234.781 291.456 223.723 289.324C212.68 287.126 200.444 285.66 187.653 284.927C181.261 284.543 174.721 284.35 168.122 284.291C164.818 284.239 161.507 284.276 158.174 284.283C154.841 284.306 151.471 284.335 148.087 284.254C141.332 284.091 134.429 283.536 127.792 281.567C124.482 280.582 121.267 279.235 118.297 277.488C115.32 275.711 112.631 273.543 110.291 271.107C105.647 266.199 102.358 260.226 100.825 254.008C100.632 253.23 100.447 252.453 100.321 251.668C100.166 250.884 100.055 250.107 99.9657 249.329C99.7879 247.782 99.6916 246.25 99.6472 244.747C99.5731 241.749 99.6768 238.862 99.7213 236.101C99.7657 233.34 99.7657 230.683 99.5065 228.166C99.462 227.529 99.3509 226.915 99.2546 226.308C99.1509 225.693 99.0695 225.086 98.9584 224.487C98.8102 223.895 98.6695 223.302 98.5288 222.718L98.314 221.844L98.0326 220.993C96.6031 216.463 94.4255 212.495 91.9813 209.223C89.5371 205.944 86.8189 203.346 84.234 201.332C81.6342 199.333 79.2123 197.823 77.1088 196.824C76.5829 196.572 76.1089 196.284 75.6275 196.091C75.1534 195.884 74.7017 195.691 74.2869 195.514C73.8721 195.329 73.487 195.159 73.1389 195.003C72.7833 194.87 72.4574 194.744 72.1612 194.633C70.9983 194.174 70.391 193.841 70.4355 193.656C70.4651 193.5 71.4353 193.597 73.2425 193.93C74.1387 194.122 75.2201 194.463 76.5014 194.84C77.7383 195.344 79.2049 195.825 80.7306 196.646C83.8192 198.179 87.3892 200.496 90.8555 203.893C92.6257 205.559 94.2626 207.572 95.8772 209.771C96.2476 210.341 96.6253 210.926 97.0105 211.51C97.1956 211.807 97.3956 212.095 97.5807 212.399C97.7511 212.71 97.9214 213.021 98.0992 213.339C98.4399 213.975 98.8102 214.605 99.1287 215.263C99.4324 215.937 99.7361 216.618 100.047 217.306C100.38 217.988 100.595 218.72 100.869 219.438C101.121 220.164 101.417 220.889 101.595 221.659C101.795 222.422 102.003 223.191 102.21 223.969C102.351 224.761 102.499 225.56 102.647 226.367C103.188 229.602 103.239 232.948 103.247 236.316C103.247 239.684 103.158 243.096 103.417 246.487C103.654 249.884 104.321 253.23 105.587 256.495C108.061 262.994 112.661 269.012 118.779 273.047C121.852 275.023 125.274 276.563 128.881 277.629C132.488 278.709 136.288 279.302 140.132 279.672C147.835 280.397 155.745 280.057 163.641 280.086C171.529 280.086 179.328 280.271 186.927 280.693C194.519 281.115 201.903 281.789 208.932 282.699C215.961 283.617 222.634 284.816 228.826 286.178C235.026 287.504 240.699 289.139 245.802 290.724C248.335 291.575 250.75 292.322 252.965 293.189C255.194 294.01 257.275 294.78 259.171 295.587C266.778 298.726 271.585 301.509 273.177 302.412C279.243 305.884 285.095 310.096 290.19 315.129C295.338 320.096 299.834 325.633 304.211 331.163C308.581 336.692 312.832 342.259 317.484 347.345C322.076 352.497 327.194 356.975 332.808 360.691C338.415 364.414 344.459 367.375 350.614 369.84C356.776 372.298 363.049 374.274 369.249 376.073C375.448 377.865 381.588 379.471 387.558 381.122C393.528 382.765 399.335 384.482 404.852 386.37C415.903 390.101 425.858 394.32 434.516 398.51C438.849 400.612 442.856 402.707 446.515 404.75C450.203 406.771 453.536 408.888 456.38 411.057C459.21 413.248 461.55 415.521 463.298 417.764C465.054 419.999 466.194 422.19 466.883 424.041C467.52 425.921 467.772 427.424 467.794 428.438C467.801 429.459 467.72 429.985 467.535 430C467.379 430.015 467.12 429.334 466.772 428.075C466.305 426.839 465.691 425.011 464.38 422.916C463.083 420.821 461.113 418.504 458.454 416.209C457.81 415.617 457.062 415.077 456.336 414.484C455.566 413.937 454.803 413.344 453.958 412.797C452.307 411.664 450.477 410.561 448.522 409.473C444.604 407.311 440.138 405.091 435.346 402.818C430.546 400.553 425.354 398.258 419.821 396.052C414.296 393.832 408.415 391.7 402.26 389.701C396.105 387.71 389.654 385.918 383.003 384.134C369.73 380.552 355.546 377.021 342.163 370.707C335.504 367.546 329.046 363.704 323.387 358.892C320.535 356.516 317.936 353.91 315.432 351.275C312.973 348.596 310.633 345.864 308.396 343.103C303.922 337.596 299.797 332.044 295.501 326.951C293.383 324.375 291.168 321.977 288.961 319.66C286.694 317.402 284.421 315.255 282.036 313.338C277.258 309.496 272.207 306.394 267.23 303.818C262.275 301.235 257.379 299.14 252.742 297.452Z" fill="white"/>
<path d="M81.3305 342.644C82.2267 342.126 91.7738 334.346 103.839 326.374C106.846 324.375 110.009 322.354 113.201 320.4C114.794 319.423 116.401 318.46 117.993 317.52C119.571 316.602 121.149 315.781 122.734 315.374C124.311 314.952 125.911 315.018 127.444 315.359C128.977 315.714 130.429 316.321 131.799 317.002C133.17 317.683 134.451 318.438 135.68 319.149C136.91 319.859 138.065 320.526 139.132 321.14C142.035 322.813 145.19 324.634 148.486 326.536C150.131 327.491 151.819 328.461 153.523 329.446C154.375 329.934 155.234 330.43 156.093 330.926C156.967 331.429 157.878 331.94 158.848 332.406C160.774 333.31 162.996 334.153 165.559 333.976C166.825 333.88 168.107 333.458 169.203 332.806C170.299 332.155 171.203 331.281 171.906 330.415C173.328 328.661 174.262 326.884 175.276 325.448C175.787 324.73 176.291 324.071 176.839 323.575C177.387 323.072 177.95 322.695 178.58 322.406C179.846 321.865 181.313 321.732 182.727 321.947C184.142 322.139 185.49 322.658 186.66 323.309C187.808 323.96 188.808 324.826 189.704 325.715C190.578 326.618 191.334 327.551 191.993 328.439C193.311 330.223 194.289 331.799 195.074 332.836C195.859 333.88 196.437 334.39 196.77 334.227C197.104 334.072 197.044 333.221 196.637 331.807C196.215 330.4 195.474 328.409 194.089 326.092C193.385 324.937 192.526 323.701 191.386 322.524C190.823 321.925 190.186 321.362 189.46 320.799C188.727 320.274 187.942 319.763 187.075 319.363C185.357 318.542 183.372 317.987 181.209 317.987C180.128 317.994 179.017 318.142 177.913 318.483C176.817 318.838 175.743 319.415 174.817 320.148C173.884 320.881 173.128 321.747 172.491 322.613C171.847 323.479 171.299 324.36 170.78 325.204C169.751 326.869 168.766 328.417 167.588 329.305C167.003 329.734 166.366 330.023 165.685 330.164C164.996 330.297 164.233 330.275 163.44 330.127C161.841 329.83 160.182 329.068 158.552 328.209C151.856 324.59 145.657 321.236 141.198 318.779C139.917 318.068 138.539 317.313 137.088 316.514C135.636 315.721 134.073 314.841 132.325 314.078C130.577 313.316 128.629 312.627 126.444 312.442C125.356 312.346 124.23 312.398 123.111 312.605C121.993 312.82 120.941 313.197 119.949 313.649C117.964 314.567 116.275 315.729 114.571 316.81C112.861 317.905 111.164 319.03 109.483 320.155C106.128 322.413 102.876 324.723 99.8545 326.958C87.7298 335.908 79.3529 343.858 81.3305 342.644Z" fill="white"/>
<path d="M45.7714 348.721C46.1861 347.981 49.1562 338.425 54.015 327.758C56.4147 322.413 59.2737 316.802 62.14 311.746C63.5621 309.215 65.0138 306.824 66.347 304.662C66.6729 304.137 66.9839 303.707 67.295 303.419C67.458 303.278 67.5913 303.16 67.7691 303.093L68.0135 302.96C68.1024 302.938 68.1838 302.915 68.2653 302.893C68.9097 302.701 69.7541 302.945 70.5688 303.263C71.6946 303.707 72.9167 304.44 74.3758 305.069C75.1016 305.388 75.9312 305.669 76.8496 305.824C77.7828 305.987 78.7901 305.913 79.7455 305.699C81.6638 305.188 83.1453 304.026 84.4118 302.93C85.6783 301.812 86.7967 300.672 87.9521 299.754C89.1002 298.807 90.263 298.222 91.4184 298.059C92.0035 297.993 92.5961 298.022 93.196 298.148C93.796 298.289 94.4033 298.526 95.0033 298.822C96.2031 299.436 97.3438 300.317 98.3955 301.294C99.4472 302.264 100.425 303.359 101.41 304.455C109.202 313.16 113.809 320.999 115.149 320.244C115.779 319.889 114.957 317.357 112.883 313.686C110.824 310.014 107.461 305.254 103.195 300.576C102.106 299.384 100.906 298.178 99.4991 297.104C98.0992 296.038 96.4846 295.054 94.5515 294.551C92.6479 294.018 90.3593 294.166 88.5595 295.047C86.7523 295.898 85.4191 297.112 84.2562 298.222C83.1082 299.347 82.0935 300.421 81.0862 301.228C80.0789 302.034 79.1234 302.56 78.205 302.634C77.3014 302.738 76.3163 302.464 75.2868 302.027C74.2573 301.598 73.2499 301.072 72.2056 300.628C71.6057 300.376 70.9317 300.125 70.1318 299.962C69.3615 299.784 68.3542 299.762 67.3913 300.051C66.8951 300.184 66.4581 300.428 66.0285 300.687C65.5915 300.968 65.2286 301.324 64.9175 301.679C64.3102 302.397 63.925 303.108 63.5695 303.73C62.0882 306.291 60.5698 309.082 59.0885 311.976C56.1332 317.779 53.3558 324.042 51.2079 329.771C46.8676 341.23 44.9196 350.424 45.7714 348.721Z" fill="white"/>
<path d="M44.8083 198.86C45.2971 198.379 45.8008 197.616 46.1933 196.676C46.3859 196.21 46.5711 195.706 46.697 195.173C46.8229 194.603 46.971 193.989 47.0673 193.367C47.5191 190.873 47.6006 188.126 47.4229 185.617C47.1044 180.568 45.5563 176.571 46.6525 176.053C47.0895 175.846 48.1635 177.171 49.1116 179.525C50.0745 181.871 50.8077 185.254 50.8225 188.741C50.8373 190.48 50.6818 192.235 50.3929 193.878C50.2522 194.714 50.0819 195.462 49.8671 196.269C49.6375 197.083 49.3412 197.823 49.0079 198.497C48.3339 199.844 47.4821 200.925 46.6303 201.628C45.7786 202.331 45.0009 202.642 44.7417 202.716C43.7566 203.072 42.6159 203.094 41.6012 202.79C40.5569 202.502 39.6607 201.828 39.0237 201.095C37.7646 199.593 37.2461 197.927 36.9276 196.335C36.3573 193.271 36.4314 190.266 36.9202 187.727C37.4016 185.187 38.2756 183.137 39.1274 181.842C39.9866 180.546 40.7865 179.991 41.2901 180.28C41.7419 180.539 41.4383 181.701 40.9865 183.463C40.5495 185.232 39.9866 187.652 39.8681 190.347C39.8088 191.694 39.8532 193.101 40.0236 194.492C40.1199 195.196 40.2088 195.891 40.3791 196.498C40.5421 197.12 40.7569 197.712 41.0235 198.208C41.2901 198.697 41.6012 199.104 41.9271 199.341C42.2456 199.585 42.5715 199.718 42.9344 199.741C43.5788 199.792 44.2528 199.445 44.8083 198.86Z" fill="white"/>
<path d="M42.7789 251.002C42.8085 243.948 42.6011 231.926 42.5937 221.659C42.5937 211.399 42.816 202.894 44.001 202.864C45.0083 202.842 45.6823 215.189 45.9341 227.907C46.1933 240.624 46.0378 253.712 46.0155 255.155C45.897 277.214 45.9415 303.382 43.564 303.308C42.5493 303.278 42.4308 294.203 42.4826 283.136C42.5863 272.077 42.7048 259.012 42.7789 251.002Z" fill="white"/>
<path d="M30.1063 220.238C30.3581 220.075 30.6395 219.831 30.8395 219.342C31.0469 218.868 31.1728 218.165 31.2098 217.329C31.3061 215.634 31.1209 213.805 30.7802 212.154C30.1284 208.831 28.7286 206.284 29.6989 205.581C30.0915 205.3 31.0988 206.018 32.0986 207.528C33.106 209.023 34.0465 211.333 34.3947 213.798C34.5798 215.027 34.6317 216.292 34.565 217.492C34.5057 218.683 34.291 219.986 33.6614 221.119C33.0541 222.259 31.9875 223.051 31.1654 223.339C30.7581 223.517 30.3951 223.562 30.1284 223.636C29.8618 223.665 29.6767 223.68 29.5804 223.687C28.1583 223.784 26.8696 223.362 25.7512 222.74C24.6328 222.103 23.6403 221.215 22.9663 220.06C22.8033 219.764 22.633 219.483 22.5219 219.15L22.3441 218.676L22.2256 218.239C22.0701 217.654 22.0034 217.07 21.9664 216.5C21.9072 215.36 22.0627 214.309 22.2849 213.391C22.7515 211.555 23.4848 210.215 24.1291 209.371C24.7883 208.527 25.3957 208.172 25.9363 208.416C26.3955 208.631 26.3511 209.527 26.0771 210.792C25.8178 212.058 25.3068 213.731 25.2623 215.411C25.2401 216.241 25.3216 217.107 25.5882 217.825C25.8178 218.446 26.277 219.076 26.877 219.535C27.4695 219.994 28.1583 220.297 28.7509 220.401C29.3508 220.497 29.8174 220.408 30.1063 220.238Z" fill="white"/>
<path d="M30.9802 276.881C30.8246 269.064 30.2469 255.755 29.8692 244.392C29.4988 233.029 29.3507 223.606 30.5432 223.532C31.5505 223.473 32.743 237.123 33.4244 251.21C34.1206 265.296 34.3132 279.798 34.328 281.404C34.5354 293.633 34.7946 306.994 34.6317 317.298C34.4761 327.602 33.9503 334.842 32.7726 334.82C31.7505 334.805 31.5431 324.752 31.395 312.494C31.2765 300.228 31.195 285.757 30.9802 276.881Z" fill="white"/>
<path d="M21.9441 184.44C22.307 184.655 22.6848 184.891 23.0551 185.217C23.4328 185.528 23.8476 185.854 24.1883 186.276C24.9586 187.06 25.5289 188.104 26.0177 189.207C26.8769 191.457 27.0102 194.107 26.3214 196.343C26.0251 197.475 25.4696 198.482 24.8993 199.333C24.566 199.733 24.2624 200.118 23.929 200.436C23.5735 200.74 23.2476 201.021 22.9218 201.228C22.5736 201.421 22.2552 201.576 21.9663 201.695C21.6775 201.806 21.3886 201.835 21.1664 201.85C20.7072 201.872 20.4109 201.754 20.2924 201.48C20.0702 200.984 21.0034 200.266 21.8626 198.934C21.9811 198.778 22.0848 198.601 22.1811 198.408C22.2848 198.223 22.3885 198.031 22.4922 197.831C22.6551 197.401 22.8773 196.987 22.9958 196.506C23.2921 195.573 23.4699 194.514 23.4402 193.456C23.418 192.405 23.2402 191.361 22.8921 190.458C22.5292 189.57 22.0478 188.815 21.5219 188.259C21.2552 187.986 20.9738 187.778 20.7368 187.556C20.4702 187.364 20.2183 187.208 20.0035 187.097C19.5666 186.86 19.2703 186.772 19.1666 186.735C18.4037 186.498 17.663 186.49 16.989 186.772C16.3002 187.031 15.6632 187.571 15.167 188.237C14.6707 188.911 14.3152 189.696 14.1227 190.465C13.9375 191.22 13.8708 192.072 13.8782 192.856C13.893 194.44 14.1375 195.899 14.1523 196.987C14.1745 198.082 13.9746 198.808 13.4043 198.971C12.9229 199.104 12.3229 198.364 11.7303 197.002C11.16 195.64 10.5156 193.582 10.6934 191.065C10.8637 188.511 12.2414 185.728 14.73 184.233C15.9521 183.478 17.4927 183.181 18.7814 183.352C20.085 183.492 21.1294 183.966 21.9441 184.44Z" fill="white"/>
<path d="M16.7002 269.76C16.6113 259.522 16.1299 242.075 15.7966 227.189C15.4707 212.302 15.3374 199.963 16.5298 199.911C17.5371 199.866 18.7074 217.765 19.3221 236.212C19.9517 254.659 20.011 273.646 20.011 275.741C20.1072 291.745 20.2109 309.237 19.9072 322.724C19.611 336.211 18.9592 345.679 17.789 345.649C16.7669 345.62 16.7298 332.466 16.7446 316.41C16.7742 300.347 16.8335 281.389 16.7002 269.76Z" fill="white"/>
<path d="M1.013 235.813C1.48703 234.969 2.44247 233.984 3.74603 233.525C5.04959 233.096 6.50128 233.162 7.76779 233.636C9.04913 234.095 10.2268 234.909 11.1082 236.057C11.3378 236.331 11.5155 236.664 11.7007 236.975C11.8562 237.308 12.0266 237.663 12.1155 237.974C12.3377 238.611 12.4414 239.269 12.4932 239.899C12.6562 242.467 11.7822 244.481 11.0045 245.732C10.1972 246.99 9.40469 247.553 8.88623 247.279C8.427 247.035 8.76028 245.798 9.1084 244.059C9.27875 243.193 9.43433 242.201 9.41211 241.194C9.39731 240.698 9.34543 240.195 9.22693 239.714C9.10843 239.24 8.92328 238.759 8.71588 238.426C8.2641 237.708 7.46411 237.071 6.64938 236.79C5.83466 236.471 5.07184 236.516 4.63486 236.73C3.73126 237.093 3.46457 238.337 3.42014 238.529C3.23499 239.358 3.22018 240.446 3.28683 241.475C3.35352 242.504 3.53125 243.511 3.8349 244.399C4.13116 245.295 4.55341 246.08 5.07187 246.694C5.19037 246.849 5.33847 246.99 5.4718 247.131C5.6051 247.242 5.7236 247.368 5.8717 247.464C6.14575 247.679 6.45685 247.841 6.76791 247.989C8.04926 248.545 9.25653 248.522 10.0416 248.389C10.8638 248.293 11.4637 248.026 11.9674 248.389C12.1674 248.537 12.197 248.863 11.9822 249.337C11.76 249.803 11.2341 250.373 10.3972 250.788C8.75287 251.624 5.96799 251.639 3.64972 249.899C2.50912 248.996 1.68701 247.849 1.1167 246.576C0.538971 245.31 0.257568 243.985 0.109436 242.734C-0.0238953 241.461 -0.031311 240.306 0.0649719 239.144C0.146454 237.974 0.435303 236.79 1.013 235.813Z" fill="white"/>
<path d="M5.30133 290.257C5.47168 284.513 5.53091 274.727 5.78275 266.37C6.03458 258.02 6.49374 251.106 7.68622 251.113C8.69351 251.121 9.01944 261.188 8.96759 271.544C8.92316 281.9 8.50095 292.552 8.45651 293.729C7.8862 311.68 7.60477 332.991 5.22726 332.865C4.21255 332.814 4.20511 325.419 4.42731 316.417C4.65692 307.409 5.12357 296.779 5.30133 290.257Z" fill="white"/>
<path d="M362.612 35.333C364.723 39.1601 366.849 43.335 369.189 47.7691C371.515 52.2031 373.996 56.9184 376.589 61.8632C381.773 71.7381 387.432 82.5085 393.313 93.7084C405.075 116.108 417.725 140.262 429.302 162.543C440.871 184.825 451.359 205.233 458.795 220.164C466.231 235.094 470.594 244.517 469.935 244.858C469.653 245.006 467.668 241.786 464.394 236.012C461.121 230.238 456.558 221.918 451.122 211.866C440.256 191.753 425.909 164.69 411.422 137.205C396.994 109.69 382.358 81.7831 370.915 59.9756C368.064 54.5201 365.412 49.442 363.012 44.8525C360.627 40.2334 358.479 36.2139 356.465 32.831C352.488 26.0578 349.266 21.9643 348.199 20.6171C344.111 15.5094 339.348 10.7867 333.645 7.69247C332.223 6.93002 330.756 6.2416 329.238 5.72343C328.49 5.42733 327.712 5.24227 326.942 4.99799C326.157 4.82774 325.387 4.60567 324.587 4.50203C321.424 3.94685 318.173 3.98386 315.017 4.57606C311.847 5.14604 308.788 6.32302 305.922 7.87753C303.048 9.41723 300.382 11.3789 297.975 13.607C293.123 18.041 289.45 23.6446 286.494 29.5444C283.561 35.4737 281.339 41.7287 279.303 47.9763C278.31 51.115 277.325 54.2314 276.355 57.3182C275.444 60.4272 274.473 63.4844 273.629 66.5416C270.133 78.7481 267.207 90.5401 264.8 101.585C262.393 112.629 260.49 122.926 258.979 132.149C258.201 136.753 257.579 141.106 256.964 145.133C256.423 149.167 255.853 152.883 255.438 156.266C253.676 169.768 252.765 177.703 251.987 177.652C251.676 177.629 251.609 174.846 251.757 169.835C251.854 167.333 252.031 164.268 252.268 160.715C252.557 157.169 252.861 153.127 253.357 148.679C254.283 139.781 255.675 129.218 257.705 117.581C259.727 105.945 262.378 93.2494 265.697 80.0732C267.385 73.4924 269.185 66.7858 271.207 60.0497C271.711 58.3619 272.214 56.6742 272.725 54.979C273.259 53.2913 273.792 51.6035 274.325 49.9084C275.377 46.5181 276.51 43.1278 277.718 39.7449C280.154 32.9865 283.073 26.2429 287.117 20.1285C289.131 17.0787 291.457 14.1918 294.064 11.6157C296.678 9.04711 299.589 6.80418 302.722 4.94618C305.848 3.08077 309.255 1.70392 312.773 0.852648C316.284 -0.0134331 319.95 -0.198493 323.453 0.201237C326.979 0.563954 330.356 1.6151 333.452 3.00675C336.534 4.45762 339.348 6.2564 341.852 8.29206C346.873 12.356 350.814 17.0787 354.147 21.7126C357.48 26.3835 360.213 31.0026 362.612 35.333Z" fill="white"/>
<path d="M331.386 75.4987C333.541 77.179 335.956 79.2073 338.704 81.1171C340.096 82.0794 341.496 82.9233 343.081 83.6339C344.659 84.3446 346.355 84.9071 348.11 85.2477C351.599 85.9509 355.413 85.64 358.013 83.6339L358.502 83.2638L358.931 82.8271C359.072 82.679 359.227 82.5458 359.368 82.3903L359.768 81.887C360.301 81.1985 360.798 80.4139 361.272 79.5848C362.235 77.9267 363.101 76.1057 364.249 74.3069C364.797 73.4038 365.493 72.5081 366.279 71.6642C367.13 70.8426 368.138 70.0653 369.36 69.6212C370.589 69.2066 371.826 69.0808 373.041 69.2585C374.248 69.4435 375.292 69.9099 376.174 70.4354C377.055 70.961 377.788 71.5606 378.448 72.1528C379.092 72.745 379.677 73.3298 380.225 73.9294C381.314 75.1212 382.232 76.313 382.988 77.4603C384.491 79.7477 385.343 81.8055 385.751 83.2786C386.151 84.7517 386.128 85.64 385.788 85.7658C385.477 85.8843 384.862 84.8627 383.743 83.175C382.625 81.4946 380.981 79.1333 378.537 76.7571C377.314 75.6023 375.885 74.2921 374.381 73.5C373.626 73.1151 372.863 72.8708 372.137 72.893C371.359 72.9153 370.678 73.1299 370.019 73.5667C369.36 73.996 368.738 74.7066 368.167 75.5579C367.59 76.4018 367.056 77.3641 366.523 78.4004C365.434 80.4435 364.412 82.7456 362.649 84.922C360.879 87.1649 358.183 88.6824 355.502 89.3338C352.791 89.9852 350.095 89.8668 347.606 89.4226C345.11 88.9711 342.8 88.1568 340.711 87.1501C340.192 86.8836 339.689 86.6171 339.185 86.3506C338.696 86.0545 338.222 85.7658 337.748 85.4771C336.852 84.8849 336 84.2927 335.2 83.7079C332.023 81.3392 329.534 79.1925 327.601 77.7416C325.683 76.2685 324.364 75.4025 323.92 75.136C322.239 74.07 320.476 73.1595 318.639 72.5229C318.172 72.3379 317.743 72.2194 317.439 72.175C317.113 72.1232 316.98 72.1454 316.817 72.1972C316.484 72.2934 315.943 72.7598 315.536 73.4408C314.654 74.8695 314.195 76.7645 313.869 78.7928C313.699 79.8587 313.528 80.9246 313.358 81.9832C313.262 82.531 313.151 83.0936 313.025 83.6561C312.892 84.2409 312.721 84.8331 312.521 85.4031C312.114 86.5505 311.588 87.6608 310.892 88.6972C310.195 89.7335 309.344 90.7254 308.218 91.5101C307.107 92.2947 305.722 92.8425 304.307 92.9462C302.878 93.072 301.567 92.7463 300.471 92.3614C299.367 91.969 298.441 91.5027 297.575 91.103C296.693 90.6884 295.827 90.2813 294.975 89.8816C293.264 89.0673 291.605 88.2826 290.005 87.5202C277.229 81.3984 268.407 76.7349 269.037 75.3951C269.57 74.2551 282.317 79.6588 297.701 86.6393C298.656 87.0686 299.619 87.5128 300.589 87.9495C301.515 88.3567 302.382 88.675 303.144 88.7712C303.53 88.823 303.87 88.823 304.211 88.7638C304.381 88.7564 304.544 88.6824 304.715 88.6528C304.878 88.5787 305.048 88.5417 305.203 88.4529C305.848 88.1346 306.485 87.6164 307.018 86.9206C307.559 86.2322 308.018 85.4179 308.373 84.5444C308.736 83.6635 308.959 82.7827 309.159 81.7463C309.559 79.7107 309.766 77.4677 310.388 75.1582C310.707 74.0034 311.136 72.8338 311.751 71.7235C312.388 70.5983 313.247 69.4435 314.699 68.6515C315.41 68.2665 316.321 68.0297 317.15 68.0519C317.965 68.0593 318.646 68.2369 319.217 68.4072C320.291 68.7625 321.268 69.1326 322.216 69.5768C326.016 71.3311 328.949 73.6037 331.386 75.4987Z" fill="white"/>
<path d="M197.83 78.9038C198.392 78.0895 198.955 77.216 199.592 76.3426C200.244 75.4839 200.918 74.5882 201.614 73.6629C203.014 71.8197 204.436 69.8285 206.177 67.852C207.895 65.8756 209.806 63.8843 212.006 62.0189C214.198 60.1535 216.709 58.4361 219.575 57.1481C220.998 56.4819 222.546 56.0082 224.131 55.638C224.938 55.5196 225.738 55.3123 226.575 55.2975L227.819 55.2161C228.234 55.2161 228.649 55.2383 229.071 55.2531C232.396 55.4086 235.737 56.4449 238.522 58.2141C241.329 59.9536 243.669 62.2262 245.639 64.6468C247.61 67.0748 249.232 69.6582 250.631 72.2564C252.031 74.8473 253.209 77.4899 254.253 79.9994C255.298 82.5162 256.261 84.9738 257.127 87.3351C258.868 92.0579 260.245 96.3883 261.26 100.075C263.289 107.447 263.949 112.192 263.252 112.37C262.615 112.54 260.564 105.989 256.89 96.3142C255.046 91.4805 252.772 85.8769 250.083 79.9623C248.743 77.0458 247.224 74.0922 245.432 71.2867C243.64 68.4886 241.514 65.8608 239.055 63.7141L238.099 62.9664C237.781 62.7073 237.462 62.4705 237.122 62.2632L236.114 61.6118L234.537 60.7901L233.989 60.5754C233.626 60.4348 233.263 60.2794 232.893 60.1535L231.767 59.8574C231.582 59.813 231.396 59.7464 231.204 59.7094L230.626 59.6279C227.575 59.095 224.464 59.6279 221.642 60.8197C220.227 61.4045 218.894 62.1966 217.613 63.0182C216.361 63.8991 215.139 64.7948 214.035 65.8015C211.784 67.7706 209.828 69.9173 208.095 72.0122C206.377 74.1366 204.858 76.2389 203.444 78.0747C202.718 78.9852 202.118 79.9105 201.533 80.7618C200.948 81.6205 200.4 82.4125 199.896 83.1528C199.392 83.893 198.926 84.5666 198.511 85.181C198.096 85.7954 197.763 86.3654 197.459 86.8466C196.852 87.8237 196.437 88.4973 196.222 88.8378C189.823 99.1568 184.187 110.623 178.987 121.793C173.78 132.964 168.84 143.793 164.003 152.994C159.174 162.203 154.516 169.798 150.723 174.809C150.257 175.439 149.835 176.053 149.39 176.601C148.938 177.141 148.516 177.644 148.116 178.118C147.316 179.051 146.613 179.836 146.013 180.45C144.813 181.679 144.043 182.227 143.746 182.004C143.494 181.812 144.02 180.628 145.154 178.659C145.724 177.674 146.442 176.49 147.301 175.135C148.116 173.751 149.042 172.174 150.064 170.427C150.575 169.554 151.138 168.665 151.679 167.703C152.212 166.741 152.768 165.741 153.345 164.705C153.923 163.676 154.523 162.603 155.138 161.507C155.723 160.389 156.33 159.242 156.945 158.065C157.567 156.888 158.197 155.682 158.848 154.453C159.471 153.202 160.108 151.928 160.752 150.633C161.396 149.338 162.063 148.027 162.715 146.68C163.359 145.333 164.018 143.964 164.677 142.579C169.973 131.513 175.417 119.217 181.076 107.906C181.787 106.493 182.49 105.093 183.187 103.709C183.912 102.34 184.631 100.978 185.342 99.6379C186.727 96.9434 188.231 94.397 189.623 91.932C192.445 87.0168 195.245 82.605 197.83 78.9038Z" fill="white"/>
<path d="M229.893 91.1548C231.241 91.2732 232.759 91.5989 234.307 92.1097C235.855 92.6204 237.44 93.2941 239.01 94.0121C240.581 94.7227 242.151 95.463 243.684 96.0626C245.091 96.6325 246.58 96.899 248.054 96.9656C249.52 97.0323 250.92 96.8842 252.091 96.5733C253.268 96.2624 254.194 95.7961 254.875 95.2853C256.283 94.3082 256.697 92.9536 257.497 93.0276C257.653 93.0424 257.779 93.183 257.868 93.4569C257.912 93.5976 257.949 93.7678 257.971 93.9677C258.008 94.1749 258.001 94.4044 257.957 94.6635C257.89 95.7072 257.194 97.2691 255.749 98.4387C254.327 99.6231 252.335 100.423 250.18 100.763C248.017 101.067 245.662 100.985 243.351 100.319L242.484 100.045L241.699 99.749C241.173 99.5565 240.684 99.3344 240.181 99.1272C239.196 98.6978 238.248 98.2685 237.351 97.8539C235.552 97.0175 233.907 96.3142 232.47 95.8553C229.604 94.9152 227.686 95.1965 227.308 95.2631C225.864 95.4408 224.427 96.1366 222.96 97.0397C221.494 97.9576 220.012 99.0901 218.353 100.141C216.739 101.192 214.791 102.133 212.821 102.547C210.858 102.969 208.939 102.969 207.206 102.703C203.733 102.147 201.074 100.519 199.681 98.9791C198.259 97.432 197.992 96.144 198.555 95.7221C199.081 95.3075 200.229 96.255 202.214 97.1877C204.155 98.15 207.073 99.0753 210.228 98.7866C211.006 98.6904 211.798 98.5794 212.554 98.3277C213.317 98.1056 214.05 97.8021 214.806 97.3876C216.309 96.5955 217.82 95.4926 219.42 94.4266C221.02 93.3681 222.745 92.3169 224.619 91.7174C226.486 91.103 228.375 91.0215 229.893 91.1548Z" fill="white"/>
<path d="M230.396 212.006C227.671 211.74 224.493 211.281 221.064 210.674C217.635 210.074 213.939 209.319 210.132 208.661C202.518 207.306 194.222 206.44 186.557 206.055C171.217 205.211 158.493 206.506 158.3 204.989C158.226 204.397 162.818 203.286 169.921 202.62C177.017 201.917 186.623 201.761 196.304 202.62C201.148 203.035 205.999 203.679 210.576 204.478C215.154 205.278 219.383 206.181 223.086 206.825C230.493 208.194 235.766 208.276 236.811 208.224C240.803 208.224 244.817 207.558 248.535 206.151C252.246 204.745 255.823 202.309 260.045 200.681C262.171 199.896 264.378 199.356 266.556 199.06C267.096 198.949 267.644 198.941 268.185 198.897C268.726 198.86 269.266 198.83 269.8 198.793C270.866 198.764 271.918 198.815 272.962 198.823C277.11 199.037 280.917 199.807 284.376 200.562C287.783 201.347 290.938 202.072 293.753 202.716C295.145 203.005 296.449 203.301 297.656 203.508C298.863 203.76 299.982 203.916 300.989 204.071C302.004 204.263 302.907 204.315 303.707 204.449C304.507 204.589 305.189 204.648 305.752 204.737C306.877 204.922 307.522 205.189 307.559 205.552C307.596 205.862 306.766 206.188 305.189 206.521C304.404 206.699 303.433 206.736 302.3 206.832C301.73 206.891 301.13 206.862 300.493 206.854C299.856 206.84 299.174 206.847 298.471 206.795C295.641 206.625 292.331 206.121 288.731 205.44C285.131 204.767 281.25 203.916 277.221 203.383C273.199 202.85 269.007 202.687 265.03 203.523C264.06 203.805 263.075 204.034 262.112 204.352C261.156 204.693 260.208 205.093 259.268 205.537C257.371 206.425 255.475 207.476 253.498 208.446C252.505 208.934 251.498 209.401 250.454 209.808C249.935 210.015 249.402 210.178 248.883 210.363C248.358 210.533 247.846 210.741 247.313 210.859C246.261 211.133 245.225 211.429 244.188 211.584C243.669 211.673 243.158 211.792 242.654 211.851C242.143 211.91 241.64 211.969 241.143 212.029C237.144 212.488 233.492 212.303 230.396 212.006Z" fill="white"/>
</svg>
