<svg width="120" height="81" viewBox="0 0 120 81" fill="none" xmlns="http://www.w3.org/2000/svg">
<path d="M1.57009 2.97647C2.35514 2.2 3.14019 1.29412 4.57944 1.29412C5.49533 1.29412 6.28037 1.81176 6.28037 3.23529V11H7.85047V2.97647C8.50467 2.2 9.42056 1.29412 10.729 1.29412C11.7757 1.29412 12.4299 1.81176 12.4299 3.23529V11H14V3.23529C14 0.647059 12.4299 0 10.9907 0C9.68224 0 8.50467 0.647059 7.58879 1.68235C7.19626 0.647059 6.14953 0 4.71028 0C3.66355 0 2.48598 0.517647 1.57009 1.55294V1.68235V0.258824H0V11H1.57009V2.97647Z" fill="white"/>
<path d="M25 11.7176V0H23.4516V8.75294C22.8065 9.6 21.5161 10.5882 20.3548 10.5882C19.3226 10.5882 18.5484 10.0235 18.5484 8.47059V0H17V8.61177C17 11.1529 18.5484 12 20.0968 12C21.2581 12 22.4194 11.2941 23.3226 10.1647V11.7176H25Z" fill="white"/>
<path d="M32.2581 10.6207C30.9677 10.6207 29.9355 9.93103 29.1613 8.82759L28 9.7931C29.0323 11.1724 30.5806 12 32.2581 12C34.1935 12 36 10.8966 36 8.68966C36 4.41379 29.8065 5.65517 29.8065 3.17241C29.8065 2.2069 30.4516 1.51724 31.7419 1.51724C32.9032 1.51724 33.6774 2.06897 34.4516 3.17241L35.4839 2.2069C34.8387 0.827586 33.2903 0 31.871 0C29.8065 0 28.3871 1.10345 28.2581 3.03448C28.129 7.17241 34.4516 5.65517 34.4516 8.55172C34.5806 9.65517 33.8064 10.6207 32.2581 10.6207Z" fill="white"/>
<path d="M42.3623 11C45.1159 11 46.2754 9.72093 47 8.56977L45.6957 7.93023C44.971 9.08139 43.8116 9.72093 42.3623 9.72093C40.3333 9.72093 38.7391 8.05814 38.7391 5.75581H46.5652V4.86046C46.5652 1.40698 44.5362 0 41.9275 0C39.029 0 37 2.04651 37 5.5C37.1449 9.46512 39.7536 11 42.3623 11ZM42.0725 1.27907C43.8116 1.27907 44.971 2.55814 44.971 4.60465H38.8841C39.029 2.55814 40.1884 1.27907 42.0725 1.27907Z" fill="white"/>
<path d="M52.2258 11C53.3871 11 54.5484 10.3452 55.4516 9.29762V10.7381H57V0H55.4516V8.11905C54.8064 8.90476 53.5161 9.82143 52.3548 9.82143C51.3226 9.82143 50.5484 9.29762 50.5484 7.85714V0H49V7.9881C49.129 10.2143 50.6774 11 52.2258 11Z" fill="white"/>
<path d="M61.6667 2.97647C62.5 2.2 63.4722 1.29412 64.8611 1.29412C65.8333 1.29412 66.6667 1.81176 66.6667 3.23529V11H68.3333V2.97647C69.1667 2.2 70 1.29412 71.5278 1.29412C72.5 1.29412 73.3333 1.81176 73.3333 3.23529V11H75V3.23529C75 0.517647 73.3333 0 71.8056 0C70.4167 0 69.1667 0.647059 68.1944 1.68235C67.6389 0.647059 66.5278 0 65.1389 0C64.0278 0 62.7778 0.517647 61.8056 1.55294L61.6667 1.68235V0.258824H60V11H61.6667V2.97647Z" fill="white"/>
<path d="M17.994 36.7788H17.8623L6.66467 17H1V46H6.13773V25.4194L17.8623 46H23V17H17.994V36.7788Z" fill="white"/>
<path d="M34.1486 17L26 46H31.3886L33.0971 39.7189H42.0343L43.6114 46H49L40.8514 17H34.1486ZM34.1486 35.1751L37.4343 22.6129H37.5657L40.72 35.1751H34.1486Z" fill="white"/>
<path d="M54.7226 46H60.2774V21.6774H68V17H47V21.6774H54.7226V46Z" fill="white"/>
<path d="M93 35.5455V17H87.5663V35.8182C87.5663 40.5909 85.7108 42.2273 82 42.2273C78.2892 42.2273 76.4337 40.5909 76.4337 35.8182V17H71V35.5455C71 44.1364 76.1687 47 82 47C87.8313 47 93 44.1364 93 35.5455Z" fill="white"/>
<path d="M108.4 34.2396L113.867 46H120L113.6 33.0369C117.067 31.9677 118.933 29.1613 118.933 25.553C118.933 20.7419 116.267 17 109.733 17H98V46H103.467V34.2396H108.4ZM103.6 21.5438H108.667C111.733 21.5438 113.333 22.8802 113.333 25.6866C113.333 28.3594 112 29.8295 107.733 29.8295H103.6V21.5438Z" fill="white"/>
<path d="M10.7032 52H0V81H5.55484V69.2396H10.7032C17.071 69.2396 21 66.7005 21 60.6866C21 54.6728 17.071 52 10.7032 52ZM10.0258 64.6959H5.55484V56.4101H10.0258C14.2258 56.4101 15.4452 58.0138 15.4452 60.553C15.4452 63.2258 14.2258 64.6959 10.0258 64.6959Z" fill="white"/>
<path d="M40.5663 70.0591C40.5663 74.6727 38.7108 76.2545 35 76.2545C31.2892 76.2545 29.4337 74.6727 29.4337 70.0591V52H24V69.9273C24 78.2318 29.1687 81 35 81C40.8313 81 46 78.2318 46 69.9273V52H40.5663V70.0591Z" fill="white"/>
<path d="M71.9202 60.553C71.9202 55.7419 69.2209 52 62.6074 52H51V81H56.5337V69.2396H61.3926L66.9264 81H73L66.5215 68.0369C70.1656 67.1014 71.9202 64.1613 71.9202 60.553ZM60.5828 64.6959H56.3988V56.5438H61.5276C64.6319 56.5438 66.2515 57.8802 66.2515 60.6866C66.3865 63.3594 65.0368 64.6959 60.5828 64.6959Z" fill="white"/>
</svg>
