<svg width="134" height="134" viewBox="0 0 134 134" fill="none" xmlns="http://www.w3.org/2000/svg">
<path d="M33.5 59.4829L22.061 69.7781L24.6756 68.961H24.839L33.5 66.8366V59.4829Z" fill="white"/>
<path d="M76.9683 69.2878L79.7463 66.5098C79.7463 66.5098 79.9098 66.3463 80.0732 66.3463H89.8781L99.3561 22.5512L72.5561 65.3659L76.9683 69.2878Z" fill="white"/>
<path d="M30.0683 52.1293C30.0683 51.9659 30.2317 51.9659 30.3951 51.9659H36.7683L21.4073 31.0488L24.022 63.2415L30.0683 52.1293Z" fill="white"/>
<path d="M25.1659 69.6146L32.1927 88.4073L31.0488 68.1439L25.1659 69.6146Z" fill="white"/>
<path d="M30.5585 52.6195L21.8976 68.961L39.8732 52.6195H30.5585Z" fill="white"/>
<path d="M76.4781 69.7781L68.7976 63.2415L56.5415 77.4585C56.5415 77.4585 56.5415 77.4585 56.5415 77.6219L49.1878 102.788L76.4781 69.7781Z" fill="white"/>
<path d="M49.5146 65.5293L56.378 76.9683L68.1439 63.2415L49.5146 65.5293Z" fill="white"/>
<path d="M40.8537 51.9659C41.0171 51.9659 41.0171 51.9659 41.1805 52.1293L49.0244 64.8756L68.7976 62.4244C68.961 62.4244 68.961 62.4244 69.1244 62.5878L72.0658 65.039L73.8634 62.0976L21.8976 30.3951L37.5854 51.8024L40.8537 51.9659Z" fill="white"/>
<path d="M40.8537 52.7829L34.1537 58.8293V66.8366L42.4878 112.593L46.0829 110.959L55.8878 77.6219L40.8537 52.7829Z" fill="white"/>
<path d="M80.2366 67.1634L77.4585 69.7781C77.4585 69.9415 77.4585 69.9415 77.4585 70.1049L69.4512 79.7463H121.254L90.2049 67.1634H80.2366Z" fill="white"/>
<path d="M31.7024 67.9805L34.4805 112.429L40.3634 105.076L33.5 67.4902L31.7024 67.9805Z" fill="white"/>
<path d="M49.3512 103.932L120.763 80.4H68.7976L49.3512 103.932Z" fill="white"/>
<path d="M67 0C29.9049 0 0 29.9049 0 67C0 104.095 29.9049 134 67 134C103.932 134 134 104.095 134 67C134 29.9049 103.932 0 67 0ZM123.215 80.4L88.8976 91.6756V105.893C88.8976 106.056 88.8976 106.056 88.7341 106.22C88.5707 106.22 88.5707 106.383 88.4073 106.22L71.0854 100.827L46.7366 111.449L42.4878 113.573H42.161C41.9976 113.573 41.9976 113.41 41.9976 113.246L40.6902 106.056L34.3171 113.573C34.3171 113.737 34.1537 113.737 33.9902 113.737C33.9902 113.737 33.9902 113.737 33.8268 113.737C33.6634 113.737 33.6634 113.573 33.5 113.41L32.1927 90.8585L24.5122 69.7781L20.7537 70.7585C20.5902 70.7585 20.4268 70.7585 20.4268 70.5951C20.2634 70.4317 20.2634 70.2683 20.4268 70.2683L23.5317 64.3854L20.5902 29.4146C20.5902 29.2512 20.5902 29.0878 20.7537 29.0878C20.9171 29.0878 21.0805 29.0878 21.0805 29.0878L74.1902 61.4439L99.8463 20.4268C100.01 20.2634 100.173 20.2634 100.337 20.2634C100.5 20.2634 100.663 20.4268 100.5 20.7537L90.5317 66.6732L123.051 79.9098C123.215 79.9098 123.215 80.0732 123.215 80.2366C123.378 80.2366 123.378 80.4 123.215 80.4Z" fill="white"/>
<path d="M71.5756 100.337L88.2439 105.566V92.0024L71.5756 97.3951V100.337Z" fill="white"/>
<path d="M48.861 104.912L47.3902 109.815L53.6 103.278L48.861 104.912Z" fill="white"/>
<path d="M55.0707 102.788L48.0439 110.141L70.7585 100.337V97.7219L55.0707 102.788Z" fill="white"/>
</svg>
